<svg width="32" height="32" viewBox="0 0 40 32" fill="none" xmlns="http://www.w3.org/2000/svg">
<g id="Group 1171275046">
<g id="Group1171275044">
<path id="Vector29" d="M12.4669 25.4748C16.4656 20.9762 23.4859 21.0217 27.3556 25.6318M37 31H33.1367L33.0181 30.8569C32.7486 30.532 32.3588 30.0625 31.8775 29.484C30.915 28.3271 29.5862 26.7339 28.1215 24.9889C23.8531 19.9038 16.1168 19.8634 11.7194 24.8104L6.2176 31H3C1.89543 31 1 30.1046 1 29V7.48781C1 6.56926 1.62567 5.76881 2.51703 5.547L20.4086 1.09473C20.5724 1.05395 20.7439 1.05533 20.9071 1.09874L37.5141 5.51637C38.3902 5.74942 39 6.5426 39 7.44916V29C39 30.1046 38.1046 31 37 31ZM30.5371 31H8.89351L13.2143 26.1392C16.8143 22.0891 23.1187 22.1396 26.5896 26.2747C28.052 28.0169 29.3788 29.6078 30.34 30.7631C30.4075 30.8443 30.4732 30.9233 30.5371 31Z" stroke="url(#paint0_linear_13_856)" stroke-width="2"/>
<path id="Ellipse_1650" d="M27 13C27 16.866 23.866 20 20 20C16.134 20 13 16.866 13 13C13 9.13401 16.134 6 20 6C23.866 6 27 9.13401 27 13Z" fill="url(#paint1_radial_13_856)">
                                    <animate attributeName="d" values="M27 13C27 16.866 23.866 20 20 20C16.134 20 13 16.866 13 13C13 9.13401 16.134 6 20 6C23.866 6 27 9.13401 27 13Z;M27 7C27 10.866 23.866 14 20 14C16.134 14 13 10.866 13 7C13 3.13401 16.134 0 20 0C23.866 0 27 3.13401 27 7Z;M27 20C27 23.866 23.866 27 20 27C16.134 27 13 23.866 13 20C13 16.134 16.134 13 20 13C23.866 13 27 16.134 27 20Z;M27 7C27 10.866 23.866 14 20 14C16.134 14 13 10.866 13 7C13 3.13401 16.134 0 20 0C23.866 0 27 3.13401 27 7Z;M27 13C27 16.866 23.866 20 20 20C16.134 20 13 16.866 13 13C13 9.13401 16.134 6 20 6C23.866 6 27 9.13401 27 13Z" begin="0s" dur="3s" repeatCount="indefinite" fill="freeze" calcMode="linear" keyTimes="0;0.25;0.5;0.75;1"/></path>
</g>

                                    </g>
<defs>
<linearGradient id="paint0_linear_13_856" x1="20" y1="0" x2="20" y2="32" gradientUnits="userSpaceOnUse">
<stop stop-color="#40AFED"/>
<stop offset="1" stop-color="#2A5AD0"/>

                                    </linearGradient>
<radialGradient id="paint1_radial_13_856" cx="0" cy="0" r="1" gradientUnits="userSpaceOnUse" gradientTransform="translate(25.25 7.75) rotate(123.69) scale(15.7743)">
<stop stop-color="white"/>
<stop offset="0.387806" stop-color="#3968F5"/>
<stop offset="1" stop-color="#11339A"/>

                                    </radialGradient>
</defs>
</svg>