<svg version="1.1" id="Layer_1" xmlns="http://www.w3.org/2000/svg" xmlns:xlink="http://www.w3.org/1999/xlink" x="0px" y="0px"
	 width="100%" viewBox="0 0 512 512" enable-background="new 0 0 512 512" xml:space="preserve">
<path fill="#fff" opacity="1.000000" stroke="none" 
	d="
M513.000000,199.000000 
	C513.000000,302.641479 512.981689,405.783020 513.083862,508.924377 
	C513.087097,512.182251 512.656433,513.106140 509.077423,513.103638 
	C341.118500,512.984680 173.159485,512.983521 5.200591,513.106873 
	C1.461781,513.109619 0.911906,512.176147 0.913945,508.702515 
	C1.012409,340.910217 1.011231,173.117844 0.920367,5.325525 
	C0.918528,1.927752 1.356146,0.884595 5.172530,0.887554 
	C173.131424,1.017765 341.090454,1.014666 509.049377,0.899572 
	C512.571045,0.897159 513.095520,1.729145 513.089355,5.047640 
	C512.968933,69.531586 513.000000,134.015823 513.000000,199.000000 
z"/>
<path fill="#36383D" opacity="1.000000" stroke="none" 
	d="
M403.761475,60.755638 
	C419.977600,46.023899 435.766510,31.272781 454.407532,20.195883 
	C468.126282,12.043915 483.079437,8.093439 499.175903,9.004939 
	C503.054901,9.224594 504.814789,11.092521 504.996216,14.930305 
	C506.000916,36.184105 498.632416,54.570568 486.160797,71.359795 
	C468.249451,95.471886 447.201111,116.704948 425.798950,137.619705 
	C423.715881,139.655380 422.996277,141.795227 422.915100,144.663040 
	C422.633240,154.621658 424.116455,164.653366 422.009613,174.531113 
	C421.027649,179.134933 418.931427,183.347092 415.662384,186.772354 
	C406.017029,196.878769 396.235260,206.854858 386.568085,216.940613 
	C382.202881,221.494797 377.994446,226.198944 373.692657,230.814377 
	C370.620575,234.110458 371.564117,238.298187 372.226379,241.763489 
	C373.707611,249.513962 373.017212,257.325592 373.731873,265.087677 
	C375.206146,281.100220 375.066254,297.253662 376.060486,313.320068 
	C377.218292,332.030151 378.207367,350.744049 379.145355,369.465485 
	C379.742493,381.383423 380.526550,393.296753 381.174469,405.215790 
	C381.562256,412.349457 381.867310,419.470795 382.030151,426.610168 
	C382.091827,429.314056 381.271210,431.323212 379.323883,433.226562 
	C371.816650,440.564301 364.403046,447.999542 357.050659,455.492737 
	C355.276978,457.300415 353.387695,458.052032 350.867615,458.027039 
	C340.870087,457.927704 330.871002,457.998962 320.872528,457.979767 
	C315.357483,457.969177 310.685303,455.075623 305.758392,453.239014 
	C282.911041,444.721954 260.154968,435.959167 237.394745,427.210144 
	C233.739182,425.804993 233.031082,427.003723 232.895432,430.626801 
	C232.408890,443.623108 234.202042,456.531616 234.070267,469.511841 
	C234.028259,473.648132 232.875946,476.804596 229.883591,479.686829 
	C222.563614,486.737457 215.483200,494.036224 208.271103,501.199646 
	C203.649078,505.790436 201.370514,506.019806 195.615906,502.837372 
	C182.677689,495.682281 169.934555,488.123718 156.669769,481.633179 
	C150.839600,478.780426 150.214859,474.131958 150.223755,469.449554 
	C150.240540,460.617493 149.115585,451.880829 148.917953,443.074402 
	C148.605392,429.145111 147.744690,415.225952 146.966736,401.310822 
	C146.772369,397.834412 147.986282,395.362671 150.449005,392.980652 
	C157.874359,385.798767 165.048172,378.357239 172.445847,371.145996 
	C174.388077,369.252747 174.925171,367.830963 172.555313,366.001282 
	C171.508789,365.193298 170.563766,364.210632 169.727325,363.181549 
	C166.722214,359.484406 164.009094,356.937408 159.827957,362.284393 
	C157.781174,364.901855 154.287247,364.544098 151.839859,362.030670 
	C149.381882,359.506378 149.256744,356.167114 151.822327,354.007050 
	C156.081024,350.421478 155.111191,348.096039 151.457642,344.784058 
	C145.300430,339.202423 145.500183,338.982605 139.579819,344.902924 
	C133.098984,351.383667 126.577377,357.824524 120.162994,364.370422 
	C118.417595,366.151642 116.595238,367.082001 114.031532,367.022614 
	C95.782509,366.599823 77.566757,365.617218 59.376717,364.102356 
	C52.764790,363.551697 46.108681,364.504395 39.478245,363.142273 
	C36.753414,362.582550 34.978638,361.740906 33.638523,359.300385 
	C25.731544,344.900787 17.677099,330.582123 9.769056,316.183105 
	C8.054510,313.061249 8.818861,309.881805 11.177885,307.464661 
	C19.440813,298.998199 27.855951,290.680023 36.231239,282.323547 
	C38.272362,280.287018 40.859482,280.048004 43.611492,279.976685 
	C56.259632,279.649109 68.831718,281.602295 81.493736,281.063873 
	C88.521515,280.765076 88.371506,281.065002 85.918762,274.673126 
	C76.525612,250.194397 67.347023,225.632812 57.851624,201.194138 
	C55.384632,194.844772 56.073757,188.408951 56.067966,181.975433 
	C56.061230,174.494507 53.869740,166.224091 56.890278,159.747604 
	C59.813820,153.479126 66.630951,149.026489 71.738541,143.776886 
	C71.970924,143.538040 72.260162,143.338104 72.437843,143.064743 
	C80.747444,130.279968 93.027939,130.770081 105.967400,132.731812 
	C112.680649,133.749603 119.567207,133.485291 126.336922,133.736359 
	C136.125687,134.099380 145.911545,134.782623 155.697800,135.168198 
	C176.229462,135.977173 196.727509,137.641708 217.238846,138.962784 
	C223.527954,139.367844 229.832733,139.350479 236.131302,139.714951 
	C249.875351,140.510269 263.633911,141.227463 277.382538,142.041153 
	C280.278198,142.212524 282.297729,141.094452 284.449371,139.197952 
	C294.688354,130.173111 303.667603,119.811890 313.928101,110.896049 
	C320.388733,105.282082 325.406830,97.913162 333.529297,94.166992 
	C338.001312,92.104446 342.517273,90.903770 347.454773,90.982040 
	C354.785126,91.098259 362.120880,90.908775 369.449921,91.060936 
	C372.352051,91.121178 374.451355,90.171715 376.475098,88.109520 
	C385.412476,79.002098 394.486328,70.028549 403.761475,60.755638 
z"/>
<path fill="#CBDAEC" opacity="1.000000" stroke="none" 
	d="
M309.450806,280.475464 
	C300.912567,289.819885 292.332153,298.799927 283.454102,307.921936 
	C280.562164,309.581024 278.603027,308.151489 277.010010,306.426361 
	C266.553192,295.102448 254.641647,285.295166 244.017532,274.081726 
	C232.421356,261.842346 219.909637,250.401184 207.965103,238.440475 
	C206.463165,236.936508 204.617111,235.648682 204.092560,232.995911 
	C214.920715,222.071533 225.800339,211.505280 236.955658,200.787598 
	C239.138901,200.151794 240.874054,200.499481 242.273010,201.899185 
	C252.205307,211.836700 262.541321,221.376328 272.005035,232.241974 
	C272.678131,236.337509 270.358307,238.827454 268.136200,241.265305 
	C264.679535,245.057587 260.912537,248.553253 257.302643,252.200073 
	C256.371246,253.141022 255.401443,254.049774 254.589340,255.098694 
	C253.503174,256.501587 252.801071,258.123230 254.154465,259.597015 
	C255.720520,261.302399 257.507294,260.614349 258.985657,259.298401 
	C262.572968,256.105164 265.826019,252.564285 269.281738,249.233124 
	C271.060638,247.518356 272.697693,245.571182 275.746796,245.247833 
	C277.363983,245.708176 278.600983,246.270218 279.544281,247.185120 
	C289.166962,256.518127 298.638855,266.003326 307.988617,275.609558 
	C309.174805,276.828278 309.958862,278.288666 309.450806,280.475464 
z"/>
<path fill="#C3D2E9" opacity="1.000000" stroke="none" 
	d="
M203.768433,232.771835 
	C206.333099,233.472031 207.815643,235.329773 209.457367,236.968796 
	C221.956955,249.447784 234.377579,262.006622 246.950607,274.411072 
	C257.613525,284.931000 268.435638,295.289825 279.225586,305.680206 
	C280.158081,306.578186 281.377167,307.178528 282.809814,307.990540 
	C275.792725,315.900085 268.428955,323.736206 260.011230,332.693878 
	C260.394318,327.009735 260.760651,322.829559 260.930939,318.641449 
	C261.062286,315.411041 262.023499,311.734802 257.961517,309.978302 
	C253.922516,308.231781 251.874771,311.297211 249.621155,313.703766 
	C244.390610,319.289276 239.177551,324.891205 233.661591,330.680481 
	C232.870071,330.811554 232.248428,330.878082 231.910797,330.590210 
	C224.730087,324.467804 217.540802,318.347382 212.185379,310.022522 
	C215.701920,305.979980 219.241592,302.278381 222.852219,298.647400 
	C225.425934,296.059204 226.352921,293.219635 223.552078,290.424774 
	C220.739853,287.618622 217.883942,288.576508 215.341110,291.176819 
	C213.492432,293.067352 211.594788,294.909973 209.416199,296.909546 
	C207.017426,298.386780 205.237244,297.501801 203.713043,296.078674 
	C198.608322,291.312500 193.678284,286.365326 188.899612,281.272125 
	C187.733994,280.029816 186.942032,278.559814 187.811768,276.437561 
	C192.597733,271.796082 197.132431,267.434631 201.707489,263.115967 
	C203.752090,261.185974 205.282227,259.121094 204.074509,256.135040 
	C202.849365,253.105972 200.299316,252.774124 197.489395,252.960419 
	C192.612411,253.283768 187.733215,253.573746 184.807983,253.756027 
	C190.507645,247.396835 197.001709,240.151352 203.768433,232.771835 
z"/>
<path fill="#F5F5F5" opacity="1.000000" stroke="none" 
	d="
M206.585052,375.581604 
	C220.668076,360.414673 234.507507,345.503571 248.346939,330.592468 
	C248.685928,330.739929 249.024918,330.887390 249.363922,331.034851 
	C249.144165,335.426636 248.990952,339.822968 248.691681,344.209320 
	C247.922180,355.487610 247.037125,366.758270 246.321777,378.039795 
	C246.176453,380.331543 245.486389,382.058197 243.810104,383.691132 
	C237.378937,389.955994 231.032074,396.310394 224.778107,402.752136 
	C223.124512,404.455353 221.389099,405.043671 219.081177,405.040039 
	C210.767288,405.026978 202.446426,405.024933 194.142303,405.363861 
	C190.780258,405.501068 189.544540,404.667877 189.307861,401.133209 
	C189.001007,396.550751 189.742432,392.941803 193.352692,389.633270 
	C197.996536,385.377594 202.039597,380.466309 206.585052,375.581604 
z"/>
<path fill="#F5F5F5" opacity="1.000000" stroke="none" 
	d="
M139.527390,267.337463 
	C154.260193,266.396729 168.545425,265.497955 182.712494,264.606598 
	C183.662903,266.128876 182.400986,266.572296 181.765930,267.163116 
	C161.887024,285.658600 141.932480,304.073334 122.137032,322.657532 
	C118.214622,326.339935 114.001106,324.224365 109.885788,324.174469 
	C108.341377,324.155762 108.685471,322.437531 108.696144,321.338104 
	C108.785049,312.176056 108.958855,303.014404 108.978561,293.852356 
	C108.982574,291.986389 109.752396,290.792267 110.993805,289.566254 
	C117.630066,283.012329 124.320702,276.506073 130.740799,269.744324 
	C133.230148,267.122528 136.296814,268.107971 139.527390,267.337463 
z"/>
<path fill="#D5E3EF" opacity="1.000000" stroke="none" 
	d="
M271.504150,233.324997 
	C261.432068,223.711472 251.756790,214.127182 242.050873,204.574020 
	C240.755783,203.299332 239.305649,202.182175 237.579330,200.814148 
	C249.307999,188.922104 261.384644,177.208008 273.759094,165.361542 
	C276.395752,165.534592 277.739960,167.301529 279.289551,168.775711 
	C284.192749,173.440338 288.477722,178.782242 294.475891,182.785614 
	C295.342438,184.949097 294.840302,186.696045 294.296600,188.469223 
	C289.935699,202.692017 284.024628,216.231033 276.462494,229.045212 
	C275.355347,230.921326 274.242126,232.800003 271.504150,233.324997 
z"/>
<path fill="#D2E1EE" opacity="1.000000" stroke="none" 
	d="
M309.771729,280.638031 
	C304.243988,273.746002 297.360626,268.213928 291.329895,261.866486 
	C286.430328,256.709656 281.364471,251.710800 276.197815,246.365387 
	C275.159760,244.072357 276.541168,242.820343 277.843140,241.967331 
	C289.351471,234.427338 301.413971,227.979599 314.620270,223.881622 
	C315.080963,223.738678 315.606812,223.870941 316.462463,224.034988 
	C324.342621,232.358322 333.039398,239.456863 339.966431,248.660110 
	C330.039459,259.486267 320.044952,269.961243 309.771729,280.638031 
z"/>
<path fill="#F2F2F2" opacity="1.000000" stroke="none" 
	d="
M357.926514,380.218658 
	C355.383972,350.053375 352.882172,320.349304 350.317383,290.650696 
	C350.148712,288.697662 350.393524,287.220062 351.903687,285.757172 
	C355.355530,282.413452 358.593384,278.848785 363.077087,274.162598 
	C365.736694,322.621674 368.310791,369.522583 370.886566,416.454010 
	C363.212708,414.755219 360.447937,411.527100 359.902374,404.081116 
	C359.330475,396.275421 358.608765,388.480682 357.926514,380.218658 
z"/>
<path fill="#F2F2F2" opacity="1.000000" stroke="none" 
	d="
M168.079727,146.982147 
	C191.791534,148.275742 215.023804,149.555603 239.463623,150.901978 
	C234.913696,155.416138 231.145126,159.097824 227.450363,162.852142 
	C226.172546,164.150543 224.721069,163.756699 223.252991,163.634277 
	C184.420700,160.395981 145.590988,157.125870 106.750755,153.985962 
	C103.932327,153.758102 102.113029,152.862991 100.851501,150.346283 
	C99.746468,148.141800 98.315216,146.100830 96.468956,143.069733 
	C120.696358,144.397614 144.148270,145.682999 168.079727,146.982147 
z"/>
<path fill="#DDEAF2" opacity="1.000000" stroke="none" 
	d="
M105.744606,164.788834 
	C112.784370,165.043091 119.450478,165.544373 126.553986,166.137375 
	C128.269058,167.165649 128.912750,168.410202 129.088272,170.002808 
	C131.499924,191.884872 134.990051,213.645386 136.368408,236.068069 
	C135.893600,237.685089 135.112732,238.540924 133.747406,239.420776 
	C129.794067,240.779846 126.620186,242.826797 123.208405,244.364014 
	C121.452141,245.155319 119.786919,246.393143 117.367172,245.281799 
	C114.999344,239.380615 112.947655,233.702988 110.885628,227.654846 
	C111.347282,219.955078 109.108963,212.931030 108.369614,205.731293 
	C107.134018,193.698990 105.787476,181.667130 104.104294,169.681335 
	C103.864746,167.975540 104.156876,166.368225 105.744606,164.788834 
z"/>
<path fill="#859CC5" opacity="1.000000" stroke="none" 
	d="
M213.240753,479.788025 
	C209.068344,484.100037 205.736176,489.934845 200.949753,491.607025 
	C196.084290,493.306793 191.355545,487.563110 186.549561,485.147308 
	C179.272003,481.489136 172.268707,477.288239 165.026749,473.554840 
	C162.316025,472.157410 161.110016,470.408600 161.109650,467.349243 
	C161.109085,462.527863 161.288025,457.604492 160.407455,452.908722 
	C159.028549,445.555359 160.935791,439.935303 167.405899,435.565063 
	C170.965912,435.524048 173.098892,437.735779 175.208130,439.778351 
	C186.725037,450.931244 198.301941,462.017517 210.187485,472.780334 
	C212.107666,474.519104 214.342712,476.291260 213.240753,479.788025 
z"/>
<path fill="#D6E4F0" opacity="1.000000" stroke="none" 
	d="
M135.371063,237.705887 
	C133.862320,227.864761 132.495087,218.400391 131.514557,208.896118 
	C130.076859,194.960297 127.443588,181.153839 126.992004,166.670990 
	C133.715012,166.784668 140.438644,167.340225 147.578888,168.004333 
	C149.969009,169.638626 150.766769,171.786179 151.023270,174.143753 
	C152.845642,190.893738 154.915741,207.613297 157.012527,224.330688 
	C157.484131,228.090790 157.549088,231.938278 155.949005,236.034210 
	C152.392670,239.918091 148.146652,239.136902 143.556854,238.955231 
	C140.592636,238.850220 137.989410,239.716110 135.371063,237.705887 
z"/>
<path fill="#DBE9F1" opacity="1.000000" stroke="none" 
	d="
M340.336914,248.873154 
	C337.302155,248.624878 335.935333,246.362534 334.200653,244.664795 
	C329.360931,239.928131 324.601776,235.109085 319.819733,230.313644 
	C318.543640,229.033997 317.088593,227.852203 317.025024,225.453552 
	C317.310181,222.406845 319.580597,221.901550 321.531799,221.117386 
	C324.137909,220.070053 326.892578,219.421432 329.472260,218.298111 
	C333.684540,216.463867 334.146271,214.320694 331.141785,210.759079 
	C329.253662,208.520828 326.578735,206.806503 326.351135,203.129120 
	C331.586273,197.102158 338.124390,193.661011 345.682098,191.348114 
	C353.376770,198.750046 360.659027,206.127869 367.920898,213.525482 
	C369.094299,214.720825 369.952087,216.154678 369.353699,218.346786 
	C359.730316,228.715851 350.185089,238.725449 340.336914,248.873154 
z"/>
<path fill="#CFDEED" opacity="1.000000" stroke="none" 
	d="
M155.206894,236.178146 
	C155.247971,220.422943 151.914108,205.345230 150.489517,190.080475 
	C149.831009,183.024277 148.840805,175.999039 147.998245,168.536316 
	C155.390488,168.683990 162.785461,169.255127 170.588928,169.943954 
	C175.454468,173.359283 174.334320,178.547226 174.876678,182.905197 
	C176.283508,194.209381 177.668701,205.520996 179.009369,216.835922 
	C179.224319,218.650085 179.159119,220.471054 178.983536,222.706192 
	C179.193314,226.531097 176.617828,227.865723 174.322662,229.450714 
	C172.836990,230.476700 171.263657,231.357925 169.408295,232.527496 
	C165.032013,234.287308 161.659424,237.658035 156.482208,237.004410 
	C155.875992,236.774780 155.651199,236.639679 155.206894,236.178146 
z"/>
<path fill="#DDEBF2" opacity="1.000000" stroke="none" 
	d="
M294.070435,182.954010 
	C292.232727,182.985001 290.656067,183.072281 289.531830,181.901855 
	C284.409210,176.568726 278.503601,171.982880 274.127563,165.549225 
	C283.432220,156.114059 292.807526,146.998932 302.495697,137.742599 
	C304.452118,137.889359 305.942352,138.440811 307.168030,139.670975 
	C311.684326,144.203735 316.278381,148.658798 320.754272,153.232147 
	C321.686798,154.184967 322.516235,155.199036 322.259338,157.015717 
	C321.751587,159.911682 321.563385,162.403061 324.130493,164.537659 
	C324.566071,167.860626 323.147491,170.335251 321.585907,172.670197 
	C318.376770,177.468552 316.355225,183.038422 311.835693,187.357971 
	C308.592743,188.169510 306.645355,186.369492 305.099335,184.477890 
	C301.905731,180.570496 298.489563,179.930634 294.070435,182.954010 
z"/>
<path fill="#7F95C1" opacity="1.000000" stroke="none" 
	d="
M213.340042,479.943329 
	C212.581070,477.171631 210.223984,475.615692 208.299973,473.878632 
	C196.712570,463.417084 185.224808,452.851074 174.281021,441.714539 
	C172.300461,439.699097 169.454681,438.674133 167.870422,435.714203 
	C172.298538,430.696838 176.904175,426.024414 181.806442,421.196472 
	C183.949814,419.572357 185.539886,420.557037 187.031677,421.650116 
	C188.629669,422.821014 190.338699,423.874054 191.711578,425.319580 
	C199.347336,433.359406 207.839249,440.497955 215.783417,448.213440 
	C218.051376,450.416107 220.081482,452.764191 221.877975,455.766174 
	C224.440109,465.755524 222.531433,474.024414 213.340042,479.943329 
z"/>
<path fill="#BACAE5" opacity="1.000000" stroke="none" 
	d="
M211.862000,309.797913 
	C219.982300,315.586884 226.512161,322.868744 233.200989,330.515533 
	C223.149109,341.927368 212.932465,352.980194 202.403870,364.180328 
	C200.089447,363.926300 199.198776,362.742737 199.704437,360.307495 
	C203.385559,354.084167 201.929718,351.006500 194.940521,350.280151 
	C187.946243,350.176147 185.292740,345.065002 182.189728,340.040833 
	C191.948257,329.745361 201.770203,319.844910 211.862000,309.797913 
z"/>
<path fill="#F5F5F5" opacity="1.000000" stroke="none" 
	d="
M467.886780,25.827187 
	C475.438538,22.466194 482.965912,20.625948 490.822754,19.942577 
	C493.567200,19.703873 494.266327,20.630178 494.042603,23.243057 
	C492.802277,37.725498 487.229523,50.500969 479.063080,62.326653 
	C477.741028,64.241104 476.064941,64.094940 474.243744,63.932434 
	C462.721954,62.904373 450.940918,50.924957 450.015411,39.441868 
	C449.836273,37.219204 450.397766,35.704731 452.317963,34.437229 
	C457.181152,31.227123 462.147705,28.231922 467.886780,25.827187 
z"/>
<path fill="#E2F0F3" opacity="1.000000" stroke="none" 
	d="
M369.574799,218.522888 
	C363.940247,211.338821 356.749359,205.739212 350.611359,199.135544 
	C348.822662,197.211151 346.766754,195.508667 346.083160,192.437668 
	C345.985565,191.638901 346.083801,191.209396 346.522705,190.553619 
	C347.541870,189.707993 348.420593,189.756760 349.651123,189.994873 
	C352.905884,192.728912 355.753448,192.353333 358.840027,190.133865 
	C364.575043,186.009979 370.439117,182.065628 376.567810,177.916901 
	C386.198242,174.074402 396.203979,172.577148 405.505554,168.825562 
	C407.424255,168.051697 409.343201,167.928711 411.442444,169.534576 
	C411.143494,174.495438 408.697845,178.129044 405.497162,181.428726 
	C393.591766,193.702255 381.743652,206.031296 369.574799,218.522888 
z"/>
<path fill="#849AC4" opacity="1.000000" stroke="none" 
	d="
M77.838242,346.620880 
	C74.225670,352.736664 69.329170,354.953186 62.335896,353.651886 
	C57.159569,352.688660 51.737736,352.937592 46.422474,352.871429 
	C43.591869,352.836212 41.931953,351.745544 40.585438,349.214661 
	C34.967613,338.655426 29.284624,328.124512 23.311094,317.764496 
	C21.343822,314.352600 21.657328,312.094666 24.657793,309.764618 
	C26.352509,308.448608 27.769220,306.774597 29.606567,305.110596 
	C33.321301,302.973389 35.642361,305.174988 37.692413,307.296753 
	C44.938919,314.796814 52.965611,321.471069 60.307846,328.858948 
	C64.395195,332.971649 68.764198,336.754028 73.067322,340.622284 
	C74.881416,342.253082 76.968285,343.752960 77.838242,346.620880 
z"/>
<path fill="#ADBEE0" opacity="1.000000" stroke="none" 
	d="
M311.138672,295.727844 
	C317.873138,287.969757 324.765900,280.544403 331.755188,273.211121 
	C340.132874,264.421082 348.577698,255.694702 357.035767,246.981873 
	C358.150177,245.833908 358.942932,244.193161 361.090393,243.939011 
	C362.273804,249.002716 361.865143,254.164307 362.120087,259.267853 
	C362.216949,261.207184 360.622284,262.143677 359.485413,263.292145 
	C353.868042,268.966858 348.273773,274.667267 342.535797,280.218506 
	C340.180328,282.497314 339.253815,284.926208 339.641144,288.228119 
	C340.299194,293.838013 340.565125,299.493866 340.936127,305.569092 
	C338.077545,309.399414 334.040710,308.141418 330.571411,308.473938 
	C323.171844,309.183197 315.800781,311.138214 307.890503,309.373840 
	C305.557770,307.297668 306.187988,305.281860 307.230225,303.337158 
	C308.539978,300.893250 309.957733,298.506592 311.138672,295.727844 
z"/>
<path fill="#E2F0F3" opacity="1.000000" stroke="none" 
	d="
M414.159821,67.053085 
	C421.423279,59.157707 429.622589,52.638653 437.635071,45.903996 
	C439.467529,44.363743 440.233032,44.610359 441.002899,46.915310 
	C445.341431,59.904739 453.971985,68.745659 467.038757,73.008362 
	C470.029633,73.984070 469.207214,75.125984 467.794312,76.745018 
	C461.170288,84.335663 454.567444,91.944794 447.652527,99.734055 
	C442.820831,98.868858 440.588257,95.130196 437.791595,91.522018 
	C436.861511,87.308601 438.949463,83.763878 438.816254,79.958237 
	C438.643829,75.033218 437.763428,74.319519 432.890747,74.883286 
	C429.481110,75.277779 426.220886,76.837173 422.317932,76.084137 
	C419.111481,73.362152 415.587952,71.379295 414.159821,67.053085 
z"/>
<path fill="#E4F1F4" opacity="1.000000" stroke="none" 
	d="
M322.428986,157.161987 
	C315.671387,151.132324 309.075653,145.018204 302.981140,137.918274 
	C313.481995,127.224709 324.097870,116.787720 334.860992,106.504883 
	C338.501953,103.026421 343.154694,101.851036 348.566772,102.070999 
	C351.150818,104.257523 350.264618,106.654678 349.539490,109.010674 
	C347.519196,115.574272 345.709137,122.217155 342.192413,128.653381 
	C341.953735,128.988403 341.977386,128.983475 341.974487,128.971741 
	C341.752838,129.206909 341.545593,129.463104 341.285461,129.967255 
	C335.051239,139.123154 328.881409,148.040421 322.428986,157.161987 
z"/>
<path fill="#7F95C1" opacity="1.000000" stroke="none" 
	d="
M78.202538,346.831482 
	C72.384460,344.125610 68.422264,339.355377 63.953930,335.289215 
	C54.286621,326.491913 45.042343,317.229218 35.646252,308.134979 
	C34.187534,306.723114 32.608566,305.578583 30.255821,305.027039 
	C34.471256,300.162781 38.542568,294.840363 44.647156,291.366089 
	C49.367264,293.886566 52.800446,297.585236 56.281940,301.026062 
	C66.421196,311.046875 77.272865,320.315338 87.182991,330.568390 
	C88.453102,331.882416 89.984039,333.005066 89.198257,335.455322 
	C85.484436,339.382111 81.995338,343.033569 78.202538,346.831482 
z"/>
<path fill="#9CB3D4" opacity="1.000000" stroke="none" 
	d="
M105.274658,279.792175 
	C101.362984,283.652191 100.100243,281.021088 98.883347,277.796997 
	C91.626839,258.571289 84.489967,239.297028 76.905800,220.200790 
	C75.094772,215.640778 75.391502,212.750961 79.198433,209.555481 
	C82.588371,206.709976 85.272514,203.023636 89.172211,198.707886 
	C94.514198,213.846268 99.328796,227.490112 104.185349,241.513794 
	C105.132866,249.265564 105.013481,256.709320 105.755630,264.089172 
	C106.270432,269.208344 106.674606,274.298187 105.274658,279.792175 
z"/>
<path fill="#BFCFE8" opacity="1.000000" stroke="none" 
	d="
M342.444946,326.671997 
	C343.237793,333.038025 343.742676,339.061707 344.176697,345.539734 
	C340.315369,349.780701 335.220917,348.375854 330.803284,348.884460 
	C314.781219,350.728973 298.692566,352.013763 282.657166,353.795990 
	C281.990479,353.870117 281.330872,353.725311 280.278870,353.382599 
	C278.071930,352.158142 277.913788,350.433014 278.641479,348.865143 
	C281.801758,342.056213 286.091705,335.942261 290.727417,330.072693 
	C291.451996,329.155182 292.638275,328.775085 294.278687,328.689270 
	C306.854950,327.461914 319.008423,326.324860 331.155609,325.126312 
	C334.829834,324.763794 338.731964,323.783508 342.444946,326.671997 
z"/>
<path fill="#BCCCE6" opacity="1.000000" stroke="none" 
	d="
M187.737823,276.258301 
	C189.330734,280.202179 192.925125,282.359528 195.715973,285.094269 
	C199.841385,289.136658 203.273224,293.960205 208.769592,296.973328 
	C200.402390,305.864838 191.691360,314.684540 182.678894,323.688904 
	C182.049149,323.836365 181.645584,323.886963 181.410919,323.707001 
	C173.451889,317.602692 166.126419,310.870056 160.459869,302.101013 
	C169.425644,293.279572 178.427338,284.828064 187.737823,276.258301 
z"/>
<path fill="#C8D8EB" opacity="1.000000" stroke="none" 
	d="
M178.528854,224.322205 
	C175.642410,217.709961 176.160995,210.844589 175.137100,204.232864 
	C173.424469,193.173828 172.354050,182.015366 171.005371,170.480194 
	C178.724701,170.650314 186.452011,171.238983 194.587982,171.944489 
	C198.553940,174.994125 197.976166,179.238907 198.462585,183.123581 
	C199.512955,191.512070 201.160812,199.843704 200.989166,208.770187 
	C201.238693,211.040024 200.367477,212.497726 198.995682,213.499161 
	C193.626373,217.418839 188.063507,221.051971 182.214066,224.225342 
	C181.161606,224.796295 180.014389,224.964478 178.528854,224.322205 
z"/>
<path fill="#E5F2F4" opacity="1.000000" stroke="none" 
	d="
M349.681519,415.678894 
	C353.556122,420.185760 358.608551,422.356140 363.196228,425.178101 
	C364.746216,426.131531 366.248840,427.161957 368.325745,428.518036 
	C362.298920,434.488770 356.432922,440.259033 350.624908,446.087067 
	C349.380432,447.335846 347.908417,447.128357 346.445587,447.119720 
	C338.464355,447.072662 330.482910,446.920349 322.502350,446.961273 
	C318.342651,446.982605 315.163605,444.458313 310.373260,443.511658 
	C316.136688,437.778900 321.140167,432.738098 326.222809,427.778412 
	C328.221466,425.828064 329.789948,423.810059 329.046631,420.394714 
	C329.357269,418.106964 330.706970,417.108490 332.362701,416.798706 
	C337.937347,415.755768 343.518158,414.523285 349.681519,415.678894 
z"/>
<path fill="#C9D8EA" opacity="1.000000" stroke="none" 
	d="
M356.362488,129.324020 
	C360.754944,122.143143 366.480530,116.260918 371.962097,109.793167 
	C376.998688,108.518921 378.999451,112.733765 382.425842,115.032272 
	C383.695190,116.246758 384.052063,117.538307 384.422089,118.785538 
	C386.102081,124.448273 389.538422,128.193085 395.510925,129.400803 
	C396.767731,129.654953 398.040070,130.125900 399.427948,131.146210 
	C400.577209,133.046265 401.903320,134.225037 403.377747,135.342712 
	C404.868286,136.472626 405.930695,137.967529 405.440918,140.439911 
	C399.542572,146.579117 393.023224,151.595154 386.303925,156.851761 
	C384.634857,156.836151 383.316803,156.559113 382.312592,155.605942 
	C374.142151,147.850891 365.485352,140.605164 357.862122,132.276413 
	C357.166382,131.516281 356.859650,130.572144 356.362488,129.324020 
z"/>
<path fill="#C6D5EA" opacity="1.000000" stroke="none" 
	d="
M278.897156,352.144196 
	C300.565918,349.599487 321.787567,346.961609 343.636475,345.995361 
	C345.471466,350.557251 344.769257,355.346497 345.586334,360.418396 
	C344.533264,362.753510 342.748444,362.970673 340.880615,363.143494 
	C321.112274,364.972778 301.351196,366.877197 281.606110,368.944855 
	C279.949768,369.118286 278.289062,369.148438 276.335999,368.085907 
	C273.532013,365.534790 273.613525,362.848083 274.885681,359.565216 
	C275.345490,356.429749 275.738342,353.755585 278.897156,352.144196 
z"/>
<path fill="#D6E4F0" opacity="1.000000" stroke="none" 
	d="
M347.265900,384.664185 
	C347.987549,389.404785 348.418427,393.791107 348.793396,398.591858 
	C347.466003,400.924988 345.480255,401.011780 343.454681,401.183014 
	C330.398865,402.286377 317.358246,403.557709 304.339539,405.032745 
	C300.693726,405.445801 297.024811,404.514801 292.970154,405.281799 
	C285.092529,402.699188 277.654266,400.232758 269.965973,397.486206 
	C268.444977,394.804871 269.277985,392.910278 271.555176,391.029633 
	C281.984772,388.001862 292.371307,387.976227 302.605530,386.895386 
	C314.841064,385.603180 327.095703,384.462006 339.338440,383.219635 
	C341.991119,382.950439 344.653717,382.366791 347.265900,384.664185 
z"/>
<path fill="#798FBD" opacity="1.000000" stroke="none" 
	d="
M89.284874,335.641479 
	C83.036652,329.068970 76.661446,322.842621 69.936432,316.991547 
	C62.166733,310.231567 55.543900,302.263824 47.462826,295.827148 
	C46.377224,294.962463 45.904839,293.327881 45.064999,291.735046 
	C53.345959,291.577942 61.710423,291.735596 70.536736,291.969696 
	C80.710144,299.213562 89.526489,307.347687 97.639297,316.751404 
	C99.902519,325.324951 95.703987,330.864807 89.284874,335.641479 
z"/>
<path fill="#C3D2E9" opacity="1.000000" stroke="none" 
	d="
M355.952209,129.206284 
	C356.971191,129.346542 357.874786,129.526871 358.434326,130.064957 
	C367.529114,138.811218 376.580383,147.602829 385.811340,156.665741 
	C380.411591,162.203537 374.029205,166.407532 367.563843,171.010437 
	C365.407990,172.085205 363.639038,171.784393 362.190186,170.469421 
	C355.483521,164.382614 349.422089,157.617035 342.528961,151.720596 
	C341.898376,151.181168 341.838531,150.244736 341.424927,149.126221 
	C345.598999,141.974792 350.649536,135.702484 355.952209,129.206284 
z"/>
<path fill="#E5F2F4" opacity="1.000000" stroke="none" 
	d="
M91.363495,184.296875 
	C85.971054,186.593002 83.227798,191.228561 79.476120,194.687363 
	C76.677124,197.267853 74.259888,200.262451 71.161903,203.627365 
	C68.997406,198.955383 67.029877,195.314606 67.037354,190.905731 
	C67.050346,183.248505 66.965004,175.590652 66.857315,167.933960 
	C66.828545,165.888153 67.028877,164.185089 68.696548,162.570953 
	C74.306038,157.141449 79.712776,151.502472 85.443512,145.693893 
	C86.458511,147.266846 87.253548,148.498917 88.117767,150.041748 
	C91.487221,159.590027 91.427078,169.393677 92.964569,178.927536 
	C93.251152,180.704636 93.156784,182.564880 91.363495,184.296875 
z"/>
<path fill="#8EA4CA" opacity="1.000000" stroke="none" 
	d="
M282.714691,413.703918 
	C293.340118,417.141754 303.500031,420.676697 314.916534,424.648834 
	C309.856018,429.529327 305.444275,433.733704 301.095398,438.002136 
	C299.269440,439.794281 297.619873,438.349060 296.056824,437.760773 
	C277.454773,430.759491 258.882812,423.678253 240.029877,416.375153 
	C240.578171,411.956085 243.897186,411.557007 247.053360,411.910187 
	C258.756104,413.219574 270.583710,412.002655 282.714691,413.703918 
z"/>
<path fill="#CBDAEC" opacity="1.000000" stroke="none" 
	d="
M275.649353,367.234802 
	C288.524811,365.796051 300.982605,364.437744 313.468506,363.426117 
	C323.825439,362.586914 334.105865,360.768890 345.040710,360.898438 
	C345.915039,364.648895 346.290466,368.425537 346.608704,372.602783 
	C345.042542,375.382538 342.601959,375.868713 340.088776,376.078644 
	C319.962891,377.759827 299.879639,379.879486 279.788483,381.917053 
	C278.248108,382.073303 276.823547,381.799469 275.044769,380.895935 
	C273.411469,379.442810 272.981201,377.966217 273.174316,375.817688 
	C272.949890,372.479706 273.274200,369.759857 275.649353,367.234802 
z"/>
<path fill="#B6C7E4" opacity="1.000000" stroke="none" 
	d="
M342.786774,326.592957 
	C328.190308,327.062897 313.827850,329.256958 299.401703,330.682648 
	C297.571991,330.863495 295.786591,331.275848 293.939667,329.588684 
	C292.868103,328.248535 292.729034,327.026398 293.295349,326.001251 
	C296.623718,319.975983 299.852386,313.873413 304.576508,308.761658 
	C305.027344,308.273834 305.713654,308.126160 306.741150,308.015381 
	C318.127197,308.355682 328.951050,305.608093 340.422180,306.005554 
	C341.531158,312.729034 342.185883,319.450348 342.786774,326.592957 
z"/>
<path fill="#7086B6" opacity="1.000000" stroke="none" 
	d="
M307.224518,307.696503 
	C302.692108,314.907776 298.270203,321.793976 293.754028,328.970764 
	C288.498352,336.351715 283.631531,343.630707 279.410706,351.700653 
	C278.535889,354.103424 277.747833,356.184387 276.860779,358.622833 
	C270.980835,362.652161 264.997009,361.775482 258.648865,359.392517 
	C257.943359,352.622223 259.759491,347.496490 264.594299,342.700500 
	C280.134308,327.285339 295.157593,311.349304 310.658905,295.484253 
	C313.994141,300.636322 308.775757,303.437653 307.224518,307.696503 
z"/>
<path fill="#788EBC" opacity="1.000000" stroke="none" 
	d="
M222.236938,455.524841 
	C219.725601,455.816071 218.485855,453.879028 216.929520,452.423187 
	C206.367050,442.542328 195.819946,432.645020 185.240295,422.782623 
	C184.530823,422.121277 183.595642,421.702057 182.434265,421.105560 
	C184.439133,417.060638 187.819962,415.716827 192.473755,415.874939 
	C200.762177,416.156525 209.075882,415.939514 217.370651,415.671661 
	C220.827530,415.560059 221.994522,416.716553 221.981354,420.200043 
	C221.937408,431.819977 222.179886,443.441040 222.236938,455.524841 
z"/>
<path fill="#D1DFEE" opacity="1.000000" stroke="none" 
	d="
M274.777863,380.170502 
	C290.960541,378.394073 306.744171,376.751953 322.533722,375.168610 
	C330.265381,374.393311 338.007935,373.727234 346.148560,373.007599 
	C346.924805,376.737396 347.298065,380.471313 347.614014,384.611847 
	C335.215118,386.133087 322.870361,387.213928 310.532867,388.371826 
	C298.033020,389.544983 285.540375,390.794281 272.612427,392.013458 
	C269.891632,387.551636 271.901215,383.896027 274.777863,380.170502 
z"/>
<path fill="#BCCCE6" opacity="1.000000" stroke="none" 
	d="
M341.040771,148.994370 
	C348.851624,153.438049 354.489319,160.252731 360.822266,166.295898 
	C362.597321,167.989777 363.983093,170.194336 366.888153,171.020279 
	C362.888336,175.151154 357.792847,178.191803 352.810486,181.331528 
	C349.543488,183.390274 348.262787,185.684692 349.891296,189.669556 
	C349.208862,190.354324 348.435242,190.677200 347.340759,191.024979 
	C338.545166,185.344864 332.096130,177.499146 325.114594,170.225113 
	C323.937561,168.998779 323.517303,167.308197 324.760315,165.340149 
	C328.569946,165.628296 330.870209,164.033112 332.727234,161.045410 
	C335.247772,156.990250 338.099060,153.140671 341.040771,148.994370 
z"/>
<path fill="#C1D1E8" opacity="1.000000" stroke="none" 
	d="
M200.489227,210.313568 
	C197.671097,204.351257 198.431992,198.089676 197.359192,192.118484 
	C196.220398,185.779892 195.758881,179.319611 194.999115,172.486893 
	C203.049316,172.685181 211.101990,173.309052 219.574280,174.028900 
	C222.718597,176.040802 222.327393,179.139801 222.527817,181.782639 
	C222.943192,187.259354 225.472046,192.639740 223.235504,198.634064 
	C222.187012,199.930359 221.367188,200.840881 220.267212,201.883362 
	C215.043015,203.236237 211.072525,206.364532 206.746368,208.792007 
	C204.873566,209.842896 203.136734,211.264755 200.489227,210.313568 
z"/>
<path fill="#DDEAF2" opacity="1.000000" stroke="none" 
	d="
M292.806274,405.430359 
	C296.725189,402.132385 301.831635,402.656616 306.439697,402.360657 
	C320.263733,401.472778 333.936493,398.742737 348.289978,399.006775 
	C349.207611,404.304535 349.677704,409.602814 350.129822,415.337524 
	C347.072632,417.577545 343.615601,417.784332 340.271210,417.908813 
	C336.645752,418.043793 333.153595,418.513489 329.384949,419.833405 
	C325.437134,416.114990 320.268768,415.613342 315.705048,413.872009 
	C308.214447,411.013977 300.627869,408.407593 292.806274,405.430359 
z"/>
<path fill="#E2F0F3" opacity="1.000000" stroke="none" 
	d="
M91.364624,184.663986 
	C90.215317,176.929932 89.646027,169.252136 88.573341,161.645325 
	C88.085793,158.187988 88.047470,154.792740 88.147461,150.852707 
	C89.463692,152.238083 91.045647,153.987457 91.959358,156.035034 
	C94.591354,161.933167 98.775490,165.002747 105.752258,164.405258 
	C107.166122,174.384293 108.128258,184.236893 109.286819,194.066345 
	C110.368172,203.240677 111.638412,212.393097 112.871971,221.548889 
	C113.139809,223.536880 112.326172,225.089600 111.059799,226.941193 
	C106.253784,214.808289 101.569756,202.354752 97.059906,189.838455 
	C96.077126,187.110962 94.704903,185.204025 91.364624,184.663986 
z"/>
<path fill="#B5C5E4" opacity="1.000000" stroke="none" 
	d="
M324.852966,164.940399 
	C324.825073,167.519150 326.423462,169.005753 327.995758,170.489243 
	C333.879211,176.040329 339.066986,182.313583 345.461792,187.331711 
	C346.452362,188.109024 346.896515,189.105011 346.996185,190.683014 
	C346.848389,191.326508 346.640503,191.572403 346.208618,191.942169 
	C339.799988,195.683960 333.578979,199.271133 327.009338,202.982544 
	C326.023743,203.314362 325.284302,203.485321 324.760773,203.100128 
	C319.138580,198.963394 313.568604,194.763290 310.796967,187.690308 
	C314.463715,179.562210 319.221436,172.485123 324.028809,165.059326 
	C324.320953,164.851776 324.704376,164.818085 324.852966,164.940399 
z"/>
<path fill="#7086B6" opacity="1.000000" stroke="none" 
	d="
M199.997894,210.337189 
	C204.132767,207.720383 208.044861,205.368759 211.954788,203.013535 
	C214.244217,201.634445 216.559128,200.416763 219.651031,201.877670 
	C203.531143,217.929474 187.075241,233.843643 170.317596,249.903107 
	C169.211197,249.777252 168.258698,249.377838 168.091461,248.611984 
	C166.887161,243.096680 164.481522,237.598465 167.752823,231.538330 
	C171.271790,228.968369 174.524689,226.786530 177.999237,224.339905 
	C185.733719,220.109024 192.653763,215.194687 199.997894,210.337189 
z"/>
<path fill="#B5C5E4" opacity="1.000000" stroke="none" 
	d="
M160.138092,301.870850 
	C168.316238,308.180542 175.315018,315.531555 182.210007,323.514893 
	C177.029343,329.318542 171.594208,334.682129 166.380722,340.253082 
	C164.572144,342.185699 163.528030,341.670105 162.042923,340.064636 
	C159.228165,337.021759 154.425644,334.395996 153.894592,331.050079 
	C153.329620,327.490417 158.774246,325.078552 161.466843,322.053467 
	C163.676651,319.570831 165.025665,317.015778 162.592163,314.122833 
	C160.235733,311.321564 157.447388,311.506042 154.406418,313.969391 
	C152.251099,315.020569 150.861038,314.539856 149.787567,312.353027 
	C153.065155,308.637421 156.458694,305.324005 160.138092,301.870850 
z"/>
<path fill="#7A90BD" opacity="1.000000" stroke="none" 
	d="
M179.310120,388.874298 
	C179.026642,390.988861 178.506302,392.727325 178.844360,394.278748 
	C181.215378,405.159454 176.730499,412.980530 168.430450,419.531311 
	C165.411423,421.914093 163.158035,425.266907 160.555344,428.177185 
	C160.085297,427.863495 159.615250,427.549805 159.145203,427.236115 
	C158.745590,419.350708 158.374405,411.463684 157.925903,403.581055 
	C157.816528,401.658783 158.949173,400.530273 160.136597,399.356598 
	C165.450592,394.104065 170.760849,388.847717 176.362457,383.394653 
	C179.418671,383.947754 180.317017,385.708282 179.310120,388.874298 
z"/>
<path fill="#7A90BD" opacity="1.000000" stroke="none" 
	d="
M129.241394,338.685425 
	C124.329338,343.925018 119.562889,348.711426 114.942162,353.634613 
	C113.204636,355.485901 111.339478,356.235809 108.803215,356.057739 
	C101.538284,355.547638 94.260666,355.218323 86.532539,354.792847 
	C88.257767,350.998199 91.776749,349.150543 93.951584,346.221039 
	C100.591423,337.277222 108.944771,332.694336 120.351418,335.189301 
	C121.435501,335.426392 122.652794,335.054443 124.252319,334.883911 
	C127.489410,334.314575 129.482910,334.916229 129.241394,338.685425 
z"/>
<path fill="#BACAE5" opacity="1.000000" stroke="none" 
	d="
M223.319244,198.897644 
	C221.606689,191.067764 219.931534,183.150146 219.995361,174.569595 
	C230.857361,177.487793 235.885712,169.091843 242.420837,162.994873 
	C246.528717,162.431870 247.324783,165.295944 247.903320,167.974838 
	C248.414124,170.340042 248.260056,172.819153 247.220032,175.569870 
	C239.199783,183.564316 231.415710,191.169861 223.319244,198.897644 
z"/>
<path fill="#889FC7" opacity="1.000000" stroke="none" 
	d="
M282.895142,413.401245 
	C281.953217,415.036835 280.275360,415.050171 278.616608,414.986847 
	C269.229309,414.628571 259.819641,415.717896 250.432663,414.156616 
	C247.137497,413.608551 243.454208,413.192017 240.106537,415.932739 
	C238.952606,415.948975 238.119736,415.845673 237.348724,415.569580 
	C230.789993,413.221100 231.004700,412.273285 235.378342,406.753784 
	C240.645264,400.106995 245.880325,399.084503 253.626450,402.636688 
	C262.942596,406.908844 272.919342,409.740417 282.895142,413.401245 
z"/>
<path fill="#758BBA" opacity="1.000000" stroke="none" 
	d="
M97.946869,316.541443 
	C97.071106,316.848145 95.971245,316.974152 95.506050,316.490173 
	C87.636322,308.302032 77.970779,301.952698 71.066788,292.379211 
	C78.785820,292.062134 86.574577,292.172638 94.359535,292.047424 
	C97.444473,291.997833 98.409065,293.256042 98.315994,296.187531 
	C98.105606,302.813782 98.104393,309.446716 97.946869,316.541443 
z"/>
<path fill="#889FC7" opacity="1.000000" stroke="none" 
	d="
M411.861084,169.457794 
	C404.741486,170.438019 398.638489,174.105927 391.910278,175.710449 
	C387.232941,176.825882 382.582306,177.845642 377.321014,177.820129 
	C388.442749,168.893311 399.897797,159.871414 411.970673,149.410522 
	C411.970673,156.726654 411.970673,162.904648 411.861084,169.457794 
z"/>
<path fill="#7F95C1" opacity="1.000000" stroke="none" 
	d="
M275.137390,379.595581 
	C274.671570,383.885803 273.684509,387.637604 272.255005,391.656677 
	C271.415649,393.511475 270.651001,395.006287 269.801147,396.853577 
	C263.960175,395.225189 258.204376,393.244324 251.329041,390.878143 
	C257.357361,386.853577 256.857635,381.265961 257.187317,375.466919 
	C262.789948,371.271606 268.509735,372.174011 274.647766,374.658752 
	C275.042816,376.394989 275.071564,377.787109 275.137390,379.595581 
z"/>
<path fill="#B1C1E1" opacity="1.000000" stroke="none" 
	d="
M247.292114,175.832123 
	C245.294266,171.862778 247.067719,166.778900 243.037445,163.053314 
	C245.690918,159.759460 248.690903,156.692429 251.632599,153.570465 
	C252.716736,152.419876 253.886703,151.752426 255.533401,151.843887 
	C260.293365,152.108261 265.057983,152.288223 268.336029,152.434906 
	C261.703827,159.877869 254.652115,167.791672 247.292114,175.832123 
z"/>
<path fill="#758BBA" opacity="1.000000" stroke="none" 
	d="
M275.078888,374.608704 
	C269.397644,375.008026 263.781250,375.013153 257.715302,375.023621 
	C257.561371,369.989563 257.856964,364.950195 258.243622,359.460815 
	C264.177582,359.003693 270.020477,358.996552 276.312561,358.984863 
	C276.497711,361.379517 276.233673,363.778748 276.012268,366.591125 
	C275.751160,369.407684 275.447449,371.811096 275.078888,374.608704 
z"/>
<path fill="#DAE8EF" opacity="1.000000" stroke="none" 
	d="
M438.541931,90.764755 
	C441.710449,93.513824 444.987549,95.756798 447.189148,99.557701 
	C441.341888,107.372818 434.006226,113.553253 427.270203,120.725784 
	C423.952637,120.275970 422.451599,118.002045 420.958527,115.232895 
	C420.590942,112.685898 421.602417,110.964264 423.053192,109.536598 
	C427.944580,104.723213 432.135162,99.404205 435.260345,93.269234 
	C435.876648,92.059349 436.773590,91.081596 438.541931,90.764755 
z"/>
<path fill="#DAE8EF" opacity="1.000000" stroke="none" 
	d="
M413.817566,66.799011 
	C417.417084,68.466698 420.048279,70.968887 421.929382,74.640198 
	C422.669159,76.900345 421.188019,77.739510 419.997833,78.466759 
	C414.067352,82.090630 408.547333,86.190407 403.905853,91.416283 
	C403.025879,92.407051 401.765717,92.944420 400.053894,93.306000 
	C395.928619,92.763985 393.206604,91.238113 393.806610,86.486626 
	C399.854919,79.037109 406.856384,73.145164 413.817566,66.799011 
z"/>
<path fill="#D1DFEE" opacity="1.000000" stroke="none" 
	d="
M393.740723,86.265793 
	C394.837128,89.069160 396.874969,90.817421 399.908386,92.029327 
	C400.890869,93.953522 399.964661,95.394409 398.799011,96.558357 
	C392.858002,102.490417 386.942200,108.431587 382.329254,115.880844 
	C378.210114,115.129845 375.963776,111.954437 372.570496,109.799698 
	C378.851685,101.472488 386.155457,93.943268 393.740723,86.265793 
z"/>
<path fill="#D1DFEE" opacity="1.000000" stroke="none" 
	d="
M420.689606,114.472809 
	C423.531311,115.845963 425.627930,117.546165 426.899628,120.511826 
	C420.451813,127.884689 413.244171,134.176376 405.740601,140.650772 
	C404.401428,137.258148 399.252106,136.928406 399.016968,132.339752 
	C405.978333,126.368629 412.075745,119.736809 419.376282,114.510582 
	C419.623718,114.333466 420.013733,114.384636 420.689606,114.472809 
z"/>
<path fill="#788EBC" opacity="1.000000" stroke="none" 
	d="
M167.683411,231.242676 
	C168.190643,237.221451 168.869385,243.241226 169.934784,249.639175 
	C167.303070,254.929581 162.627762,255.473602 157.371841,255.537003 
	C153.840057,249.471954 152.720139,243.285187 155.672882,236.439850 
	C159.791443,234.518723 163.569687,232.926941 167.683411,231.242676 
z"/>
<path fill="#7F95C1" opacity="1.000000" stroke="none" 
	d="
M155.756149,236.048126 
	C156.337585,242.285538 156.661987,248.460541 156.984711,255.057922 
	C152.974884,255.781998 148.966721,256.083710 144.498566,256.335907 
	C141.798431,254.993683 140.749496,253.021683 140.891205,250.473633 
	C141.126724,246.239212 139.635071,241.808182 142.651398,237.499817 
	C146.738205,236.814850 150.551636,237.378876 154.579803,235.942337 
	C155.157944,235.896378 155.328537,235.941055 155.756149,236.048126 
z"/>
<path fill="#B1C1E1" opacity="1.000000" stroke="none" 
	d="
M181.857849,339.794067 
	C186.908478,342.103729 189.523865,347.043243 194.251984,350.128387 
	C191.479507,353.310455 188.291061,356.226898 185.305832,359.338318 
	C183.812302,360.895020 182.670807,361.109711 181.335388,359.352570 
	C181.235779,359.221466 181.095306,359.122314 180.984879,358.998444 
	C178.127167,355.792877 172.337479,352.984772 172.807159,349.647156 
	C173.310379,346.071075 178.464859,343.149536 181.857849,339.794067 
z"/>
<path fill="#97AED1" opacity="1.000000" stroke="none" 
	d="
M105.392677,280.061920 
	C103.432541,267.702515 101.981026,255.184814 103.953598,242.221497 
	C107.442963,250.601593 110.637779,259.317352 113.890373,268.011536 
	C114.613884,269.945465 114.370529,271.460541 112.799973,272.910400 
	C110.358673,275.164032 108.057915,277.569916 105.392677,280.061920 
z"/>
<path fill="#8EA4CA" opacity="1.000000" stroke="none" 
	d="
M117.064316,245.424530 
	C121.882263,242.976395 126.210274,239.823486 131.676651,238.291290 
	C135.068024,244.015457 136.191925,249.973373 133.329712,256.605042 
	C129.139694,257.108307 126.159027,259.036926 123.186974,262.316864 
	C121.031364,256.485901 119.054482,251.138351 117.064316,245.424530 
z"/>
<path fill="#889FC7" opacity="1.000000" stroke="none" 
	d="
M342.266418,128.859467 
	C342.954498,119.923645 346.759094,111.614586 348.988586,102.500916 
	C353.730927,102.120422 358.474762,102.120422 364.209351,102.120422 
	C356.638855,111.433838 349.608978,120.082184 342.266418,128.859467 
z"/>
<path fill="#859CC5" opacity="1.000000" stroke="none" 
	d="
M133.436615,257.007690 
	C133.396317,250.962311 131.333603,245.113266 132.019638,238.672684 
	C132.844772,238.024323 133.663864,237.816666 134.769806,237.477997 
	C137.415588,237.248398 139.774551,237.149796 142.574982,237.105225 
	C143.323929,243.244110 142.189499,249.397491 143.961304,255.851410 
	C140.710983,257.312927 137.269257,256.856964 133.436615,257.007690 
z"/>
<path fill="#7086B6" opacity="1.000000" stroke="none" 
	d="
M129.337769,338.934021 
	C128.808960,336.830902 127.051689,336.007751 125.020554,334.970093 
	C132.821243,327.263245 140.946075,319.723907 149.371277,312.067719 
	C150.919861,312.614624 152.168091,313.278381 153.753784,314.043213 
	C145.940063,322.357483 137.788864,330.570648 129.337769,338.934021 
z"/>
<path fill="#7086B6" opacity="1.000000" stroke="none" 
	d="
M179.431427,389.142639 
	C179.138718,387.272217 178.098389,385.615997 176.836914,383.585449 
	C184.199860,375.542847 191.747253,367.889130 199.583664,360.077637 
	C200.521744,361.169861 201.170792,362.419830 201.955872,363.998718 
	C195.169266,373.022552 187.142471,380.713898 179.431427,389.142639 
z"/>
<path fill="#889FC7" opacity="1.000000" stroke="none" 
	d="
M341.458557,130.079529 
	C341.311005,129.871231 341.400970,129.536560 341.731262,129.080963 
	C341.879730,129.291061 341.787903,129.622131 341.458557,130.079529 
z"/>
<path fill="#373A3E" opacity="1.000000" stroke="none" 
	d="
M310.579407,187.192963 
	C315.949188,192.506790 321.004395,197.682785 326.360168,202.982788 
	C328.572052,205.171265 330.448364,207.269531 332.401489,209.293655 
	C337.654816,214.737839 336.664642,218.399384 329.351807,220.719406 
	C325.419495,221.966934 321.534973,223.365189 317.317688,224.897049 
	C302.492554,229.968109 288.995514,236.861954 276.200867,245.798126 
	C270.470215,250.327042 266.031647,255.723724 261.044495,260.549591 
	C258.321594,263.184448 255.372330,264.548889 252.405884,261.547546 
	C249.431229,258.537903 250.916321,255.644913 253.509415,252.909317 
	C259.423737,246.669907 266.405426,241.406891 271.056152,233.616714 
	C281.444427,218.039383 288.178009,201.157135 293.701721,183.350723 
	C296.793549,177.303543 299.702271,176.806030 304.306732,181.211319 
	C306.316650,183.134277 308.280212,185.105698 310.579407,187.192963 
z"/>
<path fill="#373A3E" opacity="1.000000" stroke="none" 
	d="
M232.773071,276.736511 
	C232.797256,272.254150 234.943253,270.152405 239.011475,270.617340 
	C241.828323,270.939240 243.430283,273.021667 243.490265,275.795746 
	C243.544464,278.301361 242.292038,280.372223 239.696426,280.991394 
	C236.324997,281.795624 233.817719,280.695557 232.773071,276.736511 
z"/>
<path fill="#37393D" opacity="1.000000" stroke="none" 
	d="
M421.215393,114.255600 
	C417.245728,118.246872 413.385620,121.861511 409.694672,125.641350 
	C406.846558,128.558136 403.656464,130.757278 399.316284,131.801971 
	C388.073273,130.891296 383.856995,127.080276 382.080017,116.381348 
	C382.731995,109.294235 387.438934,105.183075 391.856934,100.866852 
	C394.598175,98.188805 397.272247,95.442024 400.117615,92.415398 
	C406.768951,85.827263 412.834167,78.981895 421.749084,75.217499 
	C426.281433,73.896111 430.531799,72.652649 434.979828,72.371780 
	C440.187073,72.042984 441.506805,73.368118 441.268433,78.483269 
	C441.082855,82.464737 440.055176,86.253517 438.929443,90.422371 
	C435.050537,100.017578 428.593018,107.263000 421.215393,114.255600 
z"/>
<path fill="#97AED1" opacity="1.000000" stroke="none" 
	d="
M308.702759,216.680130 
	C302.116608,219.545959 295.883484,222.255447 289.681122,224.951538 
	C288.740021,224.204041 289.177948,223.448410 289.543274,222.714874 
	C293.697449,214.373718 297.430237,205.849976 300.378906,197.006744 
	C301.233276,194.444427 302.024780,193.645508 304.233917,195.956390 
	C308.717560,200.646408 313.310547,205.237427 317.990540,209.731689 
	C320.205231,211.858505 319.743164,212.790512 317.009735,213.610199 
	C314.309967,214.419830 311.703278,215.539886 308.702759,216.680130 
z"/>
</svg>