<svg version="1.1" id="Layer_1" xmlns="http://www.w3.org/2000/svg" xmlns:xlink="http://www.w3.org/1999/xlink" x="0px" y="0px"
	 width="2.5rem" height="2rem" viewBox="0 0 512 512" enable-background="new 0 0 512 512" xml:space="preserve">
<path fill="#fff" opacity="1.000000" stroke="none" 
	d="
M285.000000,513.000000 
	C191.356064,513.000000 98.212105,512.979431 5.068284,513.085266 
	C1.794654,513.088989 0.894741,512.634033 0.897244,509.070068 
	C1.015188,341.111115 1.016870,173.152084 0.891658,5.193176 
	C0.888856,1.433910 1.851358,0.913638 5.304879,0.915623 
	C173.097229,1.012100 340.889618,1.011550 508.681976,0.918637 
	C512.099915,0.916745 513.113892,1.384340 513.110962,5.180007 
	C512.982544,173.138931 512.985107,341.097961 513.101257,509.056915 
	C513.103699,512.593994 512.246887,513.092834 508.944855,513.087769 
	C434.463348,512.973572 359.981659,513.000000 285.000000,513.000000 
z"/>
<path fill="#FEB957" opacity="1.000000" stroke="none" 
	d="
M244.836990,288.754517 
	C253.113586,295.144958 262.119507,297.098450 272.199158,297.004974 
	C307.830292,296.674438 343.466339,296.876251 379.100525,296.876251 
	C380.900208,296.876251 382.699890,296.876251 384.635620,296.876251 
	C366.865143,343.239746 398.935394,387.504517 443.580658,389.989258 
	C445.808533,391.949585 445.674255,394.336975 445.678589,396.644867 
	C445.713074,414.895203 445.874756,433.147766 445.616791,451.395111 
	C445.487579,460.535492 442.697357,468.711029 434.348145,474.534546 
	C431.820923,474.954468 429.666687,475.226990 427.512390,475.227478 
	C332.051422,475.248871 236.590439,475.252014 141.129456,475.240112 
	C127.148338,475.238373 117.924789,468.837280 114.611916,457.084045 
	C113.918625,454.624420 113.855217,452.152344 113.854607,449.662964 
	C113.839241,386.355499 113.824875,323.048065 113.857582,259.740601 
	C113.863976,247.373566 121.249832,239.547852 133.549164,239.401917 
	C151.370529,239.190430 169.197052,239.413742 187.459503,239.602051 
	C189.509155,240.320145 190.781296,241.391052 191.949142,242.578934 
	C203.251282,254.074966 214.971359,265.139069 226.564377,276.336517 
	C231.921173,281.510529 237.594727,285.884949 244.836990,288.754517 
z"/>
<path fill="#E6F2FB" opacity="1.000000" stroke="none" 
	d="
M417.324951,262.678162 
	C408.633850,267.917328 400.753662,273.414307 394.741211,281.167999 
	C393.534393,282.724304 392.119568,282.902740 390.389679,282.901794 
	C349.069977,282.878662 307.750275,282.877960 266.430573,282.890839 
	C262.052704,282.892212 258.125458,281.431274 255.037674,278.520386 
	C244.494507,268.581238 234.155258,258.426117 223.678650,248.415726 
	C222.273361,247.072968 222.249115,245.552979 222.249481,243.873383 
	C222.259338,199.388062 222.294205,154.902649 222.183197,110.417603 
	C222.174835,107.065086 223.180893,106.248398 226.412857,106.255203 
	C272.064270,106.351357 317.716095,106.368515 363.367279,106.228683 
	C366.976166,106.217628 367.387634,107.588104 367.346802,110.568466 
	C367.209747,120.563286 367.254059,130.561371 367.304749,140.557816 
	C367.374725,154.362717 375.163879,162.091736 389.052979,162.164062 
	C398.049622,162.210907 407.046661,162.185776 416.500519,162.288605 
	C418.946198,164.153976 418.775482,166.579498 418.780884,168.866501 
	C418.849609,198.079285 418.838989,227.292175 418.795593,256.505035 
	C418.792633,258.494385 418.778168,260.507843 417.324951,262.678162 
z"/>
<path fill="#60B6FE" opacity="1.000000" stroke="none" 
	d="
M119.612587,123.625160 
	C176.180573,97.816360 232.444458,72.246902 288.603088,46.448334 
	C292.890808,44.478622 294.345612,45.280724 296.098511,49.326679 
	C301.711548,62.282509 307.597687,75.125366 313.658295,87.878830 
	C315.556366,91.873009 314.526276,92.388901 310.590149,92.372063 
	C280.111420,92.241745 249.631897,92.295403 219.152618,92.303665 
	C210.202057,92.306091 208.246536,94.249382 208.245132,103.139877 
	C208.238571,144.445129 208.242050,185.750397 208.241913,227.055649 
	C208.241913,228.875061 208.241913,230.694473 208.241913,233.627075 
	C193.626648,221.158264 176.724808,226.265472 160.784042,225.486176 
	C156.657944,225.284485 154.715210,224.032135 153.083344,220.400772 
	C140.075653,191.455322 126.885422,162.591904 113.745201,133.706039 
	C110.950333,127.562141 110.938553,127.566010 117.000854,124.806374 
	C117.756348,124.462456 118.521431,124.139603 119.612587,123.625160 
z"/>
<path fill="#006593" opacity="1.000000" stroke="none" 
	d="
M173.531403,62.464909 
	C177.944473,66.305267 181.943100,70.101242 186.268555,73.478645 
	C189.420700,75.939911 188.617813,76.813805 185.471909,78.232491 
	C161.349213,89.110840 137.289215,100.128189 113.208725,111.100082 
	C109.119965,112.963051 105.021233,114.804184 100.935974,116.674751 
	C94.543671,119.601700 93.343468,122.896126 96.331932,129.452744 
	C105.374039,149.290924 114.438492,169.118942 123.487152,188.954132 
	C128.322266,199.552979 133.049210,210.202637 138.021606,220.736542 
	C139.717834,224.329941 138.914352,225.189407 135.060745,225.301682 
	C116.658333,225.837891 104.394707,235.190918 100.511765,251.263596 
	C99.574089,255.144867 100.115936,259.139069 99.674225,264.068390 
	C92.919518,258.319092 86.746407,253.127884 80.641853,247.857285 
	C60.851189,230.770248 41.139576,213.590912 21.250021,196.619995 
	C18.394779,194.183731 18.355484,192.737411 20.744986,189.990509 
	C49.272179,157.196487 77.688034,124.305611 106.137169,91.443672 
	C119.653259,75.831070 133.254654,60.291096 146.624741,44.554520 
	C148.889862,41.888481 150.231873,42.161011 152.524750,44.209061 
	C159.354965,50.309933 166.335342,56.242702 173.531403,62.464909 
z"/>
<path fill="#25C53A" opacity="1.000000" stroke="none" 
	d="
M394.074371,316.430481 
	C398.611755,292.359344 412.267578,277.146973 435.823853,271.717773 
	C463.711182,265.290375 492.937500,284.872620 497.900116,312.847046 
	C503.225006,342.863586 483.569427,370.405975 454.541382,375.242615 
	C424.192535,380.299316 390.143402,355.643372 394.074371,316.430481 
z"/>
<path fill="#E4A54D" opacity="1.000000" stroke="none" 
	d="
M434.354736,474.858368 
	C436.004425,470.300049 440.489532,467.438446 441.914795,462.422455 
	C442.960083,458.743835 444.047272,455.181213 444.034546,451.293823 
	C443.968750,431.201477 444.001160,411.108826 443.993073,390.553589 
	C447.464294,389.933533 452.161682,388.335144 454.109680,389.984314 
	C456.531952,392.035034 454.903412,396.867554 454.923065,400.486603 
	C455.010651,416.646423 454.990784,432.807068 454.951782,448.967285 
	C454.918610,462.700378 448.111786,471.385040 434.354736,474.858368 
z"/>
<path fill="#D1DBE4" opacity="1.000000" stroke="none" 
	d="
M417.415039,263.041016 
	C417.014099,229.814056 416.991852,196.543259 416.963562,162.828384 
	C421.837921,161.239166 423.324005,162.826996 423.269592,168.098923 
	C422.971283,196.999619 423.011078,225.905991 423.248932,254.807800 
	C423.285828,259.293457 422.289459,262.038025 417.415039,263.041016 
z"/>
<path fill="#B5BEC5" opacity="1.000000" stroke="none" 
	d="
M381.249146,125.152351 
	C381.249176,122.370956 381.249176,120.063042 381.249176,118.423477 
	C390.925507,128.291351 400.864960,138.427567 410.265656,148.014374 
	C403.202332,148.014374 394.373352,148.264725 385.571564,147.885040 
	C382.279877,147.743042 381.283325,144.617233 381.263397,141.550186 
	C381.228943,136.242264 381.250854,130.933975 381.249146,125.152351 
z"/>
<path fill="#D89D49" opacity="1.000000" stroke="none" 
	d="
M244.993607,288.622498 
	C239.545944,289.152985 235.061951,286.161285 231.475784,282.694458 
	C216.945343,268.647675 201.807526,255.213287 188.001160,240.036072 
	C193.864288,239.195419 197.821793,242.917770 201.616348,246.551529 
	C213.456909,257.890289 225.129028,269.404846 236.885513,280.831604 
	C239.497101,283.369965 242.186859,285.827881 244.993607,288.622498 
z"/>
<path fill="#070503" opacity="1.000000" stroke="none" 
	d="
M424.242065,439.654938 
	C423.349426,443.913544 420.578613,445.370361 416.947754,445.660309 
	C415.622559,445.766144 414.282745,445.694946 412.949615,445.694977 
	C327.123444,445.695892 241.297287,445.698486 155.471115,445.679230 
	C153.484207,445.678772 151.442200,445.675995 149.522400,445.244690 
	C145.945969,444.441162 144.108856,441.804840 144.278137,438.313660 
	C144.445816,434.855255 146.416824,432.387787 150.092331,431.844147 
	C151.566177,431.626190 153.081711,431.633759 154.578262,431.633606 
	C241.071045,431.624817 327.563843,431.623444 414.056610,431.630615 
	C421.876617,431.631256 423.534210,432.901276 424.242065,439.654938 
z"/>
<path fill="#050302" opacity="1.000000" stroke="none" 
	d="
M146.765030,385.478394 
	C148.755615,383.853119 150.759064,383.863495 152.771927,383.864014 
	C174.437576,383.869843 196.103226,383.851868 217.768845,383.878876 
	C223.287018,383.885773 226.348587,386.337189 226.434860,390.630096 
	C226.525024,395.117157 223.301422,397.855743 217.597107,397.866791 
	C196.098190,397.908478 174.599152,397.872406 153.100189,397.897491 
	C149.742584,397.901398 146.760818,397.220215 145.072372,393.974335 
	C143.487579,390.927704 144.146576,388.180939 146.765030,385.478394 
z"/>
<path fill="#080809" opacity="1.000000" stroke="none" 
	d="
M333.000366,174.544861 
	C352.979279,174.544876 372.458191,174.537247 391.937073,174.557266 
	C393.762146,174.559143 395.629181,174.523315 397.403229,174.875351 
	C401.007782,175.590652 402.857239,178.146439 402.827179,181.642044 
	C402.799194,184.902634 401.045563,187.386154 397.685638,188.144058 
	C395.926361,188.540894 394.057068,188.561829 392.237366,188.562637 
	C345.954193,188.583298 299.671021,188.581345 253.387848,188.568268 
	C251.729233,188.567810 250.029404,188.617462 248.420334,188.291016 
	C244.636810,187.523499 242.676178,185.073730 242.831436,181.196548 
	C242.977798,177.541061 245.023560,175.333862 248.606720,174.771164 
	C250.400543,174.489471 252.257126,174.553757 254.085358,174.552933 
	C280.223694,174.541061 306.362030,174.544815 333.000366,174.544861 
z"/>
<path fill="#070707" opacity="1.000000" stroke="none" 
	d="
M384.989441,208.657288 
	C388.983032,208.669586 392.482391,208.590057 395.974152,208.718048 
	C400.105530,208.869492 402.583374,211.268143 402.798492,215.239288 
	C403.015259,219.240479 400.694031,221.795807 396.667755,222.449570 
	C395.039642,222.713943 393.352142,222.668640 391.691650,222.669006 
	C345.741364,222.679260 299.791077,222.678589 253.840775,222.675827 
	C246.123703,222.675354 242.867035,220.606384 242.800598,215.691483 
	C242.733063,210.694473 245.857010,208.659027 253.633392,208.658585 
	C297.252869,208.656143 340.872345,208.657333 384.989441,208.657288 
z"/>
<path fill="#070707" opacity="1.000000" stroke="none" 
	d="
M334.999756,256.677155 
	C307.362091,256.677094 280.224457,256.685944 253.086807,256.656952 
	C251.273651,256.655029 249.384125,256.638489 247.663864,256.153931 
	C244.156784,255.166061 242.551224,252.594040 242.849457,248.983566 
	C243.130066,245.586517 245.033920,243.458450 248.409485,242.899582 
	C250.037704,242.630005 251.726517,242.666428 253.387924,242.666046 
	C299.671783,242.655243 345.955627,242.657486 392.239471,242.657654 
	C392.905426,242.657654 393.571808,242.643311 394.237274,242.661865 
	C399.655029,242.812927 402.846802,245.344315 402.907410,249.530396 
	C402.970612,253.894897 399.630157,256.639496 393.937256,256.660431 
	C380.118896,256.711212 366.300201,256.677063 352.481659,256.677155 
	C346.821045,256.677185 341.160400,256.677155 334.999756,256.677155 
z"/>
<path fill="#080808" opacity="1.000000" stroke="none" 
	d="
M292.000275,140.421341 
	C307.821442,140.421341 323.142578,140.416885 338.463715,140.428375 
	C339.959595,140.429489 341.478394,140.381653 342.946899,140.610718 
	C346.970428,141.238358 349.228210,143.610794 349.089996,147.753189 
	C348.959961,151.651047 346.690643,153.818695 342.875763,154.317276 
	C341.562500,154.488907 340.217255,154.449463 338.886627,154.449768 
	C310.242767,154.456146 281.598877,154.456116 252.955017,154.449310 
	C251.624603,154.448990 250.277313,154.495148 248.967041,154.311539 
	C245.152695,153.777023 242.939087,151.573639 242.828568,147.675171 
	C242.718414,143.789383 244.763245,141.395416 248.555939,140.689117 
	C250.174622,140.387680 251.869888,140.434006 253.530518,140.431564 
	C266.187073,140.412949 278.843658,140.421341 292.000275,140.421341 
z"/>
<path fill="#010401" opacity="1.000000" stroke="none" 
	d="
M430.660004,331.411987 
	C432.983002,334.556702 434.726044,334.194244 437.155029,331.706543 
	C447.729767,320.876312 458.504272,310.241089 469.212311,299.541107 
	C470.270477,298.483734 471.269745,297.329529 472.469818,296.459473 
	C475.706512,294.112793 479.107880,294.021179 481.961060,296.904846 
	C484.834808,299.809296 484.752930,303.217041 482.138428,306.328644 
	C480.432037,308.359497 478.446991,310.158142 476.565887,312.040009 
	C464.570465,324.040405 452.584991,336.050781 440.562469,348.023987 
	C435.525604,353.040131 432.507416,353.039581 427.510162,348.092743 
	C422.190369,342.826569 416.879059,337.550720 411.637238,332.207306 
	C408.136932,328.639191 407.818604,324.582306 410.629059,321.625336 
	C413.727966,318.364990 417.565216,318.565643 421.562988,322.356140 
	C424.579803,325.216553 427.463531,328.217285 430.660004,331.411987 
z"/>
</svg>