<svg version="1.1" id="Layer_1" xmlns="http://www.w3.org/2000/svg" xmlns:xlink="http://www.w3.org/1999/xlink" x="0px" y="0px"
	 width="2.5rem" height="2rem" viewBox="0 0 512 512" enable-background="new 0 0 512 512" xml:space="preserve">
<path fill="#fff" opacity="1.000000" stroke="none" 
	d="
M286.000000,513.000000 
	C192.022812,513.000000 98.545601,512.979492 5.068528,513.085144 
	C1.795423,513.088867 0.894715,512.634766 0.897218,509.070312 
	C1.015182,341.111359 1.016859,173.152328 0.891708,5.193420 
	C0.888907,1.434828 1.850453,0.913581 5.304635,0.915568 
	C173.096985,1.012110 340.889374,1.011540 508.681732,0.918693 
	C512.098999,0.916803 513.113953,1.383421 513.111023,5.179763 
	C512.982544,173.138687 512.985168,341.097717 513.101257,509.056671 
	C513.103699,512.593262 512.247681,513.092896 508.945099,513.087830 
	C434.796844,512.973389 360.648407,513.000000 286.000000,513.000000 
z"/>
<path fill="#FEFEFE" opacity="1.000000" stroke="none" 
	d="
M30.408741,379.268097 
	C29.954182,377.171112 29.708900,375.353729 29.708290,373.536316 
	C29.688271,314.064026 29.735229,254.591644 29.595774,195.119705 
	C29.586288,191.074829 30.380028,189.898193 34.666878,189.903732 
	C141.783417,190.042114 248.900208,190.041367 356.016785,189.905396 
	C360.258850,189.900024 361.123932,191.010406 361.094788,195.083694 
	C360.877899,225.400726 360.932281,255.719696 360.814972,286.496918 
	C357.705566,290.756958 354.252533,294.131104 350.233887,297.419434 
	C337.966064,297.720520 325.989532,297.802032 314.014526,297.982117 
	C311.887177,298.014130 310.928070,297.346252 311.116272,295.134460 
	C311.242889,293.646637 311.145691,292.139221 311.137268,290.640594 
	C311.084412,281.218384 306.717499,276.531006 297.214783,276.319244 
	C287.395294,276.100372 277.561707,276.071686 267.744171,276.332642 
	C258.352814,276.582245 253.975601,281.416412 253.963593,290.837738 
	C253.952972,299.163544 253.931778,307.489502 253.970078,315.815155 
	C254.007324,323.912750 258.882751,328.897217 266.848999,329.074310 
	C276.861206,329.296936 276.861176,329.296936 276.860626,339.264648 
	C276.860260,345.949158 276.860291,345.949188 269.864655,345.951630 
	C260.732574,345.954803 256.142609,348.386719 254.490784,354.690094 
	C253.791122,357.360046 254.067322,360.285767 253.782227,363.527039 
	C245.623337,369.523499 236.368774,372.158508 227.159851,374.884491 
	C226.032944,375.218079 224.848724,374.933289 223.573822,373.900452 
	C221.808914,369.193939 222.654907,364.674347 222.535446,360.224579 
	C222.293350,351.207214 218.827179,347.612091 209.708649,347.520111 
	C199.746658,347.419617 189.782501,347.421295 179.820480,347.523010 
	C172.807877,347.594543 169.449875,350.348572 168.233475,357.328430 
	C166.712585,366.055481 167.673294,374.886688 167.592850,383.673248 
	C167.577759,385.322296 168.029495,386.978485 167.246521,388.996704 
	C157.035141,391.019501 147.151703,393.967773 136.639313,390.818787 
	C135.290909,388.270538 135.515137,385.913757 135.495361,383.600922 
	C135.425720,375.459930 135.720490,367.311676 135.369904,359.179138 
	C135.047180,351.692657 130.739548,347.632874 123.251968,347.550690 
	C113.117531,347.439423 102.980354,347.430237 92.846115,347.553986 
	C85.084633,347.648743 80.882874,351.752625 80.596344,359.572449 
	C80.334770,366.710999 80.556244,373.860413 80.508049,381.004761 
	C80.492416,383.322998 80.693817,385.665222 79.754547,388.320374 
	C78.395264,390.071075 76.848305,389.806244 75.384735,389.610931 
	C60.684826,387.649139 46.246208,384.458466 32.016235,380.302917 
	C31.534912,380.162354 31.138384,379.837067 30.408741,379.268097 
z"/>
<path fill="#B98859" opacity="1.000000" stroke="none" 
	d="
M334.110046,310.854431 
	C345.133087,310.837921 345.132965,310.837921 345.133118,321.605835 
	C345.133301,334.766815 345.178070,347.928070 345.106354,361.088654 
	C345.085632,364.890778 345.842316,368.098480 349.878204,369.456207 
	C353.594238,370.706299 355.785065,368.450714 357.879700,365.886993 
	C361.989471,360.856995 366.339600,356.013031 370.253387,350.837402 
	C372.378510,348.027161 373.547333,348.630951 375.388123,350.969147 
	C379.507874,356.202209 383.818237,361.285522 388.067383,366.416260 
	C390.082489,368.849396 392.359589,370.652283 395.817902,369.435883 
	C399.421387,368.168365 400.236542,365.398224 400.221375,361.917236 
	C400.154053,346.424225 400.294189,330.929565 400.119141,315.438232 
	C400.078644,311.853668 400.856354,310.491608 404.771088,310.548340 
	C420.261139,310.772797 435.757172,310.723633 451.249146,310.579468 
	C454.872742,310.545776 456.184113,311.617096 456.176605,315.408325 
	C456.073120,367.718903 456.062347,420.029907 456.192474,472.340363 
	C456.202759,476.475983 454.689453,477.350433 450.943329,477.344025 
	C398.799286,477.254700 346.654816,477.225739 294.511078,477.378418 
	C289.690155,477.392517 289.160034,475.275940 289.168304,471.331818 
	C289.256653,429.183563 289.215912,387.035095 289.259125,344.417664 
	C289.729797,343.435303 290.072571,342.835419 290.641113,342.470947 
	C304.544464,333.557709 317.787201,323.747406 330.462799,313.166443 
	C331.499634,312.300934 332.754883,311.815674 334.110046,310.854431 
z"/>
<path fill="#EA4E2F" opacity="1.000000" stroke="none" 
	d="
M145.999969,177.220947 
	C108.678345,177.220947 71.856430,177.153381 35.035522,177.315353 
	C30.930855,177.333405 29.660830,176.340210 29.765196,172.127121 
	C30.058056,160.304779 29.841923,148.470428 29.877398,136.640961 
	C29.905006,127.434425 35.683033,121.209579 44.963890,120.998688 
	C56.787464,120.730011 68.624229,121.053940 80.448677,120.806038 
	C84.613411,120.718735 83.897049,123.222351 83.926888,125.653412 
	C84.065636,136.957489 89.440796,145.272980 98.856415,148.779602 
	C113.739021,154.322281 129.580933,143.344757 129.681686,126.879745 
	C129.713974,121.603386 131.282211,120.606308 136.097565,120.772873 
	C146.581680,121.135513 157.090515,121.039070 167.581772,120.801155 
	C171.235947,120.718285 172.388260,121.619667 172.375839,125.455894 
	C172.338547,136.977295 178.086533,145.430954 187.654480,148.858841 
	C201.914902,153.967865 217.317169,143.699478 218.109802,128.554855 
	C218.511230,120.884926 218.511215,120.884880 226.296158,120.884872 
	C236.126358,120.884865 245.963058,121.092751 255.783676,120.785973 
	C259.895874,120.657516 261.132751,121.742516 261.054321,125.959068 
	C260.851410,136.869217 266.451416,145.162399 275.707825,148.695145 
	C290.552002,154.360474 306.586395,143.465378 306.700317,127.078430 
	C306.738586,121.573212 308.499359,120.564606 313.416901,120.779335 
	C322.021179,121.155052 322.032654,120.882195 322.033325,129.464661 
	C322.033661,133.963226 321.957245,138.463470 322.053497,142.960007 
	C322.260956,152.653564 329.078400,159.585648 338.795502,159.848053 
	C344.955780,160.014389 351.127441,160.004364 357.287231,159.831635 
	C360.076172,159.753448 361.205994,160.565140 360.987640,163.471268 
	C360.763580,166.453445 360.650604,169.500427 361.007935,172.456314 
	C361.514954,176.650452 359.632874,177.296204 355.933258,177.291138 
	C286.122253,177.195496 216.311111,177.220795 145.999969,177.220947 
z"/>
<path fill="#F9C166" opacity="1.000000" stroke="none" 
	d="
M430.385132,159.069275 
	C429.351379,158.771530 428.656311,158.635834 428.158295,158.247467 
	C415.436340,148.326813 401.021454,145.780151 385.152069,146.798355 
	C370.395630,147.745178 355.529205,146.886414 340.714325,147.072098 
	C336.445496,147.125595 334.738434,145.738922 334.752045,141.358139 
	C334.854370,108.394356 334.863983,75.429901 334.744263,42.466240 
	C334.727539,37.873604 336.623566,36.246231 340.974213,36.258049 
	C374.435822,36.348965 407.897644,36.360657 441.710999,36.618362 
	C445.266510,44.381584 444.975464,52.205227 443.720245,60.495281 
	C441.626221,62.738266 439.211243,62.465267 436.920441,62.487228 
	C429.279633,62.560482 421.638000,62.496010 413.996765,62.525291 
	C412.171539,62.532284 410.330536,62.486217 408.569122,63.082851 
	C406.663788,63.728226 405.418976,64.965607 405.455780,67.087204 
	C405.492767,69.215736 406.829163,70.394073 408.719452,70.983536 
	C410.485199,71.534164 412.332092,71.472458 414.158966,71.477257 
	C421.800262,71.497307 429.441650,71.465668 437.082855,71.496124 
	C439.234192,71.504700 441.415222,71.361183 443.837769,72.532944 
	C445.502350,77.443687 444.658112,82.011765 443.412750,86.954330 
	C440.733215,88.920601 438.003326,88.549583 435.370728,88.554115 
	C414.058502,88.590775 392.746216,88.567764 371.433929,88.578072 
	C369.104675,88.579201 366.731262,88.411995 364.493073,89.144417 
	C362.349304,89.845940 360.407135,91.096260 360.554108,93.671371 
	C360.696808,96.171463 362.624634,97.334526 364.836670,97.944931 
	C366.947052,98.527283 369.130280,98.420212 371.292847,98.421310 
	C392.105621,98.431870 412.918365,98.416985 433.731140,98.436974 
	C436.218140,98.439369 438.737335,98.224060 441.562897,99.349358 
	C444.644348,103.633881 442.650696,107.580948 441.429993,111.934433 
	C438.754303,113.917679 436.024658,113.550957 433.392792,113.555611 
	C412.420563,113.592667 391.448212,113.567307 370.475922,113.582214 
	C368.150940,113.583862 365.780060,113.397194 363.555206,114.225967 
	C361.683014,114.923386 360.556854,116.343521 360.648285,118.421486 
	C360.733521,120.358322 362.069855,121.395912 363.750824,121.900452 
	C365.843536,122.528587 368.035492,122.419624 370.198853,122.420616 
	C390.172485,122.429810 410.146088,122.417068 430.119720,122.432930 
	C432.610291,122.434906 435.118561,122.259026 437.992096,123.062347 
	C440.158569,124.302460 440.026215,126.012390 439.741455,127.638344 
	C438.117706,136.909897 436.264130,146.134201 433.546753,155.159103 
	C433.071320,156.738068 432.452332,158.298462 430.385132,159.069275 
z"/>
<path fill="#E5E5E5" opacity="1.000000" stroke="none" 
	d="
M223.923950,374.218201 
	C233.064911,372.940979 240.737961,368.632874 248.837753,365.574249 
	C250.213699,365.054718 251.575943,364.498962 253.304504,363.959412 
	C253.727615,371.111023 253.768051,378.263489 253.859665,385.415283 
	C253.971222,394.122162 258.740875,398.803040 267.559937,398.919952 
	C276.607330,399.039856 276.607361,399.039856 276.607361,408.022369 
	C276.607361,417.182190 276.607330,417.182220 267.582550,417.182220 
	C194.845032,417.182220 122.107521,417.181671 49.370003,417.183716 
	C45.541531,417.183838 41.734642,417.256256 38.172081,415.394531 
	C32.876217,412.627014 29.719723,408.650543 29.829569,402.377258 
	C29.960686,394.889374 29.872782,387.397644 29.982573,379.448059 
	C39.899437,380.244659 49.182571,383.855530 58.917366,385.476807 
	C65.386887,386.554321 71.836708,387.750031 78.702438,388.935211 
	C80.063652,388.899078 80.735893,389.441254 81.100777,390.183289 
	C84.202179,396.490173 89.622490,397.841980 96.059334,397.636444 
	C103.177689,397.409149 110.329865,397.242645 117.428902,397.677307 
	C125.082886,398.145966 131.530731,396.565460 136.371857,389.719238 
	C138.012894,391.531281 139.998779,391.092926 141.720795,390.964996 
	C149.732864,390.369537 157.734695,389.636627 166.168945,388.963593 
	C166.751770,389.035370 166.984604,389.051575 167.048691,389.163971 
	C171.728577,397.372101 179.382065,397.992706 187.679550,397.611816 
	C194.957718,397.277740 202.264114,397.639069 209.555496,397.510620 
	C218.495178,397.353180 222.383575,393.247284 222.569504,384.228546 
	C222.636902,380.959381 221.901627,377.577209 223.923950,374.218201 
z"/>
<path fill="#EFB65B" opacity="1.000000" stroke="none" 
	d="
M443.241394,87.168007 
	C443.174164,82.659599 442.451508,78.386032 443.968079,73.893158 
	C445.397247,70.835808 447.984833,71.887169 450.121521,71.619888 
	C451.588989,71.436325 453.097595,71.638031 454.575836,71.423882 
	C457.153076,71.050522 459.026337,69.767288 459.022095,66.993317 
	C459.017853,64.219269 457.133240,62.980186 454.563934,62.564041 
	C450.848663,61.962307 446.924194,63.291862 443.172058,60.991173 
	C443.367218,52.980572 442.701019,45.365726 442.045410,37.295471 
	C454.381561,36.785690 466.700836,36.768780 479.019257,36.653969 
	C482.538483,36.621170 484.182831,38.010834 484.176758,41.679745 
	C484.121490,75.150749 484.129333,108.621902 484.163696,142.092972 
	C484.167450,145.762115 482.390656,147.084000 478.899109,147.033920 
	C471.906586,146.933609 464.910767,146.937866 457.917938,147.027893 
	C452.643707,147.095779 450.328278,149.385117 450.200562,154.662888 
	C450.079926,159.647430 450.174652,164.637177 450.174652,170.600220 
	C443.182831,166.714935 436.769348,163.151047 430.155273,159.306046 
	C434.010406,153.262268 434.126587,146.256195 435.919281,139.792816 
	C437.238770,135.035522 437.962097,130.112854 438.970184,124.889359 
	C440.057892,122.135117 442.290131,122.731232 444.149078,122.614197 
	C447.461700,122.405640 450.794952,122.722092 454.107941,122.420586 
	C456.654266,122.188843 458.751160,121.093925 458.910187,118.294891 
	C459.089264,115.142784 456.787109,114.076759 454.125000,113.615662 
	C449.907257,112.885117 445.463196,114.425568 441.181458,111.993431 
	C441.324097,108.055870 441.662323,104.476837 441.998657,100.469818 
	C444.202942,97.938606 446.982391,98.815231 449.545166,98.620636 
	C451.024078,98.508331 452.530762,98.690384 453.993317,98.391258 
	C456.833466,97.810379 459.076355,96.329338 459.086945,93.217560 
	C459.098206,89.914566 456.607117,88.881538 453.745209,88.504723 
	C450.337189,88.056000 446.779541,89.096832 443.241394,87.168007 
z"/>
<path fill="#C6C6C6" opacity="1.000000" stroke="none" 
	d="
M205.166595,96.175964 
	C205.323502,106.876755 205.642715,117.176720 205.391006,127.462708 
	C205.241623,133.568344 200.695633,137.465866 195.064514,137.293427 
	C189.426254,137.120789 185.239685,132.987732 185.126266,126.958183 
	C184.954407,117.822365 185.015167,108.680389 185.099716,99.542160 
	C185.155945,93.466301 188.417938,89.347107 193.685318,88.340950 
	C198.517075,87.418007 202.551971,90.046371 205.166595,96.175964 
z"/>
<path fill="#CBCBCB" opacity="1.000000" stroke="none" 
	d="
M273.755585,116.988960 
	C273.757721,110.665825 273.666199,104.838440 273.787476,99.015488 
	C273.918915,92.706375 278.162720,88.217964 283.790833,88.183289 
	C289.409027,88.148674 293.898529,92.706993 293.978027,98.885040 
	C294.098022,108.204170 294.110870,117.527565 293.970276,126.846146 
	C293.874847,133.171402 289.536163,137.392014 283.672821,137.270737 
	C277.964264,137.152695 274.007111,133.086685 273.789795,126.973015 
	C273.677521,123.814484 273.760742,120.649002 273.755585,116.988960 
z"/>
<path fill="#CACACA" opacity="1.000000" stroke="none" 
	d="
M117.000992,108.019135 
	C117.000778,114.341034 117.056969,120.167381 116.985695,125.992165 
	C116.901764,132.851105 112.973763,137.225052 106.994911,137.272736 
	C100.870270,137.321594 96.822411,133.115479 96.746872,126.326668 
	C96.646881,117.339630 96.643990,108.349754 96.747009,99.362793 
	C96.822998,92.733940 101.137070,88.118362 106.908424,88.187828 
	C112.700172,88.257538 116.865456,92.920944 116.991722,99.533546 
	C117.042557,102.195747 117.000679,104.859726 117.000992,108.019135 
z"/>
<path fill="#D1A67B" opacity="1.000000" stroke="none" 
	d="
M333.830872,310.455688 
	C328.958679,316.991852 322.020325,321.604156 315.492188,326.637939 
	C307.364624,332.905029 299.054657,338.967651 289.639587,343.898529 
	C289.235016,334.177673 289.232361,324.405365 289.053802,314.636322 
	C288.986603,310.959717 290.954498,310.190430 294.069733,310.212219 
	C307.160675,310.303802 320.252228,310.308289 333.830872,310.455688 
z"/>
<path fill="#F8B25E" opacity="1.000000" stroke="none" 
	d="
M381.512634,338.471710 
	C380.212646,336.920929 379.207214,335.586243 378.072388,334.372528 
	C374.570160,330.627106 370.807007,330.638275 367.468994,334.465942 
	C364.541443,337.822937 361.728882,341.280182 358.003784,345.720306 
	C358.003784,333.823914 358.012024,323.117096 357.996552,312.410278 
	C357.993591,310.368835 359.432129,310.520477 360.756622,310.518616 
	C368.748749,310.507355 376.740936,310.531555 384.732941,310.499084 
	C386.471375,310.492035 387.600464,310.885132 387.592621,312.956635 
	C387.553162,323.378357 387.574524,333.800354 387.574524,345.715668 
	C385.032898,342.674133 383.390442,340.708649 381.512634,338.471710 
z"/>
<path fill="#5CA4EC" opacity="1.000000" stroke="none" 
	d="
M276.503601,315.404266 
	C273.974731,317.524658 271.250488,316.463165 268.674591,316.646729 
	C266.422241,316.807251 266.521149,315.062256 266.518799,313.544189 
	C266.507812,306.382599 266.591217,299.219635 266.468628,292.060150 
	C266.427460,289.658173 267.239136,288.911285 269.624786,288.943970 
	C278.283722,289.062653 286.949493,289.150970 295.603851,288.919525 
	C299.585968,288.813019 298.651123,291.338318 298.775024,293.520538 
	C298.917145,296.023926 298.961761,298.170105 295.304657,297.907806 
	C292.685303,297.719940 289.907349,297.803741 287.391693,298.479462 
	C280.306274,300.382629 277.042908,305.625824 276.503601,315.404266 
z"/>
<path fill="#5AA1E7" opacity="1.000000" stroke="none" 
	d="
M276.667297,379.845398 
	C276.639923,385.563995 272.709290,388.040924 267.772278,386.038269 
	C266.264008,385.426392 266.513702,384.263916 266.509003,383.180603 
	C266.477386,375.892670 266.511353,368.604523 266.485718,361.316559 
	C266.470093,356.871185 269.840607,358.686401 271.898956,358.527649 
	C273.974731,358.367584 276.793243,357.509796 276.700256,361.478790 
	C276.560608,367.438446 276.666107,373.403839 276.667297,379.845398 
z"/>
<path fill="#DCDCDC" opacity="1.000000" stroke="none" 
	d="
M350.394653,297.712219 
	C352.458221,293.256714 356.239258,290.119141 360.398834,286.992126 
	C361.543457,297.912964 361.543457,297.912964 350.394653,297.712219 
z"/>
<path fill="#040505" opacity="1.000000" stroke="none" 
	d="
M136.783173,389.167755 
	C134.148041,396.321259 129.259705,399.184998 122.053703,398.993408 
	C112.403580,398.736847 102.741348,398.963806 93.084618,398.918762 
	C85.734055,398.884521 82.193222,396.360229 79.347107,389.226959 
	C79.119370,379.326294 79.096451,369.674744 79.148392,360.023651 
	C79.199051,350.610596 83.862160,345.880646 93.201591,345.825317 
	C103.354477,345.765167 113.508774,345.735352 123.660995,345.837585 
	C131.895386,345.920471 136.831741,350.688995 136.913071,358.769714 
	C137.013550,368.753082 136.846375,378.739166 136.783173,389.167755 
z"/>
<path fill="#030405" opacity="1.000000" stroke="none" 
	d="
M224.199005,373.511719 
	C224.215073,378.121155 224.213089,382.270721 224.088257,386.416534 
	C223.870956,393.633484 219.101044,398.728210 211.920410,398.863037 
	C200.959396,399.068878 189.990005,399.041138 179.027649,398.878448 
	C172.884796,398.787323 168.766235,395.592804 166.757950,389.309235 
	C166.560181,379.176971 166.412369,369.378479 166.517151,359.582703 
	C166.615997,350.342621 171.177231,345.886353 180.390320,345.826874 
	C190.523285,345.761475 200.657700,345.738647 210.790146,345.835785 
	C219.326111,345.917633 223.980911,350.621613 224.098724,359.096161 
	C224.163376,363.746704 224.120209,368.398743 224.199005,373.511719 
z"/>
<path fill="#040505" opacity="1.000000" stroke="none" 
	d="
M169.454468,255.454376 
	C167.047836,252.599197 166.503723,249.518356 166.494598,246.301422 
	C166.470078,237.647675 166.373047,228.991989 166.514389,220.340500 
	C166.660950,211.369904 171.211777,206.854843 180.129837,206.765976 
	C190.280426,206.664795 200.433609,206.662582 210.584137,206.766586 
	C219.469879,206.857605 224.043961,211.507568 224.099030,220.350922 
	C224.153946,229.170807 224.178329,237.992035 224.088303,246.811356 
	C224.008224,254.656479 219.257660,259.707855 211.442413,259.862305 
	C200.795792,260.072723 190.141876,259.941162 179.491241,259.908203 
	C175.669800,259.896393 172.330658,258.618591 169.454468,255.454376 
z"/>
<path fill="#030304" opacity="1.000000" stroke="none" 
	d="
M122.785156,206.746216 
	C132.840363,207.294144 136.917633,211.603043 136.945267,221.279282 
	C136.969009,229.596497 137.004379,237.914322 136.933899,246.231033 
	C136.860916,254.844208 131.956177,259.806396 123.286850,259.900208 
	C113.140930,260.010010 102.992043,260.009613 92.846100,259.901306 
	C84.201500,259.809021 79.255264,254.842331 79.163223,246.237732 
	C79.070702,237.588730 79.070038,228.937195 79.162918,220.288193 
	C79.256371,211.585709 84.042519,206.854340 92.872421,206.768082 
	C102.685905,206.672226 112.501045,206.745651 122.785156,206.746216 
z"/>
<path fill="#040404" opacity="1.000000" stroke="none" 
	d="
M80.428787,322.194336 
	C77.996231,313.333466 79.740562,304.636719 79.121399,296.044708 
	C77.914734,279.300201 84.788673,275.357880 99.249252,276.052246 
	C107.050819,276.426849 114.886497,276.027679 122.704300,276.144073 
	C131.916275,276.281158 136.884964,281.302185 136.937469,290.385559 
	C136.985550,298.703949 136.993134,307.023102 136.936142,315.341370 
	C136.875961,324.126678 132.147537,329.103485 123.512482,329.217743 
	C113.199196,329.354279 102.882690,329.234192 92.567642,329.256470 
	C87.300919,329.267853 83.260086,327.172729 80.428787,322.194336 
z"/>
<path fill="#040505" opacity="1.000000" stroke="none" 
	d="
M224.111755,295.044434 
	C224.111298,302.367035 224.173416,309.198212 224.094055,316.027710 
	C224.001755,323.969543 219.350967,329.029205 211.567978,329.178314 
	C200.743652,329.385712 189.909698,329.375458 179.084961,329.178284 
	C171.669312,329.043182 166.821716,324.378357 166.600632,316.994049 
	C166.316605,307.507385 166.319748,297.999725 166.596878,288.512756 
	C166.806808,281.326294 171.716492,276.445770 179.120712,276.237366 
	C189.940140,275.932831 200.782578,275.912689 211.600098,276.252441 
	C219.406708,276.497589 223.961426,281.727905 224.104736,289.554474 
	C224.135239,291.219879 224.110855,292.886292 224.111755,295.044434 
z"/>
<path fill="#020303" opacity="1.000000" stroke="none" 
	d="
M257.071899,255.850616 
	C254.584564,253.080704 253.806381,250.138702 253.828339,246.841522 
	C253.888184,237.855652 253.782562,228.868530 253.866226,219.883057 
	C253.943268,211.607559 258.545929,206.892563 266.838867,206.783234 
	C277.321014,206.645035 287.807648,206.649139 298.289917,206.782211 
	C306.629517,206.888092 311.223602,211.467606 311.363739,219.816147 
	C311.514496,228.799850 311.515839,237.790161 311.359131,246.773697 
	C311.216919,254.928589 306.386322,259.767120 298.239227,259.885712 
	C287.923859,260.035889 277.604645,259.917145 267.287109,259.928619 
	C263.475769,259.932861 260.082489,258.877533 257.071899,255.850616 
z"/>
<path fill="#060403" opacity="1.000000" stroke="none" 
	d="
M351.762451,451.956696 
	C354.738464,458.496185 352.494324,462.476288 345.781525,462.603699 
	C335.324890,462.802155 324.860626,462.745819 314.401733,462.619568 
	C309.253967,462.557465 306.722809,460.178925 306.785553,456.049622 
	C306.847717,451.958862 309.390594,449.863708 314.643250,449.834991 
	C324.937347,449.778687 335.231934,449.825867 345.526337,449.813538 
	C347.722687,449.810883 349.859344,449.930237 351.762451,451.956696 
z"/>
<path fill="#090703" opacity="1.000000" stroke="none" 
	d="
M442.529663,86.947693 
	C446.616821,86.918190 450.242462,86.964775 453.867859,87.027657 
	C457.950378,87.098465 460.435242,89.159760 460.839508,93.208084 
	C461.200836,96.826050 458.117371,99.685471 453.806183,99.857841 
	C450.182648,100.002724 446.549255,99.900726 442.458496,99.974930 
	C421.682098,99.946671 401.367462,99.847404 381.052734,99.759331 
	C376.221344,99.738380 371.389008,99.811691 366.558655,99.738678 
	C361.388611,99.660530 358.495361,97.454819 358.346924,93.646362 
	C358.193726,89.715630 361.392731,87.077820 366.597809,87.069695 
	C391.754517,87.030418 416.911285,87.039215 442.529663,86.947693 
z"/>
<path fill="#010100" opacity="1.000000" stroke="none" 
	d="
M440.533264,111.760994 
	C445.311615,111.685745 449.637512,111.724571 453.963013,111.790863 
	C458.121155,111.854576 460.774323,113.974480 460.766052,118.109146 
	C460.757721,122.267792 458.025330,124.329697 453.904694,124.380074 
	C449.244568,124.437050 444.583466,124.415962 439.456055,124.471825 
	C433.177673,124.392395 427.366272,124.178909 421.554413,124.164375 
	C403.069489,124.118156 384.584045,124.083115 366.099670,124.192093 
	C361.793365,124.217484 358.877411,122.814156 358.437439,118.299171 
	C358.060455,114.430779 361.154297,111.952866 366.141479,111.944916 
	C390.787811,111.905609 415.434265,111.902771 440.533264,111.760994 
z"/>
<path fill="#020101" opacity="1.000000" stroke="none" 
	d="
M442.530334,60.750595 
	C446.814423,60.667667 450.645111,60.618801 454.470001,60.745819 
	C458.449982,60.877987 460.791687,63.176220 460.771729,67.025185 
	C460.751740,70.880203 458.362549,73.111282 454.396606,73.249489 
	C451.236053,73.359634 448.070435,73.323074 444.448242,73.428558 
	C433.184113,72.580460 422.358032,73.340950 411.543732,73.113106 
	C406.215607,73.000839 403.464294,71.088776 403.295105,67.223732 
	C403.118805,63.196743 406.069427,60.918369 411.575928,60.902191 
	C421.742035,60.872314 431.908264,60.873631 442.530334,60.750595 
z"/>
<path fill="#5EA8F2" opacity="1.000000" stroke="none" 
	d="
M92.012611,370.012787 
	C92.012604,358.591003 92.012604,358.590668 102.747337,358.591125 
	C108.741196,358.591370 114.738045,358.704071 120.727524,358.542664 
	C123.358818,358.471741 124.161186,359.368408 124.105713,361.960083 
	C123.956108,368.949707 123.976006,375.946014 124.098610,382.936707 
	C124.139381,385.260712 123.502243,386.137085 121.042435,386.100220 
	C112.386589,385.970367 103.726562,385.975739 95.070496,386.097717 
	C92.681870,386.131409 91.869789,385.398132 91.967018,382.995331 
	C92.135170,378.839722 92.013000,374.672424 92.012611,370.012787 
z"/>
<path fill="#5DA7F0" opacity="1.000000" stroke="none" 
	d="
M179.188324,372.995026 
	C179.188904,369.007965 179.313507,365.511505 179.148941,362.028687 
	C179.027237,359.452972 179.937515,358.506378 182.553986,358.541840 
	C191.029648,358.656677 199.509262,358.673492 207.984207,358.534760 
	C210.669800,358.490814 211.391052,359.493561 211.343765,362.025055 
	C211.213348,369.003845 211.219574,375.988068 211.342331,382.967133 
	C211.384048,385.338593 210.619095,386.133362 208.223083,386.101105 
	C199.581207,385.984833 190.936005,385.990387 182.293900,386.097565 
	C179.924011,386.126923 179.026062,385.369720 179.150070,382.963959 
	C179.312424,379.814178 179.188858,376.649628 179.188324,372.995026 
z"/>
<path fill="#5CA4EC" opacity="1.000000" stroke="none" 
	d="
M211.311462,242.911682 
	C211.499619,245.608490 211.309326,247.156433 208.286530,247.092712 
	C199.658722,246.910843 191.024048,246.976425 182.393311,247.064407 
	C180.166260,247.087128 179.079178,246.610870 179.130692,244.061508 
	C179.274811,236.926712 179.248535,229.786102 179.141830,222.649994 
	C179.107361,220.345383 179.802200,219.343719 182.228012,219.366943 
	C190.858856,219.449585 199.492386,219.486069 208.121796,219.346710 
	C210.958755,219.300903 211.378616,220.643295 211.343826,223.000214 
	C211.248337,229.472519 211.311386,235.947189 211.311462,242.911682 
z"/>
<path fill="#5CA5EE" opacity="1.000000" stroke="none" 
	d="
M114.933334,219.396774 
	C124.069092,219.396225 124.069267,219.396225 124.069046,227.946686 
	C124.068901,233.268021 123.974533,238.591782 124.111092,243.909592 
	C124.170433,246.220169 123.543961,247.117233 121.071892,247.079514 
	C112.426735,246.947540 103.777527,246.964279 95.131683,247.071548 
	C92.847710,247.099869 91.896339,246.560349 91.949234,244.057892 
	C92.100288,236.910553 92.121704,229.754913 91.942482,222.608871 
	C91.871979,219.797775 93.061455,219.310760 95.487183,219.357300 
	C101.803932,219.478455 108.124565,219.397186 114.933334,219.396774 
z"/>
<path fill="#5DA6EF" opacity="1.000000" stroke="none" 
	d="
M94.232269,289.010681 
	C103.367096,289.004395 112.023468,289.084808 120.676613,288.953064 
	C123.182098,288.914917 124.203232,289.473663 124.128700,292.227570 
	C123.939644,299.213135 123.985420,306.208679 124.110092,313.197174 
	C124.154152,315.666534 123.576096,316.778503 120.819603,316.730957 
	C112.167030,316.581604 103.510216,316.658844 94.855171,316.688965 
	C93.173042,316.694794 91.967842,316.478546 91.985847,314.324249 
	C92.051239,306.501923 92.019440,298.678711 92.009865,290.855835 
	C92.008400,289.656006 92.482437,288.976959 94.232269,289.010681 
z"/>
<path fill="#5CA4ED" opacity="1.000000" stroke="none" 
	d="
M184.289963,316.681305 
	C180.089478,317.301025 178.920090,315.771393 179.099365,312.012604 
	C179.407791,305.545807 179.249451,299.052734 179.150803,292.572754 
	C179.115616,290.261383 179.373779,288.884338 182.291977,288.941803 
	C190.930588,289.111908 199.577103,289.117889 208.215347,288.938660 
	C211.150223,288.877777 211.375061,290.263885 211.342819,292.558105 
	C211.249435,299.204468 211.149734,305.858521 211.378769,312.498322 
	C211.491165,315.756866 210.517532,316.852081 207.191055,316.751801 
	C199.719238,316.526459 192.235947,316.681335 184.289963,316.681305 
z"/>
<path fill="#5CA4EC" opacity="1.000000" stroke="none" 
	d="
M282.002991,219.385559 
	C286.324341,219.385605 290.162628,219.590805 293.968079,219.325592 
	C297.510010,219.078720 299.060486,219.946899 298.857971,223.919098 
	C298.519745,230.552231 298.692352,237.216309 298.803680,243.864792 
	C298.842194,246.167252 298.192200,247.111191 295.730957,247.078979 
	C286.920746,246.963638 278.107452,246.975845 269.296844,247.073700 
	C267.047974,247.098663 266.471283,246.178482 266.492493,244.126099 
	C266.566376,236.977737 266.614288,229.826294 266.473450,222.679932 
	C266.419830,219.958267 267.553345,219.255676 270.035126,219.348557 
	C273.853729,219.491440 277.681641,219.385712 282.002991,219.385559 
z"/>
</svg>