<svg version="1.1" id="Layer_1" xmlns="http://www.w3.org/2000/svg" xmlns:xlink="http://www.w3.org/1999/xlink" x="0px" y="0px"
	 width="100%" viewBox="0 0 512 512" enable-background="new 0 0 512 512" xml:space="preserve">
<path fill="#000000" opacity="1.000000" stroke="none" 
	d="
M1.350753,275.242371 
	C1.000000,185.040283 1.018504,95.080551 0.923310,5.120942 
	C0.919966,1.960976 1.202795,0.888930 4.875639,0.891657 
	C172.966934,1.016474 341.058319,1.017079 509.149628,0.889211 
	C512.874329,0.886378 513.078125,2.038459 513.073242,5.146264 
	C512.975098,67.118286 513.000000,129.090500 513.000000,191.531342 
	C508.893036,193.200531 508.772156,189.632645 507.986908,187.450287 
	C504.480896,177.706772 499.027985,169.358032 491.561493,162.148834 
	C469.811371,141.148178 433.503723,139.499969 410.069366,158.565094 
	C394.033752,171.610947 386.228912,188.648041 386.285645,209.088486 
	C386.315094,219.693161 389.424011,229.786026 394.756897,239.049805 
	C398.341522,245.276749 397.901642,246.903870 393.435913,252.284210 
	C387.889832,258.966187 381.408844,261.493835 372.570099,261.340515 
	C342.755798,260.823425 312.927063,261.165680 283.103882,261.131195 
	C274.193481,261.120911 273.296021,260.257385 270.560822,251.569580 
	C268.411804,244.743607 266.331482,237.894119 264.087677,231.098999 
	C262.090881,225.051895 261.011566,224.272095 254.782928,224.181702 
	C246.953308,224.068039 239.090576,223.716248 231.300064,224.267883 
	C223.536240,224.817627 218.484772,222.184021 215.806335,214.783432 
	C214.853760,212.151413 213.293015,209.731934 211.821167,207.301208 
	C210.083267,204.431137 207.777328,203.117645 204.439209,203.150528 
	C200.443130,203.189911 196.437149,203.301697 192.446518,203.039612 
	C187.949203,202.744263 186.223419,201.022308 185.964355,196.481567 
	C185.717651,192.157135 185.890747,187.820969 185.906036,183.489380 
	C185.920074,179.505905 187.725266,176.694565 191.407379,175.415924 
	C200.699356,172.189224 206.820435,165.745438 210.464020,156.847702 
	C212.328598,152.294373 215.620972,151.046158 220.265991,150.796951 
	C247.890320,149.314926 275.531616,150.029236 303.165344,149.851624 
	C305.329376,149.837708 307.506134,149.970398 309.647919,149.574341 
	C311.661316,149.202026 312.991760,148.023636 313.157623,145.920563 
	C313.343658,143.561508 311.997559,142.205582 309.858582,141.555054 
	C308.735413,141.213455 307.556030,141.184891 306.390198,141.181549 
	C289.062958,141.131775 271.704926,140.510239 254.419647,141.407242 
	C243.430161,141.977509 232.462524,141.709610 221.500732,142.198303 
	C215.716797,142.456177 212.498337,140.280502 210.138290,134.792221 
	C200.334229,111.992882 172.677856,108.030441 156.792648,126.875763 
	C154.384155,129.733078 152.905884,133.067352 151.721924,136.551346 
	C150.435211,140.337646 147.906326,142.123123 143.842926,142.121964 
	C125.349701,142.116653 106.831299,142.746262 88.373451,141.844101 
	C78.386391,141.355957 68.422630,141.413742 58.450409,141.159592 
	C56.952629,141.121414 55.445637,141.127869 53.962231,141.375534 
	C51.401951,141.802948 49.498177,143.004181 49.616795,145.902954 
	C49.727348,148.604599 51.633636,149.680511 54.019138,149.695465 
	C59.354179,149.728943 64.573196,150.927231 69.930237,150.902893 
	C93.588348,150.795380 117.248734,150.995071 140.904907,150.759552 
	C147.061523,150.698257 150.782578,152.525284 153.025620,158.589981 
	C156.007858,166.653259 162.326920,171.964935 170.267578,174.953140 
	C175.496780,176.921005 177.503998,180.311798 177.164825,185.649078 
	C176.985626,188.468674 177.173874,191.311890 177.124527,194.143753 
	C176.993286,201.672821 175.610382,203.015335 167.888550,203.129303 
	C164.889923,203.173569 161.883148,203.276794 158.893585,203.125839 
	C154.840118,202.921173 151.943497,204.392014 149.717850,207.875610 
	C146.853790,212.358444 143.421753,216.456024 140.190292,220.687775 
	C138.008209,223.545319 135.287598,225.134949 131.676849,225.071579 
	C123.699921,224.931564 115.716141,224.835754 107.747276,224.643448 
	C99.673424,224.448608 91.389519,224.339630 83.382233,225.625031 
	C77.606804,226.552155 73.185852,231.098679 68.357834,234.274780 
	C49.026176,246.992065 29.453115,259.338867 10.211004,272.193665 
	C7.685805,273.880646 5.344404,276.496948 1.350753,275.242371 
z"/>
<path fill="#000000" opacity="1.000000" stroke="none" 
	d="
M512.626587,223.777832 
	C513.000000,318.791870 512.979675,413.583771 513.079895,508.375519 
	C513.083618,511.891968 512.656860,513.114624 508.628235,513.111450 
	C340.868378,512.981384 173.108429,512.980774 5.348587,513.113892 
	C1.272254,513.117126 0.915685,511.833679 0.921436,508.352295 
	C1.028483,443.547455 1.000000,378.742340 1.000000,313.468658 
	C2.953982,311.459198 4.786059,312.484955 6.608052,313.291962 
	C26.845840,322.256073 47.178104,331.004456 67.681778,339.338165 
	C74.343246,342.045715 77.779686,345.977661 77.288162,353.651306 
	C76.703682,362.776245 77.220688,371.967773 77.122139,381.129517 
	C77.040909,388.680634 75.626480,390.050110 67.930038,390.129944 
	C60.767246,390.204254 53.593971,389.926208 46.443008,390.209747 
	C39.932144,390.467896 35.230499,387.613342 31.495707,382.732727 
	C29.267920,379.821411 26.739464,377.173004 24.504436,374.267700 
	C22.768368,372.011017 20.354279,370.452271 17.608099,372.460266 
	C14.617355,374.647125 16.303106,377.134521 17.786575,379.449097 
	C21.601603,385.401398 26.560488,390.346710 31.848988,394.926178 
	C35.521664,398.106476 40.057148,398.898163 44.917465,398.888916 
	C85.065376,398.812561 125.213524,398.842102 165.361603,398.843933 
	C197.513382,398.845398 229.671295,398.494324 261.813263,399.055939 
	C271.544861,399.225983 278.442993,395.519562 284.435242,388.796692 
	C286.975372,385.946899 289.334991,382.915619 291.529724,379.775879 
	C293.250427,377.314240 294.704285,374.564148 291.584473,372.360687 
	C288.842255,370.423920 286.606384,372.103699 284.829437,374.463898 
	C281.620789,378.725647 278.145477,382.745575 274.195618,386.358521 
	C271.619324,388.715027 268.734222,390.055511 265.209351,390.092834 
	C256.546844,390.184601 247.883057,390.261841 239.223221,390.071655 
	C233.788910,389.952332 231.998947,388.217651 231.935059,382.794464 
	C231.746689,366.803375 231.841003,350.810516 231.876694,334.818146 
	C231.885284,330.966309 233.446533,328.117676 236.551086,325.966919 
	C241.476868,322.554382 246.382080,319.111084 251.182861,315.523895 
	C254.616058,312.958557 258.567230,312.834015 262.614471,312.835175 
	C300.263702,312.845795 337.912933,312.850952 375.562164,312.843231 
	C386.890228,312.840912 398.219452,312.758698 409.545837,312.879730 
	C414.207916,312.929565 417.260742,311.285065 419.569672,307.049103 
	C425.063110,296.970795 431.192902,287.236786 436.671173,277.154175 
	C439.603424,271.757507 443.412109,269.802094 449.469421,269.738312 
	C475.554474,269.463715 493.599640,256.272278 505.549774,233.771286 
	C506.647095,231.705154 507.196594,229.411407 508.102600,227.266632 
	C508.886810,225.410080 509.760345,223.548325 512.626587,223.777832 
z"/>
<path fill="#333333" opacity="1.000000" stroke="none" 
	d="
M513.000000,223.531342 
	C510.495331,224.310745 510.618652,226.610443 510.140503,228.174011 
	C502.843933,252.034241 476.549347,273.587982 448.787201,271.929169 
	C444.058380,271.646606 441.392090,273.004669 439.068207,277.446808 
	C433.147461,288.764465 426.442169,299.670135 420.127045,310.784027 
	C418.104614,314.343323 414.961334,315.030914 411.245758,315.023376 
	C387.087402,314.974304 362.928833,314.998474 338.770355,314.998535 
	C315.278320,314.998627 291.773804,315.439331 268.300476,314.776764 
	C259.197113,314.519775 252.406693,317.768585 244.957367,322.258850 
	C235.747879,327.810059 233.026291,334.700653 233.779480,345.007751 
	C234.699890,357.602905 234.137268,370.318878 233.918533,382.977478 
	C233.849686,386.961273 235.162277,388.233551 239.073410,388.074005 
	C245.560394,387.809418 252.160583,387.302094 258.542267,388.163116 
	C268.751434,389.540558 274.747589,384.104919 280.083130,376.839386 
	C281.359650,375.101135 282.601746,373.334595 283.944580,371.648682 
	C286.542297,368.387329 289.950439,367.969666 293.254028,369.993774 
	C296.952148,372.259644 297.000946,376.082855 294.795471,379.182373 
	C289.605103,386.476868 284.224854,393.717834 276.523987,398.684326 
	C274.135315,400.224823 271.529419,401.048065 268.532867,401.045624 
	C192.891861,400.984161 117.250778,400.981628 41.609768,401.037903 
	C37.150143,401.041199 33.343796,399.400330 30.280716,396.617859 
	C24.630234,391.484985 19.204107,386.091522 15.003306,379.584534 
	C12.836946,376.228851 11.982522,373.207733 15.489614,370.395599 
	C18.506653,367.976379 22.689169,368.691650 25.576546,371.982361 
	C27.757845,374.468353 30.287548,376.770172 31.933615,379.580658 
	C36.220837,386.900726 42.564034,388.704071 50.528969,388.104919 
	C57.155945,387.606354 63.852161,387.903717 70.513611,388.043610 
	C73.561249,388.107635 75.095795,387.346161 75.051651,383.891876 
	C74.902603,372.231079 74.877174,360.565216 75.073380,348.905762 
	C75.127876,345.666962 73.278015,344.498352 70.945625,343.491516 
	C58.146568,337.966431 45.276669,332.602448 32.531380,326.956757 
	C22.222872,322.390442 11.455734,318.825958 1.357828,313.001862 
	C1.000000,300.645782 1.000000,288.291534 1.000000,275.468658 
	C4.577971,273.939667 7.250789,271.368683 10.278605,269.400970 
	C33.093338,254.574142 55.884975,239.711792 78.694595,224.877090 
	C79.662331,224.247711 80.715569,223.355637 81.763435,223.305435 
	C90.873291,222.869064 100.036964,221.893875 109.092804,222.485214 
	C117.255203,223.018219 125.377899,222.661804 133.510269,222.972595 
	C135.381393,223.044113 136.615540,222.027695 137.642975,220.604614 
	C141.424301,215.367203 145.304153,210.198410 148.976685,204.886093 
	C150.843491,202.185776 153.033768,200.798599 156.440979,200.945831 
	C161.429779,201.161407 166.436188,200.931610 171.433090,201.013565 
	C173.965027,201.055099 175.057587,200.042679 175.013306,197.472336 
	C174.924347,192.308960 174.964310,187.142822 174.997574,181.978119 
	C175.012650,179.636673 173.989212,178.637848 171.653748,177.869675 
	C161.156570,174.416977 153.409241,167.793793 149.965729,157.027115 
	C148.879593,153.631134 147.033310,152.920120 143.773834,152.936646 
	C119.948906,153.057495 96.121826,152.866394 72.298332,153.087646 
	C65.614746,153.149719 59.076641,151.771637 52.414173,151.927094 
	C49.570549,151.993469 47.626110,150.395706 47.163914,147.563492 
	C46.664524,144.503342 46.753674,141.584579 50.199196,139.905655 
	C52.277485,138.892975 54.399719,138.999451 56.546600,139.010406 
	C85.670647,139.159058 114.778999,140.597076 143.913666,140.053970 
	C146.880554,139.998672 148.540115,139.605087 149.577637,136.182510 
	C153.558502,123.050407 165.623581,113.713776 177.716248,112.936920 
	C197.394913,111.672722 208.282150,122.665176 212.564270,134.690826 
	C214.080719,138.949554 216.017212,140.125488 220.352646,140.103699 
	C248.644958,139.961548 276.917084,138.283249 305.218323,138.994919 
	C306.550476,139.028412 307.885223,138.973389 309.216553,139.021118 
	C313.380371,139.170395 315.748383,141.337814 315.923035,145.496994 
	C316.090576,149.487198 313.358643,151.974182 308.886841,151.981522 
	C288.060364,152.015747 267.233063,152.102127 246.407623,151.952179 
	C236.756607,151.882706 227.188995,153.668747 217.531601,152.991135 
	C214.864136,152.803986 213.799103,154.239075 212.946671,156.555939 
	C209.114334,166.971848 202.267426,174.468719 191.392578,177.693848 
	C188.844193,178.449615 187.928818,179.835724 187.978073,182.365265 
	C188.072098,187.195160 188.154282,192.034546 187.951157,196.857788 
	C187.806961,200.281769 189.368851,201.148438 192.453598,201.041306 
	C197.113007,200.879501 201.783524,201.068298 206.447067,200.983932 
	C209.404724,200.930435 211.524216,201.957352 212.908218,204.691803 
	C215.009064,208.842484 217.561111,212.783463 219.416962,217.033813 
	C221.033508,220.736084 223.212967,222.236252 227.381332,222.100998 
	C237.034668,221.787750 246.707413,222.127655 256.367676,221.950897 
	C261.429199,221.858261 264.462128,223.796860 265.869141,228.785934 
	C268.254852,237.245377 271.075500,245.582245 273.455994,254.043045 
	C274.460297,257.612671 276.101501,259.107605 280.052399,259.089050 
	C313.040894,258.934021 346.031097,258.898285 379.018768,259.124725 
	C383.394470,259.154785 385.730804,256.898712 388.246582,254.247253 
	C390.759247,251.599106 394.293243,249.293289 395.427460,246.136108 
	C396.617737,242.822815 392.423889,240.261032 391.004486,237.127167 
	C379.898041,212.606232 381.642120,189.315475 397.954254,167.679062 
	C420.748291,137.445114 466.870850,134.545914 493.822601,161.232742 
	C502.067566,169.396652 507.867035,178.810043 510.991180,189.925613 
	C511.223083,190.750641 511.399200,191.532288 512.636230,191.953033 
	C513.000000,202.354233 513.000000,212.708450 513.000000,223.531342 
z"/>
<path fill="#FECA5B" opacity="1.000000" stroke="none" 
	d="
M14.270094,303.375183 
	C12.782189,298.599487 13.626039,294.052032 13.115931,289.607635 
	C12.710461,286.074921 14.027702,285.091064 17.503643,285.065704 
	C38.486591,284.912781 59.470001,284.639862 80.448990,284.202301 
	C91.428139,283.973297 102.444664,284.698517 113.383217,283.250732 
	C134.266098,280.486664 143.596954,270.472900 144.957703,249.475967 
	C145.011551,248.645126 145.174835,247.789719 145.047653,246.983521 
	C143.041275,234.264908 149.116806,224.644547 156.857620,215.570465 
	C158.286758,213.895172 159.623810,213.061615 161.862671,213.079544 
	C173.853134,213.175507 185.848953,213.307938 197.834061,213.036713 
	C202.797653,212.924408 203.934021,216.776337 205.277237,219.722672 
	C207.373199,224.320206 210.661728,227.948242 213.426880,231.995483 
	C215.132462,234.491867 217.796005,234.750351 220.544891,234.758560 
	C230.702240,234.788910 240.859482,234.855118 251.478241,234.972931 
	C255.164703,239.968567 256.046326,245.768127 257.871490,251.210571 
	C259.337067,255.580780 260.337555,260.109924 262.742706,264.535828 
	C265.503784,270.254089 269.870636,271.197327 275.528931,271.158356 
	C310.776550,270.915741 346.027435,270.920563 381.275146,271.156982 
	C386.746613,271.193665 390.901825,269.531464 394.596466,265.847382 
	C398.123505,262.330444 401.356842,256.695862 405.372772,256.048920 
	C408.801300,255.496628 413.123352,260.754639 417.118530,263.336700 
	C418.924866,264.504120 420.897095,265.414825 422.974457,266.748535 
	C424.176575,269.021942 423.869537,270.850616 422.789246,272.732849 
	C418.398804,280.382904 414.043427,288.052979 409.599060,295.672119 
	C407.473663,299.315765 404.152008,300.046387 400.216034,300.039124 
	C364.567810,299.973297 328.919434,299.998840 293.271088,299.999878 
	C280.944092,300.000244 268.615051,300.130585 256.291107,299.936890 
	C251.219421,299.857208 246.836304,301.327026 242.642639,303.955780 
	C237.413559,307.233521 232.705521,311.226410 227.619751,314.702118 
	C224.188797,317.046906 220.591476,318.077423 216.393295,318.058624 
	C190.407196,317.942230 164.418640,318.158234 138.434845,317.887543 
	C131.982452,317.820343 127.448578,319.781067 124.783264,325.662994 
	C122.576126,330.533813 118.886383,332.347504 113.548180,332.081787 
	C106.735329,331.742584 99.888618,331.851562 93.063858,332.037598 
	C84.646950,332.266968 76.794510,331.013977 68.873161,327.513947 
	C52.302677,320.192230 35.632187,313.060730 18.874647,306.153229 
	C17.355881,305.527191 15.806525,304.847321 14.270094,303.375183 
z"/>
<path fill="#000000" opacity="1.000000" stroke="none" 
	d="
M122.000000,388.002991 
	C111.843781,388.002106 102.185402,387.884430 92.532471,388.062134 
	C89.037521,388.126465 87.886353,386.907867 87.940437,383.444397 
	C88.106804,372.791840 88.116013,362.133148 87.937080,351.480988 
	C87.877304,347.922119 89.208435,346.894409 92.607651,346.943024 
	C103.427048,347.097931 114.259872,346.725464 125.067665,347.111786 
	C130.642105,347.311005 134.099426,344.981049 135.827118,340.194122 
	C137.901672,334.446167 141.521194,332.760590 147.557312,332.855743 
	C170.193863,333.212555 192.840439,333.111572 215.480682,332.902222 
	C219.916763,332.861176 221.170074,334.195618 221.097031,338.566833 
	C220.849457,353.380005 220.873993,368.201691 221.085983,383.015991 
	C221.143768,387.053253 219.736618,388.086548 215.898743,388.071350 
	C184.766220,387.948181 153.633011,388.002655 122.000000,388.002991 
z"/>
<path fill="#FD6F69" opacity="1.000000" stroke="none" 
	d="
M422.431854,251.346817 
	C407.484741,243.650528 399.516663,231.220093 397.329956,215.475357 
	C394.434937,194.629852 401.556488,177.233505 418.893982,165.066589 
	C436.025208,153.044403 454.480927,152.312607 473.184052,161.601883 
	C481.904602,165.933090 488.435791,172.581268 492.588379,181.831619 
	C505.532532,209.044281 494.830811,236.989731 469.650696,250.968140 
	C454.325500,259.475708 438.515778,259.025879 422.431854,251.346817 
z"/>
<path fill="#CDCF7C" opacity="1.000000" stroke="none" 
	d="
M36.365875,268.156311 
	C51.898064,257.447174 67.734032,247.109940 83.556679,236.752350 
	C84.819794,235.925522 86.032516,235.152756 87.641083,235.167816 
	C101.243309,235.295227 114.845848,235.389114 128.772980,235.767609 
	C131.527771,238.053482 131.002670,240.845200 130.982040,243.456757 
	C130.856415,259.353973 121.863350,267.966217 106.032211,269.133423 
	C85.092773,270.677246 64.164841,269.535309 43.238438,269.972656 
	C40.974712,270.019989 38.515282,270.537292 36.365875,268.156311 
z"/>
<path fill="#000000" opacity="1.000000" stroke="none" 
	d="
M14.077934,303.349274 
	C29.525576,309.673218 45.004036,316.412964 60.575256,322.931091 
	C63.092846,323.984985 65.960831,324.881409 68.049644,326.242096 
	C74.829826,330.658844 82.157364,329.996307 89.511429,330.000610 
	C98.339844,330.005798 107.172089,329.853821 115.994621,330.081543 
	C119.115105,330.162109 120.955299,329.193359 121.980736,326.318298 
	C122.412407,325.107941 123.068405,323.970947 123.684196,322.834076 
	C126.428543,317.767517 130.294952,315.742584 136.428162,315.836487 
	C162.074539,316.229034 187.736038,315.705872 213.379089,316.195312 
	C220.419189,316.329651 225.597351,313.738312 230.699905,309.801758 
	C232.764282,308.209106 234.852432,306.645782 236.883194,305.011292 
	C243.672897,299.546539 251.232498,297.751038 260.072601,297.825165 
	C305.544067,298.206573 351.020874,297.910217 396.494659,298.110382 
	C402.636414,298.137390 407.034851,297.738892 409.917664,290.931152 
	C413.352570,282.819489 418.568237,275.461884 423.083618,267.416321 
	C427.834564,267.998901 428.731293,269.960815 425.998047,274.278900 
	C420.770752,282.537109 416.001617,291.091125 411.220673,299.622284 
	C409.862061,302.046631 407.882782,302.001312 405.704681,302.000977 
	C394.713196,301.999237 383.721710,302.001312 372.730225,302.001343 
	C337.091156,302.001526 301.446533,302.348724 265.816559,301.780396 
	C255.712723,301.619232 247.278839,303.930206 239.613190,310.157867 
	C236.529266,312.663300 233.251297,314.929352 230.071487,317.317444 
	C227.621048,319.157806 225.031403,320.086487 221.810654,320.072021 
	C194.332504,319.948578 166.853027,320.087189 139.375244,319.927429 
	C134.059616,319.896515 130.210114,321.653015 128.256790,326.544830 
	C125.815933,332.657593 121.697372,335.046448 115.121201,334.096619 
	C111.369110,333.554688 107.474510,333.979401 103.644279,334.002136 
	C91.558121,334.073914 79.875687,334.117188 68.322060,328.238556 
	C52.092190,319.980530 34.857975,313.699768 18.083971,306.501892 
	C16.624477,305.875610 14.896984,305.402130 14.077934,303.349274 
z"/>
<path fill="#0E99A6" opacity="1.000000" stroke="none" 
	d="
M168.456635,161.359528 
	C159.848312,154.941772 158.293137,142.013580 164.688202,133.137070 
	C170.634476,124.883492 184.168716,122.480652 192.407867,128.139145 
	C194.450363,129.541901 195.307159,131.669754 196.708679,133.857895 
	C202.015457,146.887939 196.459366,159.780411 184.227478,163.288086 
	C178.955032,164.800018 173.745255,164.227280 168.456635,161.359528 
z"/>
<path fill="#000000" opacity="1.000000" stroke="none" 
	d="
M422.230530,251.444641 
	C429.728699,253.332809 437.339722,255.152206 445.512115,255.139694 
	C468.345551,255.104706 489.954102,237.478470 494.922791,215.297440 
	C497.367096,204.385712 496.510498,193.463440 492.933228,182.401138 
	C502.035767,195.892029 502.487854,210.932861 496.859741,225.814285 
	C489.945526,244.096298 476.188690,255.239746 456.755371,258.463562 
	C444.619324,260.476807 432.966461,258.505676 422.230530,251.444641 
z"/>
<path fill="#000000" opacity="1.000000" stroke="none" 
	d="
M35.885841,268.081421 
	C56.174080,267.861206 76.295479,268.356934 96.383522,267.749481 
	C102.521736,267.563812 108.918419,267.343933 115.117241,265.210083 
	C122.706085,262.597748 126.211990,257.382477 128.028854,250.186447 
	C129.134338,245.807999 128.976685,241.384537 129.056305,236.497452 
	C130.958359,236.029434 132.925797,235.842163 132.958862,238.601547 
	C133.042053,245.545578 133.284042,252.480835 130.425812,259.091583 
	C126.780327,267.523102 119.663231,270.253326 111.315346,270.986328 
	C88.787926,272.964447 66.208008,271.670349 43.653355,271.952454 
	C39.438175,272.005157 35.250034,272.424377 30.754362,272.105255 
	C32.404968,270.861237 34.055573,269.617218 35.885841,268.081421 
z"/>
<path fill="#000000" opacity="1.000000" stroke="none" 
	d="
M168.230988,161.442596 
	C177.775833,163.016342 186.926483,163.077255 193.612152,153.950073 
	C197.886444,148.114838 196.898376,141.468079 197.007477,134.497177 
	C202.778015,140.010620 201.860825,147.170425 199.726501,153.985580 
	C197.523102,161.021317 191.931824,165.033005 184.641678,165.880081 
	C178.842880,166.553848 172.983444,166.351730 168.230988,161.442596 
z"/>
<path fill="#000000" opacity="1.000000" stroke="none" 
	d="
M262.953918,264.472168 
	C259.488434,263.489960 259.621948,260.082275 258.729065,257.297424 
	C256.439484,250.156250 254.234497,242.987976 251.967712,235.434265 
	C254.063644,235.191986 254.497620,236.853378 254.996277,238.460419 
	C257.647461,247.004318 260.300079,255.547760 262.953918,264.472168 
z"/>
<path fill="#333333" opacity="1.000000" stroke="none" 
	d="
M204.540634,234.737610 
	C209.059525,236.307312 210.462280,239.159988 210.396042,243.361023 
	C210.228592,253.982330 210.384949,264.608307 210.322495,275.231873 
	C210.285446,281.533813 208.623230,283.143402 202.287659,283.164307 
	C191.331848,283.200439 180.373383,283.040741 169.421112,283.241028 
	C165.154648,283.319061 162.412918,281.831848 161.043335,277.412781 
	C159.227783,275.011627 159.004120,272.544617 159.003082,270.011200 
	C158.999298,260.854523 158.953262,251.697510 159.019394,242.541260 
	C159.067062,235.941986 161.882721,233.075317 168.409424,233.022766 
	C178.065033,232.945007 187.721741,233.033737 197.377563,232.978714 
	C199.768143,232.965073 202.010651,233.324280 204.540634,234.737610 
z"/>
<path fill="#000000" opacity="1.000000" stroke="none" 
	d="
M204.880325,234.635193 
	C192.865158,234.992599 180.754745,234.973358 168.644516,235.013336 
	C162.734940,235.032837 161.029694,236.773132 161.009918,242.772446 
	C160.973282,253.887299 160.991470,265.002350 160.974838,276.589111 
	C157.526367,276.594696 157.058228,273.946533 157.038712,271.298401 
	C156.954224,259.837616 156.950821,248.375458 157.030380,236.914581 
	C157.057831,232.958572 159.234299,230.982803 163.249481,230.992188 
	C175.043045,231.019699 186.839569,231.142624 198.628418,230.904938 
	C201.652649,230.843979 203.055298,232.585739 204.880325,234.635193 
z"/>
<path fill="#363434" opacity="1.000000" stroke="none" 
	d="
M448.618103,162.762955 
	C453.434387,164.386307 455.349091,167.419601 454.884003,172.059616 
	C454.752167,173.375015 454.937531,174.719620 454.852142,176.042755 
	C454.513824,181.286240 454.393768,186.056931 460.827606,188.412704 
	C464.365967,189.708282 466.517120,193.373947 468.800781,196.877609 
	C471.281525,198.860504 473.844055,199.139297 476.580933,199.029602 
	C479.891785,198.896942 483.264923,198.648819 486.622375,200.763550 
	C489.904694,202.284042 492.928864,203.644257 492.850891,207.508270 
	C492.769989,211.516708 490.365906,213.524582 486.476318,213.634140 
	C482.167236,213.755554 477.848877,213.799850 473.542175,213.653564 
	C471.199066,213.573990 469.938538,214.388641 469.126648,216.610352 
	C467.019440,222.376831 463.004517,226.423813 457.234009,228.527756 
	C455.293488,229.235245 454.802307,230.369232 454.844055,232.234558 
	C454.929352,236.047287 454.807495,239.864487 454.879883,243.677765 
	C454.952698,247.514786 453.987823,250.817322 449.779205,251.632156 
	C445.757599,252.410782 443.775543,249.698990 442.224182,246.117401 
	C439.955322,242.806427 439.923737,239.340134 439.999268,235.851639 
	C440.052887,233.373154 440.223755,230.867783 438.298950,228.412033 
	C434.170044,225.007980 430.540771,221.709900 427.818817,217.438049 
	C426.036255,214.640411 423.392944,213.216385 419.820129,213.639481 
	C417.369202,213.929718 414.852295,213.608017 412.371216,213.711365 
	C408.401123,213.876755 405.664185,212.317917 404.196167,208.168686 
	C402.486542,203.097626 404.737915,199.712158 410.056671,199.118515 
	C413.356476,198.750183 416.708221,198.888672 420.023956,199.041016 
	C423.204651,199.187164 425.439850,198.133270 426.898560,195.219559 
	C429.117523,190.787231 432.473022,187.390182 436.866791,185.067673 
	C439.176483,183.846756 440.138458,182.032928 440.038940,179.387741 
	C439.914093,176.070358 439.748840,172.721436 440.134308,169.421249 
	C440.740051,164.234314 443.506348,162.000061 448.618103,162.762955 
z"/>
<path fill="#000000" opacity="1.000000" stroke="none" 
	d="
M448.879395,162.642151 
	C444.366180,162.951126 442.637299,165.838806 442.100983,169.851959 
	C441.948486,170.993057 442.001556,172.166504 442.017181,173.324356 
	C442.103699,179.726837 443.436584,186.405457 434.691193,189.102249 
	C432.052155,189.916031 429.911621,193.110428 428.911560,196.251877 
	C427.660645,200.181229 425.013672,201.498108 420.991760,201.071213 
	C418.044556,200.758408 415.035034,201.086655 412.057526,200.992950 
	C407.643280,200.854004 404.685913,202.491348 403.985901,207.540100 
	C401.415497,206.401505 399.498352,204.361359 400.422180,201.240631 
	C401.388214,197.977280 404.054504,196.847717 407.338196,196.992798 
	C408.667633,197.051529 410.004608,196.946396 411.333435,197.011597 
	C417.848267,197.331268 424.066162,197.982956 426.589935,189.316742 
	C427.606781,185.825073 431.788025,183.331528 435.674927,182.277573 
	C437.899139,181.674454 438.060760,180.655746 438.026093,178.864471 
	C437.948792,174.869873 438.090424,170.870178 437.975555,166.877380 
	C437.877441,163.467926 438.772217,160.809067 442.176666,159.352341 
	C445.536835,157.914566 446.914795,160.584244 448.879395,162.642151 
z"/>
<path fill="#000000" opacity="1.000000" stroke="none" 
	d="
M486.867737,200.633148 
	C482.651978,200.990677 478.329529,200.852234 474.024139,201.062378 
	C471.423035,201.189316 469.962952,200.239853 469.207886,197.445877 
	C472.310486,197.067001 475.581421,197.248810 478.806152,196.943207 
	C482.175171,196.623962 484.814423,197.497025 486.867737,200.633148 
z"/>
<path fill="#000000" opacity="1.000000" stroke="none" 
	d="
M438.059814,228.516296 
	C441.332001,229.054581 442.289246,231.292526 442.063263,234.539001 
	C441.822205,238.001663 441.995361,241.493179 441.970428,245.431458 
	C438.846130,244.290451 437.888153,241.606812 437.984314,238.295578 
	C438.074493,235.191208 438.011841,232.082397 438.059814,228.516296 
z"/>
<path fill="#C9CB7B" opacity="1.000000" stroke="none" 
	d="
M174.386917,267.382751 
	C172.533142,261.322449 173.637894,255.513306 173.346863,249.757187 
	C173.251419,247.869537 174.236481,247.103317 176.091125,247.152359 
	C181.868469,247.305145 187.647293,247.402542 193.760468,247.781677 
	C197.673187,253.892807 195.973587,260.103821 195.197968,266.204620 
	C195.036880,267.471527 193.594528,268.577942 192.280197,268.615326 
	C186.429474,268.781586 180.490219,270.256805 174.386917,267.382751 
z"/>
<path fill="#000000" opacity="1.000000" stroke="none" 
	d="
M174.006561,267.448120 
	C179.659698,267.025574 185.321381,266.911133 190.976135,267.060181 
	C193.391037,267.123840 194.130905,266.327667 194.057419,263.948669 
	C193.903320,258.960358 194.017242,253.963806 194.058258,248.506271 
	C196.762558,247.733719 198.112045,248.665161 198.031418,251.606720 
	C197.890213,256.759064 197.918900,261.919647 198.025146,267.073730 
	C198.079971,269.732269 197.240158,271.086670 194.342194,271.025940 
	C188.689453,270.907471 183.032089,270.949768 177.377518,271.008667 
	C175.152527,271.031830 173.850937,270.286072 174.006561,267.448120 
z"/>
<path fill="#CCCE7C" opacity="1.000000" stroke="none" 
	d="
M441.309021,213.290894 
	C438.228638,209.985825 437.917572,205.113434 440.328918,201.512634 
	C443.070374,197.418869 447.977325,196.326904 453.782593,198.813721 
	C456.732178,203.081406 456.834930,207.103668 453.725159,210.911102 
	C451.160583,214.051056 448.029327,215.935791 443.403442,214.111389 
	C443.037720,213.884079 443.017273,213.951172 443.052338,213.951996 
	C442.621521,213.637177 442.094055,213.502960 441.309021,213.290894 
z"/>
<path fill="#000000" opacity="1.000000" stroke="none" 
	d="
M443.021423,214.255188 
	C444.913239,212.370514 447.395477,213.460724 449.478333,212.184967 
	C453.236420,209.883102 455.257874,204.970673 454.042358,199.433929 
	C458.687805,204.132584 459.694733,208.798279 456.840912,213.219025 
	C454.229675,217.264008 450.199432,217.663712 445.859955,216.990753 
	C444.394867,216.763580 443.398712,216.088913 443.021423,214.255188 
z"/>
<path fill="#000000" opacity="1.000000" stroke="none" 
	d="
M441.249176,213.389832 
	C441.652954,213.234085 442.233887,213.315796 442.951111,213.675156 
	C442.533722,213.844299 441.980011,213.735794 441.249176,213.389832 
z"/>
</svg>