<svg width="2.5rem" height="2rem" viewBox="0 0 430 430" fill="none" xmlns="http://www.w3.org/2000/svg">
<path d="M135 30C123.954 30 115 38.9543 115 50V130C115 141.046 123.954 150 135 150H191.667L215 185L238.333 150H295C306.046 150 315 141.046 315 130V50C315 38.9543 306.046 30 295 30H135Z" fill="#EBE6EF"/>
<g style="mix-blend-mode:multiply" opacity="0.5">
<path d="M115 50C115 38.9543 123.954 30 135 30H160C148.954 30 140 38.9543 140 50V130C140 141.046 148.954 150 160 150H135C123.954 150 115 141.046 115 130V50Z" fill="#EBE6EF"/>
</g>
<path d="M240 90H190M215 115V65" stroke="#121331" stroke-width="7" stroke-miterlimit="10" stroke-linecap="round" stroke-linejoin="round"/>
<path d="M135 30C123.954 30 115 38.9543 115 50V130C115 141.046 123.954 150 135 150H191.667L215 185L238.333 150H295C306.046 150 315 141.046 315 130V50C315 38.9543 306.046 30 295 30H135Z" stroke="#121331" stroke-width="7" stroke-miterlimit="10" stroke-linecap="round" stroke-linejoin="round"/>
<path d="M115 305C131.569 305 145 291.569 145 275C145 258.431 131.569 245 115 245C98.4315 245 85 258.431 85 275C85 291.569 98.4315 305 115 305Z" fill="#FFC738"/>
<path d="M50 365C50 340.147 70.1472 320 95 320H135C159.853 320 180 340.147 180 365V380H50V365Z" fill="#4BB3FD"/>
<g style="mix-blend-mode:multiply" opacity="0.5">
<path d="M115 305C131.569 305 145 291.569 145 275C145 258.431 131.569 245 115 245C98.4315 245 85 258.431 85 275C85 291.569 98.4315 305 115 305Z" fill="#FFC738"/>
<path d="M50 365C50 340.147 70.1472 320 95 320H135C159.853 320 180 340.147 180 365V380H50V365Z" fill="#4BB3FD"/>
</g>
<path d="M115 305C131.569 305 145 291.569 145 275C145 258.431 131.569 245 115 245C98.4315 245 85 258.431 85 275C85 291.569 98.4315 305 115 305Z" stroke="#121331" stroke-width="7" stroke-miterlimit="10" stroke-linecap="round" stroke-linejoin="round"/>
<path d="M50 365C50 340.147 70.1472 320 95 320H135C159.853 320 180 340.147 180 365V380H50V365Z" stroke="#121331" stroke-width="7" stroke-linejoin="round"/>
<path d="M315 305C331.569 305 345 291.569 345 275C345 258.431 331.569 245 315 245C298.431 245 285 258.431 285 275C285 291.569 298.431 305 315 305Z" fill="#FFC738"/>
<path d="M250 365C250 340.147 270.147 320 295 320H335C359.853 320 380 340.147 380 365V380H250V365Z" fill="#4BB3FD"/>
<g style="mix-blend-mode:multiply" opacity="0.5">
<path d="M315 305C331.569 305 345 291.569 345 275C345 258.431 331.569 245 315 245C298.431 245 285 258.431 285 275C285 291.569 298.431 305 315 305Z" fill="#FFC738"/>
<path d="M250 365C250 340.147 270.147 320 295 320H335C359.853 320 380 340.147 380 365V380H250V365Z" fill="#4BB3FD"/>
</g>
<path d="M315 305C331.569 305 345 291.569 345 275C345 258.431 331.569 245 315 245C298.431 245 285 258.431 285 275C285 291.569 298.431 305 315 305Z" stroke="#121331" stroke-width="7" stroke-miterlimit="10" stroke-linecap="round" stroke-linejoin="round"/>
<path d="M250 365C250 340.147 270.147 320 295 320H335C359.853 320 380 340.147 380 365V380H250V365Z" stroke="#121331" stroke-width="7" stroke-linejoin="round"/>
<path d="M215 305C239.853 305 260 284.853 260 260C260 235.147 239.853 215 215 215C190.147 215 170 235.147 170 260C170 284.853 190.147 305 215 305Z" fill="#FFC738"/>
<g style="mix-blend-mode:multiply" opacity="0.3">
<path d="M243.447 294.87C242.309 294.956 241.16 295 240 295C215.147 295 195 274.853 195 250C195 235.938 201.45 223.382 211.553 215.13C188.311 216.89 170 236.307 170 260C170 284.853 190.147 305 215 305C225.791 305 235.694 301.202 243.447 294.87Z" fill="#FFC738"/>
</g>
<path d="M215 305C239.853 305 260 284.853 260 260C260 235.147 239.853 215 215 215C190.147 215 170 235.147 170 260C170 284.853 190.147 305 215 305Z" stroke="#121331" stroke-width="7" stroke-miterlimit="10" stroke-linecap="round" stroke-linejoin="round"/>
<path d="M125 375C125 344.624 149.624 320 180 320H250C280.376 320 305 344.624 305 375V400H125V375Z" fill="#4BB3FD"/>
<g style="mix-blend-mode:multiply" opacity="0.3">
<path d="M180 320C149.624 320 125 344.624 125 375V400H155V375C155 344.624 179.624 320 210 320H180Z" fill="#4BB3FD"/>
</g>
<path d="M125 375C125 344.624 149.624 320 180 320H250C280.376 320 305 344.624 305 375V400H125V375Z" stroke="#121331" stroke-width="7" stroke-linejoin="round"/>
</svg>
