<svg version="1.1" id="Layer_1" xmlns="http://www.w3.org/2000/svg" xmlns:xlink="http://www.w3.org/1999/xlink" x="0px" y="0px"
	 width="2.5rem" height="2rem" viewBox="0 0 512 512" enable-background="new 0 0 512 512" xml:space="preserve">
<path fill="#fff" opacity="1.000000" stroke="none" 
	d="
M513.000000,184.000000 
	C513.000000,292.473633 512.980408,400.447327 513.085205,508.420837 
	C513.088684,512.020935 512.511780,513.108826 508.581177,513.105896 
	C340.788910,512.982788 172.996521,512.983643 5.204252,513.106140 
	C1.475542,513.108826 0.911055,512.189697 0.913119,508.706177 
	C1.012564,340.913879 1.010951,173.121506 0.922068,5.329185 
	C0.920277,1.947807 1.339152,0.883451 5.168871,0.886451 
	C173.127762,1.018001 341.086792,1.014574 509.045715,0.899993 
	C512.559875,0.897596 513.097046,1.717465 513.090149,5.044000 
	C512.966064,64.529137 513.000000,124.014603 513.000000,184.000000 
z"/>
<path fill="#68302B" opacity="1.000000" stroke="none" 
	d="
M291.226715,40.246193 
	C301.067963,23.699621 315.063812,14.051652 333.812836,10.868814 
	C348.026154,8.455956 360.925964,11.735290 373.865784,17.281975 
	C390.581238,24.447092 406.612610,33.455635 424.623810,37.330093 
	C431.593719,38.829411 438.588501,39.990292 445.751495,38.072334 
	C452.660126,36.222485 457.545471,32.353642 460.026062,25.514748 
	C461.779572,20.680380 465.448944,18.883286 470.221222,20.248257 
	C473.991333,21.326590 475.868225,25.694817 475.490021,30.205473 
	C474.642700,40.311470 473.254883,50.294563 469.969055,59.905346 
	C464.387054,76.232170 456.422821,90.819748 440.748352,99.873314 
	C434.466827,103.501511 427.853638,106.134689 420.731873,106.833038 
	C415.070801,107.388145 412.092651,109.907150 409.949677,115.123177 
	C403.775055,130.152542 397.180878,145.013596 390.545074,159.848404 
	C382.565857,177.686539 368.318542,186.947861 349.201721,188.867828 
	C345.275909,189.262115 344.939514,190.383453 345.927307,193.763046 
	C348.253571,201.722092 349.702820,209.899506 349.956146,218.191772 
	C350.721710,243.254089 342.753601,265.369751 327.453735,285.133514 
	C317.620758,297.835358 308.308746,310.940125 298.726105,323.836670 
	C297.125671,325.990570 297.112152,327.883423 298.645966,330.153107 
	C309.745911,346.578278 316.912018,364.633484 320.505127,384.096222 
	C321.857513,391.421692 322.956696,398.811249 322.977570,406.284882 
	C323.034302,426.614166 323.023041,446.943726 322.987976,467.273102 
	C322.957703,484.808685 312.259369,498.819458 295.046326,502.346313 
	C272.933716,506.877136 253.455399,494.330566 250.818924,472.788330 
	C250.310974,468.637939 250.020477,464.538391 250.014893,460.394531 
	C249.989273,441.398224 250.079697,422.401398 249.975662,403.405640 
	C249.905914,390.670074 245.085114,379.544586 237.825745,369.326263 
	C237.246429,368.510803 236.765015,367.625793 235.570724,365.692993 
	C229.032486,393.845978 214.632202,417.078003 205.240463,442.340179 
	C201.236862,453.109131 198.079330,463.981842 197.909149,475.641510 
	C197.744873,486.895325 186.884949,498.762543 174.651505,501.912598 
	C150.691681,508.082153 129.578949,490.530151 129.856552,467.033203 
	C130.108612,445.697144 135.773300,425.885590 143.774109,406.434937 
	C152.483246,385.262146 164.507629,365.564819 171.620941,343.694611 
	C174.031143,336.284363 175.642090,328.669006 176.935135,320.989838 
	C177.862808,315.480499 176.060730,310.493988 173.775284,305.656647 
	C169.577682,296.772186 168.207291,287.293549 168.083786,277.631531 
	C168.033142,273.670563 166.920990,272.480255 163.148788,273.953033 
	C157.928314,275.991241 152.920639,277.974731 146.856644,276.306335 
	C140.798370,274.639496 135.815277,271.814728 131.802826,267.213348 
	C129.861374,264.986908 127.569344,263.811981 124.809753,263.089203 
	C93.707283,254.943130 70.300774,236.520584 53.725109,209.265137 
	C44.099564,193.437775 38.995144,176.213486 37.876110,157.602097 
	C35.754436,122.315079 47.090725,92.322243 71.514053,66.913010 
	C90.189522,47.483669 113.003242,35.868458 139.361298,32.333889 
	C173.313843,27.780907 203.993759,36.521851 230.870422,58.268330 
	C248.712128,72.704414 260.499298,91.117928 268.601440,113.696358 
	C270.941895,105.418327 272.863800,98.226662 275.012268,91.103317 
	C279.504150,76.210419 282.298065,60.820271 288.102570,46.316463 
	C288.900513,44.322628 290.026978,42.460262 291.226715,40.246193 
z"/>
<path fill="#FDCC04" opacity="1.000000" stroke="none" 
	d="
M225.345840,75.650528 
	C245.232513,95.222702 255.659744,118.644882 256.992859,146.161438 
	C257.130463,149.001068 256.381073,151.173126 254.526917,153.380096 
	C242.208862,168.042389 229.974731,182.776337 217.850906,197.599518 
	C215.738297,200.182480 213.248856,201.735626 210.207306,202.842361 
	C189.108612,210.519638 168.059357,218.333328 146.943756,225.963577 
	C137.934204,229.219208 131.517715,235.124176 128.155487,244.006332 
	C126.983299,247.102966 125.698723,247.066391 123.004349,246.275330 
	C85.807411,235.354553 56.399258,199.635513 52.912415,160.973022 
	C47.900494,105.400276 82.950813,58.358231 137.697647,48.668655 
	C170.987061,42.776798 200.214600,52.578041 225.345840,75.650528 
z"/>
<path fill="#5599FE" opacity="1.000000" stroke="none" 
	d="
M329.299988,193.732956 
	C338.925842,220.813049 335.394287,246.023819 319.687225,269.298767 
	C309.818146,283.922913 298.925293,297.856262 288.485718,312.095154 
	C287.438721,313.523163 286.777710,315.354187 284.492981,313.016144 
	C265.361938,293.438873 243.643875,276.755310 223.295242,258.536285 
	C222.439804,257.770386 221.491058,257.108734 219.642410,255.658447 
	C225.349991,253.832993 229.959198,252.350311 234.573975,250.885117 
	C239.805695,249.224045 245.068069,247.654907 250.269409,245.904022 
	C255.062958,244.290405 257.111115,240.619675 255.858963,236.278976 
	C254.684402,232.207275 250.652008,230.268646 245.750122,231.799652 
	C216.214752,241.024292 186.640808,250.134109 157.226166,259.731079 
	C148.471222,262.587494 141.283798,256.647705 142.894089,248.689560 
	C143.832550,244.051651 147.380661,242.409821 151.226105,240.998215 
	C174.807312,232.341858 198.386658,223.680435 221.966248,215.019608 
	C236.487991,209.685745 251.009232,204.350525 265.529968,199.013855 
	C266.466919,198.669510 267.431061,198.376694 268.325043,197.941666 
	C272.234558,196.039215 274.618683,190.953400 273.229828,187.569214 
	C271.927612,184.396149 266.857300,182.155762 262.956665,183.414612 
	C257.480164,185.182037 252.108673,187.275040 246.184967,188.416855 
	C253.403824,179.725052 260.651917,171.057205 267.815247,162.319839 
	C269.144867,160.698044 270.352783,161.345901 271.759338,161.955475 
	C288.856812,169.365097 305.948547,176.788193 323.072815,184.135513 
	C327.216827,185.913528 327.492004,190.056610 329.299988,193.732956 
z"/>
<path fill="#616B77" opacity="1.000000" stroke="none" 
	d="
M304.125488,383.947144 
	C305.930206,392.528259 307.050720,400.759705 307.043701,409.131317 
	C307.027679,428.290527 307.121948,447.450043 307.051117,466.608978 
	C307.003632,479.448273 299.241608,487.120941 286.495728,487.194977 
	C273.465271,487.270660 265.263702,479.608459 265.152252,466.753784 
	C264.981812,447.096069 265.087830,427.435883 265.087402,407.776764 
	C265.086853,381.211426 254.881958,359.631683 233.694382,343.394470 
	C223.116257,335.287811 212.190079,327.583771 202.086395,318.921875 
	C187.486435,306.405396 181.913193,290.091461 184.329849,271.027222 
	C184.725983,267.902222 186.316895,266.247620 189.327957,264.971924 
	C197.572342,261.479126 203.962372,262.035156 211.156830,268.759644 
	C229.033859,285.468811 248.259857,300.726959 266.321350,317.248627 
	C285.914551,335.171448 298.210114,357.602203 304.125488,383.947144 
z"/>
<path fill="#525F70" opacity="1.000000" stroke="none" 
	d="
M452.657288,53.075958 
	C447.306366,76.165771 430.810760,91.327049 409.326996,91.333084 
	C395.158234,91.337059 382.002014,87.731010 369.050720,82.687172 
	C360.165222,79.226753 358.075165,79.817505 352.897095,87.664200 
	C352.071106,88.915863 351.175903,90.129974 350.447968,91.436790 
	C347.236176,97.202812 344.424072,101.038826 335.742920,99.459007 
	C321.682617,96.900299 310.698181,109.352722 312.546082,123.574440 
	C312.947845,126.666595 312.559570,128.947815 310.111237,131.111526 
	C303.621613,136.846802 297.148560,142.623734 291.017365,148.733749 
	C286.959869,152.777206 283.669281,149.788895 280.194763,148.308762 
	C276.742645,146.838196 278.472290,144.051666 279.096039,141.825348 
	C286.691803,114.714470 294.154175,87.563553 302.070923,60.546021 
	C310.190033,32.837925 336.634735,20.185225 363.333191,31.145891 
	C383.059235,39.244129 402.619690,47.748280 422.202118,56.191654 
	C426.110138,57.876675 429.692749,58.766182 433.487762,55.987202 
	C434.463348,55.272804 435.995972,55.074116 437.276093,55.063850 
	C442.318665,55.023411 447.197327,53.962143 452.657288,53.075958 
z"/>
<path fill="#425060" opacity="1.000000" stroke="none" 
	d="
M204.996307,340.001343 
	C209.508057,343.459595 213.591736,346.916809 217.997681,349.897736 
	C221.785538,352.460480 222.483063,355.588348 221.569153,359.801910 
	C217.946060,376.506226 212.050613,392.381561 204.628891,407.737244 
	C196.723648,424.093323 188.805939,440.457001 185.672195,458.588989 
	C185.048996,462.194977 184.646851,465.839935 184.174042,469.470978 
	C182.659760,481.100403 173.689621,488.265961 162.207169,487.002625 
	C153.074036,485.997772 146.140793,476.223114 146.501297,465.715363 
	C147.360031,440.685303 155.413147,417.717529 166.295166,395.575745 
	C176.147751,375.528503 186.198563,355.585052 190.807327,333.486206 
	C191.438568,330.459473 192.627029,330.410156 194.806351,332.180328 
	C198.036896,334.804321 201.400894,337.264008 204.996307,340.001343 
z"/>
<path fill="#FDB85C" opacity="1.000000" stroke="none" 
	d="
M321.199463,142.200867 
	C323.149689,140.354294 324.769928,138.667053 326.544159,137.161331 
	C330.684448,133.647675 332.413757,129.799225 329.565735,124.471954 
	C327.444733,120.504601 329.561005,117.305946 332.845764,115.125305 
	C336.011993,113.023369 339.053955,113.611252 341.803894,116.432236 
	C346.674805,121.428978 351.353394,120.940277 355.313202,115.138275 
	C358.408630,110.602791 361.473755,106.043968 364.428772,101.416595 
	C365.754272,99.341019 367.042786,98.347694 369.691772,99.402054 
	C377.276917,102.421127 385.102509,104.716637 393.179657,105.994797 
	C395.531128,106.366905 395.986908,107.315186 394.982971,109.303879 
	C394.683624,109.896858 394.429749,110.513390 394.168243,111.124794 
	C390.271851,120.234566 390.272369,120.234787 380.786957,118.038109 
	C375.818848,116.887573 371.881165,118.823593 370.791412,122.952553 
	C369.696320,127.101700 371.935608,130.601562 376.805267,132.351944 
	C383.828552,134.876434 383.831970,134.877930 380.791779,141.852753 
	C378.731781,146.578720 376.736511,151.334763 374.580231,156.016541 
	C367.707611,170.938477 351.025909,178.061066 335.724670,172.183121 
	C325.193298,168.137512 314.931488,163.390182 303.739838,158.610855 
	C309.737885,152.972504 315.338623,147.707581 321.199463,142.200867 
z"/>
<path fill="#525F70" opacity="1.000000" stroke="none" 
	d="
M452.977020,52.956161 
	C452.896027,52.877796 453.192535,52.749134 453.192535,52.749134 
	C453.192535,52.749134 453.306396,53.033119 453.264099,53.111263 
	C453.221771,53.189407 453.058014,53.034531 452.977020,52.956161 
z"/>
<path fill="#6C3329" opacity="1.000000" stroke="none" 
	d="
M137.410400,157.410248 
	C154.256760,140.565842 170.852356,123.970695 187.451202,107.378792 
	C188.510330,106.320122 189.521713,105.196587 190.680801,104.258217 
	C194.274292,101.349045 198.488312,101.423286 201.540802,104.358742 
	C204.706192,107.402771 204.802185,111.852760 201.745193,115.595703 
	C201.116104,116.365959 200.375168,117.046654 199.669525,117.752357 
	C174.954224,142.470047 150.239502,167.188309 125.511337,191.893127 
	C124.457642,192.945816 123.387222,194.049957 122.135040,194.823166 
	C118.100967,197.314133 113.728477,196.914841 111.202156,193.988022 
	C108.361160,190.696625 108.682602,186.576340 112.110260,182.748260 
	C112.886490,181.881348 113.739243,181.082565 114.562981,180.258636 
	C122.094658,172.725052 129.627716,165.192841 137.410400,157.410248 
z"/>
<path fill="#6A3229" opacity="1.000000" stroke="none" 
	d="
M148.518860,107.631149 
	C153.298264,118.339668 152.561478,128.196640 144.989288,136.852066 
	C138.092407,144.735550 129.048096,146.890549 119.086800,144.379929 
	C107.934616,141.569138 100.517319,131.710632 100.289742,120.152061 
	C100.066826,108.830261 107.578979,98.476738 118.336777,95.279007 
	C130.089066,91.785652 141.398804,96.322556 148.518860,107.631149 
z"/>
<path fill="#6B3229" opacity="1.000000" stroke="none" 
	d="
M180.666840,154.165329 
	C196.773239,152.564163 207.939774,159.624207 211.161209,173.086197 
	C214.356857,186.440399 206.350540,200.062057 193.100464,203.814148 
	C179.992020,207.526154 166.231903,200.204849 162.038071,187.286880 
	C157.723892,173.998199 164.413513,159.978027 177.385422,155.147308 
	C178.318344,154.799896 179.287506,154.549866 180.666840,154.165329 
z"/>
<path fill="#FBCA05" opacity="1.000000" stroke="none" 
	d="
M115.861923,119.160347 
	C117.390991,112.214790 121.541992,109.001694 127.441116,109.804214 
	C132.812820,110.534981 136.402618,115.124680 136.030258,120.785728 
	C135.674316,126.197083 131.679947,129.926086 126.178864,129.982666 
	C120.331436,130.042816 116.606186,126.290459 115.861923,119.160347 
z"/>
<path fill="#FBCA05" opacity="1.000000" stroke="none" 
	d="
M176.110977,180.062317 
	C177.644333,173.248703 181.072662,170.009415 186.333557,170.014145 
	C190.774078,170.018127 194.827393,173.023392 196.045380,177.214828 
	C197.691193,182.878433 194.417328,188.695618 188.841461,190.015137 
	C182.125885,191.604385 177.432648,188.083801 176.110977,180.062317 
z"/>
</svg>