<svg version="1.1" id="Layer_1" xmlns="http://www.w3.org/2000/svg" xmlns:xlink="http://www.w3.org/1999/xlink" x="0px" y="0px"
	 width="40px" height="32px" viewBox="0 0 512 512" enable-background="new 0 0 512 512" xml:space="preserve">
<path fill="#fff" opacity="1.000000" stroke="none" 
	d="
M513.000000,183.000000 
	C513.000000,293.306519 513.000000,403.113037 513.000000,512.959778 
	C342.401794,512.959778 171.803604,512.959778 1.102697,512.959778 
	C1.102697,342.443512 1.102697,171.886932 1.102697,1.165182 
	C171.666534,1.165182 342.333252,1.165182 513.000000,1.165182 
	C513.000000,61.529697 513.000000,122.014847 513.000000,183.000000 
M301.729858,464.028778 
	C301.789337,463.687103 301.848816,463.345459 302.357635,462.454437 
	C307.935333,450.396637 313.362762,438.265625 319.181030,426.325043 
	C320.959015,422.676208 323.379974,419.122070 326.236115,416.250214 
	C364.778717,377.495819 403.457153,338.876556 442.058014,300.179932 
	C443.267395,298.967529 444.770081,297.315552 444.831665,295.814941 
	C445.123535,288.702850 444.962006,281.572174 444.962006,274.227539 
	C441.848816,274.075989 439.114960,273.942902 435.887817,273.785828 
	C435.887817,233.869659 435.887817,194.329865 435.887817,154.362457 
	C401.608948,154.362457 367.867279,154.362457 333.759155,154.362457 
	C333.759155,120.158943 333.759155,86.388222 333.759155,52.425240 
	C302.340698,52.425240 271.295502,52.425240 239.963211,52.425240 
	C239.963211,54.700951 239.963242,56.680984 239.963242,58.661018 
	C239.963165,126.650352 239.968185,194.639694 239.959625,262.629028 
	C239.957336,280.830994 229.707291,291.067200 211.482758,291.071899 
	C168.822784,291.082886 126.162819,291.075500 83.502846,291.075562 
	C81.728508,291.075562 79.954178,291.075562 77.873550,291.075562 
	C77.873550,293.119049 77.873550,294.593353 77.873550,296.067688 
	C77.873558,361.057495 77.872383,426.047302 77.882042,491.037109 
	C77.882240,492.364441 78.008545,493.691772 78.000343,495.567352 
	C78.325371,495.650085 78.650391,495.732788 79.907028,495.951721 
	C108.989578,495.956512 138.072144,495.984985 167.154663,495.957184 
	C184.433594,495.940674 201.712463,495.835541 219.916092,495.945862 
	C291.849548,495.945862 363.782990,495.945862 436.279053,495.945862 
	C436.279053,461.622070 436.279053,427.753296 436.279053,393.768372 
	C439.449097,393.612213 442.063568,393.483398 444.747284,393.351196 
	C444.747284,385.637543 444.747284,378.253082 444.747284,370.868652 
	C444.315094,370.520111 443.882904,370.171600 443.450714,369.823090 
	C442.565521,371.195374 441.891510,372.778229 440.764099,373.909058 
	C414.411865,400.341461 388.014465,426.728882 361.607605,453.106812 
	C360.200775,454.512085 358.846008,456.203979 357.116516,457.015076 
	C341.773438,464.210022 326.435516,471.429230 310.908539,478.212006 
	C305.133972,480.734558 299.266327,475.789886 299.890839,469.501190 
	C300.067871,467.718750 300.811401,465.992584 301.113403,464.105682 
	C301.113403,464.105682 301.257965,464.279846 301.729858,464.028778 
M222.895966,180.061890 
	C222.908859,130.083969 222.924286,80.106041 222.932419,30.128113 
	C222.933960,20.590790 220.350220,18.026703 210.759415,18.026251 
	C150.619156,18.023415 90.478912,18.023678 30.338661,18.025988 
	C20.471563,18.026367 18.025955,20.497156 18.025742,30.459635 
	C18.024090,107.592422 18.024801,184.725220 18.025452,261.858002 
	C18.025461,263.024109 17.973082,264.194153 18.048811,265.355621 
	C18.397272,270.699829 21.609680,274.001648 27.039820,274.005035 
	C55.023132,274.022400 83.006523,273.919769 111.916054,274.025421 
	C145.389984,274.030884 178.863922,274.046783 212.337860,274.033203 
	C219.212250,274.030426 222.868637,271.061035 222.878082,264.901398 
	C222.920975,236.929077 222.795425,208.956512 222.895966,180.061890 
M373.541473,417.041473 
	C401.309631,389.268707 429.077759,361.495911 456.084747,334.484436 
	C452.185211,330.059326 448.592712,325.982666 444.883270,321.773285 
	C443.463776,323.131134 442.250916,324.247406 441.086212,325.411865 
	C407.392822,359.099518 373.753662,392.841614 339.975037,426.443573 
	C332.862091,433.519287 330.948273,443.026306 326.820221,451.642365 
	C337.879364,447.211090 348.988892,443.511993 356.892242,433.885590 
	C361.731598,427.991180 367.622650,422.960175 373.541473,417.041473 
M420.084015,133.502274 
	C397.295807,110.764931 374.507599,88.027580 351.193237,64.765236 
	C351.193237,89.428833 351.193237,113.261368 351.193237,137.145538 
	C375.232513,137.145538 398.992645,137.145538 423.581635,137.145538 
	C422.174164,135.660370 421.391144,134.834122 420.084015,133.502274 
M479.995575,286.442932 
	C478.096252,287.746246 476.196899,289.049561 473.975739,290.573700 
	C478.848267,295.306335 482.402374,298.769806 485.977020,302.211914 
	C486.317017,302.539307 486.785645,302.733093 487.169891,302.973480 
	C495.828766,295.811218 497.691284,291.211975 493.974121,286.289062 
	C490.735077,281.999359 485.768768,281.864624 479.995575,286.442932 
M468.566986,308.912628 
	C466.744965,307.112701 464.922974,305.312775 463.351379,303.760223 
	C460.880585,305.833252 458.987183,307.421906 457.782379,308.432739 
	C462.027039,312.747894 465.900757,316.685944 469.608246,320.455017 
	C471.231750,319.050812 473.105194,317.430420 474.904816,315.873901 
	C474.590240,315.280823 474.495911,314.946686 474.283386,314.726898 
	C472.557617,312.942505 470.809723,311.179596 468.566986,308.912628 
z"/>
<path fill="#DBF3C9" opacity="1.000000" stroke="none" 
	d="
M78.076012,495.019104 
	C78.008545,493.691772 77.882240,492.364441 77.882042,491.037109 
	C77.872383,426.047302 77.873558,361.057495 77.873550,296.067688 
	C77.873550,294.593353 77.873550,293.119049 77.873550,291.075562 
	C79.954178,291.075562 81.728508,291.075562 83.502846,291.075562 
	C126.162819,291.075500 168.822784,291.082886 211.482758,291.071899 
	C229.707291,291.067200 239.957336,280.830994 239.959625,262.629028 
	C239.968185,194.639694 239.963165,126.650352 239.963242,58.661018 
	C239.963242,56.680984 239.963211,54.700951 239.963211,52.425240 
	C271.295502,52.425240 302.340698,52.425240 333.759155,52.425240 
	C333.759155,86.388222 333.759155,120.158943 333.759155,154.362457 
	C367.867279,154.362457 401.608948,154.362457 435.887817,154.362457 
	C435.887817,194.329865 435.887817,233.869659 435.887817,273.785828 
	C439.114960,273.942902 441.848816,274.075989 444.962006,274.227539 
	C444.962006,281.572174 445.123535,288.702850 444.831665,295.814941 
	C444.770081,297.315552 443.267395,298.967529 442.058014,300.179932 
	C403.457153,338.876556 364.778717,377.495819 326.236115,416.250214 
	C323.379974,419.122070 320.959015,422.676208 319.181030,426.325043 
	C313.362762,438.265625 307.935333,450.396637 301.933411,462.888489 
	C301.425415,463.641632 301.341675,463.960724 301.257965,464.279846 
	C301.257965,464.279846 301.113403,464.105682 300.826660,464.141968 
	C299.306000,464.645874 298.052795,465.068420 296.841125,465.587891 
	C280.823456,472.454468 264.939423,479.656097 248.750381,486.090668 
	C239.076538,489.935699 228.927048,492.584015 218.991348,495.770264 
	C201.712463,495.835541 184.433594,495.940674 167.154663,495.957184 
	C138.072144,495.984985 108.989578,495.956512 79.328430,495.712524 
	C78.566376,495.260895 78.341774,495.109467 78.076012,495.019104 
M127.641060,442.834076 
	C144.276199,465.455963 166.663528,477.787079 194.664032,478.780151 
	C240.416275,480.402863 278.500427,445.821075 282.254791,399.929901 
	C286.967407,342.326172 232.643372,296.424896 176.718124,310.756378 
	C118.421677,325.695465 93.672760,391.416290 127.641060,442.834076 
M315.629822,248.381241 
	C313.196655,248.381241 310.763489,248.381241 308.468140,248.381241 
	C308.468140,254.505569 308.468140,259.893585 308.468140,265.234253 
	C342.700775,265.234253 376.554565,265.234253 410.307892,265.234253 
	C410.307892,259.456390 410.307892,254.072311 410.307892,248.381271 
	C378.800476,248.381271 347.698364,248.381271 315.629822,248.381241 
M322.508545,299.770081 
	C351.726593,299.770081 380.944641,299.770081 410.398621,299.770081 
	C410.398621,293.838562 410.398621,288.462128 410.398621,282.880859 
	C376.242981,282.880859 342.377350,282.880859 308.389282,282.880859 
	C308.389282,288.510498 308.389282,293.902740 308.389282,299.770081 
	C312.941010,299.770081 317.227478,299.770081 322.508545,299.770081 
M336.499542,231.353104 
	C361.074036,231.353104 385.648529,231.353104 410.378906,231.353104 
	C410.378906,225.449295 410.378906,220.065094 410.378906,214.513885 
	C376.234680,214.513885 342.400574,214.513885 308.371033,214.513885 
	C308.371033,220.181931 308.371033,225.564926 308.371033,231.353073 
	C317.584473,231.353073 326.541992,231.353073 336.499542,231.353104 
M400.453430,180.114853 
	C369.837494,180.114853 339.221527,180.114853 308.385345,180.114853 
	C308.385345,186.008804 308.385345,191.404816 308.385345,196.851379 
	C342.543640,196.851379 376.430267,196.851379 410.295624,196.851379 
	C410.295624,191.109680 410.295624,185.716537 410.295624,180.114853 
	C407.084442,180.114853 404.258575,180.114853 400.453430,180.114853 
M291.105988,257.479614 
	C291.105988,254.553741 291.105988,251.627884 291.105988,248.729523 
	C285.032013,248.729523 279.631104,248.729523 274.348999,248.729523 
	C274.348999,254.484589 274.348999,259.884949 274.348999,265.256897 
	C280.086884,265.256897 285.477539,265.256897 291.105988,265.256897 
	C291.105988,262.743011 291.105988,260.588989 291.105988,257.479614 
M291.063965,215.835861 
	C290.713989,215.328522 290.371857,214.385773 290.012817,214.379257 
	C284.759369,214.284088 279.503632,214.313843 274.348389,214.313843 
	C274.348389,220.303268 274.348389,225.685837 274.348389,231.028564 
	C280.068481,231.028564 285.459686,231.028564 291.085205,231.028564 
	C291.085205,226.064941 291.085205,221.422516 291.063965,215.835861 
M274.023895,292.456360 
	C274.023895,294.735474 274.023895,297.014557 274.023895,299.504028 
	C279.899872,299.504028 285.285919,299.504028 290.865601,299.504028 
	C290.865601,293.834381 290.865601,288.429993 290.865601,282.872955 
	C285.209961,282.872955 279.777649,282.872955 274.023895,282.872955 
	C274.023895,285.897827 274.023895,288.700958 274.023895,292.456360 
M279.572632,197.189316 
	C283.327179,197.189316 287.081726,197.189316 290.761780,197.189316 
	C290.761780,191.180389 290.761780,185.795319 290.761780,180.444305 
	C285.050934,180.444305 279.666504,180.444305 274.339569,180.444305 
	C274.339569,186.179153 274.339569,191.579697 274.339569,197.189224 
	C275.965881,197.189224 277.281128,197.189224 279.572632,197.189316 
z"/>
<path fill="#CCE2F2" opacity="1.000000" stroke="none" 
	d="
M110.989883,273.859009 
	C83.006523,273.919769 55.023132,274.022400 27.039820,274.005035 
	C21.609680,274.001648 18.397272,270.699829 18.048811,265.355621 
	C17.973082,264.194153 18.025461,263.024109 18.025452,261.858002 
	C18.024801,184.725220 18.024090,107.592422 18.025742,30.459635 
	C18.025955,20.497156 20.471563,18.026367 30.338661,18.025988 
	C90.478912,18.023678 150.619156,18.023415 210.759415,18.026251 
	C220.350220,18.026703 222.933960,20.590790 222.932419,30.128113 
	C222.924286,80.106041 222.908859,130.083969 222.464783,180.540161 
	C220.430817,183.194427 218.523560,185.209961 217.277725,187.574051 
	C211.772888,198.019913 206.025986,208.266220 196.877380,216.280579 
	C187.206192,215.677765 177.829529,214.414368 168.556168,214.947556 
	C160.471390,215.412430 154.994461,222.379181 154.800705,230.615005 
	C154.617981,238.382507 155.034866,246.164108 154.802811,253.962128 
	C150.539627,255.632370 146.661621,257.279999 142.890289,258.569885 
	C144.008057,254.599121 145.541885,251.037521 145.903778,247.360580 
	C146.406311,242.254440 146.092407,237.060837 146.015762,231.906326 
	C145.867401,221.930084 139.306305,214.872269 129.369736,214.343536 
	C123.565186,214.034683 117.722801,214.072754 111.912529,214.315735 
	C101.718018,214.742111 95.065666,221.802109 94.940079,232.049225 
	C94.878944,237.037811 94.903152,242.027908 94.933891,247.017044 
	C95.004570,258.487701 101.662170,265.260590 113.123688,265.543427 
	C117.766022,265.657990 122.408966,265.747742 126.837250,266.136780 
	C125.139389,267.103302 123.645645,267.760315 122.174461,268.464447 
	C118.440895,270.251404 114.717407,272.059418 110.989883,273.859009 
M160.499863,86.240578 
	C178.271683,86.240578 196.043503,86.240578 213.984497,86.240578 
	C213.984497,66.200500 213.984497,46.644375 213.984497,26.928688 
	C151.527084,26.928688 89.325920,26.928688 26.938591,26.928688 
	C26.938591,46.728928 26.938591,66.279037 26.938591,86.240578 
	C71.297821,86.240578 115.398834,86.240578 160.499863,86.240578 
M73.233521,214.889679 
	C65.602798,214.737091 57.929943,214.016739 50.352283,214.579117 
	C41.371475,215.245667 35.377876,222.328461 35.123356,231.384598 
	C34.959846,237.202438 34.923706,243.035126 35.139484,248.849701 
	C35.466293,257.656403 41.572765,264.547333 50.246273,265.219910 
	C57.183601,265.757874 64.230583,265.763641 71.166534,265.215912 
	C79.977577,264.520111 85.879967,257.780060 86.181145,248.869324 
	C86.360886,243.551743 86.279755,238.223404 86.234901,232.900589 
	C86.155418,223.467926 82.839272,218.649963 73.233521,214.889679 
M161.926834,202.730972 
	C164.056763,203.620422 166.160904,205.195526 168.321213,205.276718 
	C176.265915,205.575256 184.308380,206.071030 192.163345,205.173508 
	C200.066650,204.270447 205.326111,197.653290 205.750793,189.577087 
	C206.082336,183.272354 206.132858,176.915390 205.731033,170.618469 
	C205.144516,161.426865 198.301804,155.065918 189.017090,154.746811 
	C183.200165,154.546860 177.366074,154.543289 171.548569,154.729202 
	C161.684799,155.044388 155.062363,161.638123 154.733490,171.456421 
	C154.544189,177.107590 154.695023,182.770065 154.687485,188.427444 
	C154.679901,194.112534 156.832184,198.754013 161.926834,202.730972 
M94.930779,175.598969 
	C94.933662,179.932022 94.868271,184.266418 94.953377,188.597855 
	C95.142372,198.216431 101.883018,205.351852 111.496132,205.791565 
	C117.482948,206.065399 123.503815,206.072189 129.489502,205.784561 
	C139.091782,205.323181 145.825165,198.180481 145.999420,188.538284 
	C146.104782,182.707382 146.160934,176.868042 145.972672,171.041107 
	C145.685379,162.149597 139.033310,155.294235 130.162857,154.802216 
	C125.177658,154.525726 120.167152,154.679779 115.168091,154.684128 
	C101.150314,154.696289 94.998260,160.772583 94.930779,175.598969 
M66.340363,94.931381 
	C61.686947,94.933929 57.032249,94.867142 52.380386,94.953384 
	C42.564346,95.135384 35.425140,102.071114 35.126968,111.865662 
	C34.950054,117.676933 34.926968,123.504585 35.142349,129.313461 
	C35.495796,138.845840 42.626282,145.791931 52.137428,145.992767 
	C57.951580,146.115555 63.773697,146.139496 69.586449,145.987106 
	C78.908287,145.742661 85.814476,138.896896 86.168228,129.534073 
	C86.362633,124.389091 86.257805,119.231483 86.233208,114.079834 
	C86.173172,101.507568 79.827446,95.109085 66.340363,94.931381 
M86.192101,170.852600 
	C85.104584,160.802582 78.852074,154.928009 68.797035,154.707718 
	C63.148483,154.583954 57.488750,154.542023 51.844448,154.748016 
	C42.208763,155.099701 35.408493,161.988419 35.123955,171.643417 
	C34.957542,177.290161 34.970894,182.948990 35.119671,188.596680 
	C35.372738,198.203552 42.141602,205.317383 51.676941,205.781570 
	C57.646828,206.072174 63.651707,206.059875 69.623734,205.795761 
	C79.257103,205.369705 85.935059,198.417755 86.194878,188.733658 
	C86.346397,183.086044 86.229309,177.431244 86.192101,170.852600 
M143.591965,137.829712 
	C147.817413,127.374321 146.809082,116.560799 144.760513,106.016106 
	C143.476013,99.404381 136.655884,95.172058 129.742935,94.992332 
	C123.589874,94.832367 117.425201,94.811234 111.273232,94.989746 
	C102.272545,95.250916 95.267326,102.249863 94.992088,111.248535 
	C94.809013,117.233902 94.838066,123.231613 94.970337,129.219421 
	C95.180481,138.733505 102.266434,145.778473 111.807884,145.998474 
	C117.130371,146.121201 122.459297,145.948425 127.782829,146.045670 
	C134.251938,146.163834 139.418030,143.797043 143.591965,137.829712 
M154.933685,131.925644 
	C157.356155,141.324738 163.168747,145.944534 172.747818,146.020523 
	C177.900986,146.061386 183.055664,146.088791 188.208069,146.013535 
	C198.133118,145.868561 205.343140,139.166779 205.788361,129.387756 
	C206.060257,123.415695 206.071548,117.409760 205.782806,111.439209 
	C205.318863,101.845482 198.199509,95.126656 188.606369,94.957047 
	C182.955933,94.857140 177.300461,94.845314 171.650528,94.957947 
	C161.991028,95.150528 155.059494,101.886703 154.758240,111.591080 
	C154.557266,118.064880 154.797424,124.552376 154.933685,131.925644 
z"/>
<path fill="#C8ECAD" opacity="1.000000" stroke="none" 
	d="
M219.453720,495.858093 
	C228.927048,492.584015 239.076538,489.935699 248.750381,486.090668 
	C264.939423,479.656097 280.823456,472.454468 296.841125,465.587891 
	C298.052795,465.068420 299.306000,464.645874 300.917542,464.209442 
	C300.811401,465.992584 300.067871,467.718750 299.890839,469.501190 
	C299.266327,475.789886 305.133972,480.734558 310.908539,478.212006 
	C326.435516,471.429230 341.773438,464.210022 357.116516,457.015076 
	C358.846008,456.203979 360.200775,454.512085 361.607605,453.106812 
	C388.014465,426.728882 414.411865,400.341461 440.764099,373.909058 
	C441.891510,372.778229 442.565521,371.195374 443.450714,369.823090 
	C443.882904,370.171600 444.315094,370.520111 444.747284,370.868652 
	C444.747284,378.253082 444.747284,385.637543 444.747284,393.351196 
	C442.063568,393.483398 439.449097,393.612213 436.279053,393.768372 
	C436.279053,427.753296 436.279053,461.622070 436.279053,495.945862 
	C363.782990,495.945862 291.849548,495.945862 219.453720,495.858093 
z"/>
<path fill="#EA1C24" opacity="1.000000" stroke="none" 
	d="
M373.291443,417.291443 
	C367.622650,422.960175 361.731598,427.991180 356.892242,433.885590 
	C348.988892,443.511993 337.879364,447.211090 326.820221,451.642365 
	C330.948273,443.026306 332.862091,433.519287 339.975037,426.443573 
	C373.753662,392.841614 407.392822,359.099518 441.086212,325.411865 
	C442.250916,324.247406 443.463776,323.131134 444.883270,321.773285 
	C448.592712,325.982666 452.185211,330.059326 456.084747,334.484436 
	C429.077759,361.495911 401.309631,389.268707 373.291443,417.291443 
z"/>
<path fill="#006BED" opacity="1.000000" stroke="none" 
	d="
M420.346069,133.755081 
	C421.391144,134.834122 422.174164,135.660370 423.581635,137.145538 
	C398.992645,137.145538 375.232513,137.145538 351.193237,137.145538 
	C351.193237,113.261368 351.193237,89.428833 351.193237,64.765236 
	C374.507599,88.027580 397.295807,110.764931 420.346069,133.755081 
z"/>
<path fill="#C0DCF2" opacity="1.000000" stroke="none" 
	d="
M197.216782,216.400497 
	C206.025986,208.266220 211.772888,198.019913 217.277725,187.574051 
	C218.523560,185.209961 220.430817,183.194427 222.382019,181.001251 
	C222.795425,208.956512 222.920975,236.929077 222.878082,264.901398 
	C222.868637,271.061035 219.212250,274.030426 212.337860,274.033203 
	C178.863922,274.046783 145.389984,274.030884 111.452972,273.942200 
	C114.717407,272.059418 118.440895,270.251404 122.174461,268.464447 
	C123.645645,267.760315 125.139389,267.103302 127.207535,266.001343 
	C133.827301,265.700928 138.733521,263.279236 142.783600,258.927612 
	C146.661621,257.279999 150.539627,255.632370 155.059448,254.179459 
	C158.571457,261.394836 163.853119,265.174866 171.368805,265.472809 
	C177.343857,265.709717 183.352646,265.778809 189.317673,265.430084 
	C199.059540,264.860504 205.526810,258.008423 205.842392,248.246811 
	C205.998123,243.429810 205.745651,238.599503 205.906357,233.782837 
	C206.153778,226.367462 203.413681,220.545013 197.216782,216.400497 
z"/>
<path fill="#CBCDCE" opacity="1.000000" stroke="none" 
	d="
M480.267761,286.183716 
	C485.768768,281.864624 490.735077,281.999359 493.974121,286.289062 
	C497.691284,291.211975 495.828766,295.811218 487.169891,302.973480 
	C486.785645,302.733093 486.317017,302.539307 485.977020,302.211914 
	C482.402374,298.769806 478.848267,295.306335 473.975739,290.573700 
	C476.196899,289.049561 478.096252,287.746246 480.267761,286.183716 
z"/>
<path fill="#EF8F1C" opacity="1.000000" stroke="none" 
	d="
M468.817749,309.161377 
	C470.809723,311.179596 472.557617,312.942505 474.283386,314.726898 
	C474.495911,314.946686 474.590240,315.280823 474.904816,315.873901 
	C473.105194,317.430420 471.231750,319.050812 469.608246,320.455017 
	C465.900757,316.685944 462.027039,312.747894 457.782379,308.432739 
	C458.987183,307.421906 460.880585,305.833252 463.351379,303.760223 
	C464.922974,305.312775 466.744965,307.112701 468.817749,309.161377 
z"/>
<path fill="#C8ECAD" opacity="1.000000" stroke="none" 
	d="
M301.493896,464.154297 
	C301.341675,463.960724 301.425415,463.641632 301.708710,463.163147 
	C301.848816,463.345459 301.789337,463.687103 301.493896,464.154297 
z"/>
<path fill="#C8ECAD" opacity="1.000000" stroke="none" 
	d="
M78.038177,495.293213 
	C78.341774,495.109467 78.566376,495.260895 78.862625,495.644440 
	C78.650391,495.732788 78.325371,495.650085 78.038177,495.293213 
z"/>
<path fill="#030302" opacity="1.000000" stroke="none" 
	d="
M127.417938,442.549896 
	C93.672760,391.416290 118.421677,325.695465 176.718124,310.756378 
	C232.643372,296.424896 286.967407,342.326172 282.254791,399.929901 
	C278.500427,445.821075 240.416275,480.402863 194.664032,478.780151 
	C166.663528,477.787079 144.276199,465.455963 127.417938,442.549896 
M133.188583,369.821350 
	C131.808517,376.641815 129.484406,383.423523 129.202347,390.289093 
	C127.436478,433.274384 163.267029,466.127747 206.007477,461.132080 
	C244.144348,456.674500 271.775482,419.149597 264.482788,381.718842 
	C258.305023,350.010681 234.474014,328.586365 201.822235,325.386444 
	C173.318146,322.592957 145.021683,340.708405 133.188583,369.821350 
z"/>
<path fill="#0C0E0B" opacity="1.000000" stroke="none" 
	d="
M316.113037,248.381256 
	C347.698364,248.381271 378.800476,248.381271 410.307892,248.381271 
	C410.307892,254.072311 410.307892,259.456390 410.307892,265.234253 
	C376.554565,265.234253 342.700775,265.234253 308.468140,265.234253 
	C308.468140,259.893585 308.468140,254.505569 308.468140,248.381241 
	C310.763489,248.381241 313.196655,248.381241 316.113037,248.381256 
z"/>
<path fill="#050605" opacity="1.000000" stroke="none" 
	d="
M322.011261,299.770081 
	C317.227478,299.770081 312.941010,299.770081 308.389282,299.770081 
	C308.389282,293.902740 308.389282,288.510498 308.389282,282.880859 
	C342.377350,282.880859 376.242981,282.880859 410.398621,282.880859 
	C410.398621,288.462128 410.398621,293.838562 410.398621,299.770081 
	C380.944641,299.770081 351.726593,299.770081 322.011261,299.770081 
z"/>
<path fill="#050605" opacity="1.000000" stroke="none" 
	d="
M335.999512,231.353088 
	C326.541992,231.353073 317.584473,231.353073 308.371033,231.353073 
	C308.371033,225.564926 308.371033,220.181931 308.371033,214.513885 
	C342.400574,214.513885 376.234680,214.513885 410.378906,214.513885 
	C410.378906,220.065094 410.378906,225.449295 410.378906,231.353104 
	C385.648529,231.353104 361.074036,231.353104 335.999512,231.353088 
z"/>
<path fill="#040403" opacity="1.000000" stroke="none" 
	d="
M400.943085,180.114853 
	C404.258575,180.114853 407.084442,180.114853 410.295624,180.114853 
	C410.295624,185.716537 410.295624,191.109680 410.295624,196.851379 
	C376.430267,196.851379 342.543640,196.851379 308.385345,196.851379 
	C308.385345,191.404816 308.385345,186.008804 308.385345,180.114853 
	C339.221527,180.114853 369.837494,180.114853 400.943085,180.114853 
z"/>
<path fill="#0C0D0B" opacity="1.000000" stroke="none" 
	d="
M291.105988,257.957306 
	C291.105988,260.588989 291.105988,262.743011 291.105988,265.256897 
	C285.477539,265.256897 280.086884,265.256897 274.348999,265.256897 
	C274.348999,259.884949 274.348999,254.484589 274.348999,248.729523 
	C279.631104,248.729523 285.032013,248.729523 291.105988,248.729523 
	C291.105988,251.627884 291.105988,254.553741 291.105988,257.957306 
z"/>
<path fill="#050605" opacity="1.000000" stroke="none" 
	d="
M291.074585,216.307983 
	C291.085205,221.422516 291.085205,226.064941 291.085205,231.028564 
	C285.459686,231.028564 280.068481,231.028564 274.348389,231.028564 
	C274.348389,225.685837 274.348389,220.303268 274.348389,214.313843 
	C279.503632,214.313843 284.759369,214.284088 290.012817,214.379257 
	C290.371857,214.385773 290.713989,215.328522 291.074585,216.307983 
z"/>
<path fill="#050605" opacity="1.000000" stroke="none" 
	d="
M274.023895,291.980225 
	C274.023895,288.700958 274.023895,285.897827 274.023895,282.872955 
	C279.777649,282.872955 285.209961,282.872955 290.865601,282.872955 
	C290.865601,288.429993 290.865601,293.834381 290.865601,299.504028 
	C285.285919,299.504028 279.899872,299.504028 274.023895,299.504028 
	C274.023895,297.014557 274.023895,294.735474 274.023895,291.980225 
z"/>
<path fill="#030403" opacity="1.000000" stroke="none" 
	d="
M279.084503,197.189270 
	C277.281128,197.189224 275.965881,197.189224 274.339569,197.189224 
	C274.339569,191.579697 274.339569,186.179153 274.339569,180.444305 
	C279.666504,180.444305 285.050934,180.444305 290.761780,180.444305 
	C290.761780,185.795319 290.761780,191.180389 290.761780,197.189316 
	C287.081726,197.189316 283.327179,197.189316 279.084503,197.189270 
z"/>
<path fill="#020401" opacity="1.000000" stroke="none" 
	d="
M159.999847,86.240578 
	C115.398834,86.240578 71.297821,86.240578 26.938591,86.240578 
	C26.938591,66.279037 26.938591,46.728928 26.938591,26.928688 
	C89.325920,26.928688 151.527084,26.928688 213.984497,26.928688 
	C213.984497,46.644375 213.984497,66.200500 213.984497,86.240578 
	C196.043503,86.240578 178.271683,86.240578 159.999847,86.240578 
M181.497208,69.166679 
	C186.595749,69.166679 191.694290,69.166679 196.912018,69.166679 
	C196.912018,60.452877 196.912018,52.376099 196.912018,44.097038 
	C145.829773,44.097038 95.002602,44.097038 44.028740,44.097038 
	C44.028740,52.499374 44.028740,60.572800 44.028740,69.166718 
	C89.689850,69.166718 135.094193,69.166718 181.497208,69.166679 
z"/>
<path fill="#030405" opacity="1.000000" stroke="none" 
	d="
M196.877380,216.280579 
	C203.413681,220.545013 206.153778,226.367462 205.906357,233.782837 
	C205.745651,238.599503 205.998123,243.429810 205.842392,248.246811 
	C205.526810,258.008423 199.059540,264.860504 189.317673,265.430084 
	C183.352646,265.778809 177.343857,265.709717 171.368805,265.472809 
	C163.853119,265.174866 158.571457,261.394836 155.444641,254.156830 
	C155.034866,246.164108 154.617981,238.382507 154.800705,230.615005 
	C154.994461,222.379181 160.471390,215.412430 168.556168,214.947556 
	C177.829529,214.414368 187.206192,215.677765 196.877380,216.280579 
M187.741486,248.274338 
	C188.245255,242.853149 188.749023,237.431946 189.287354,231.638977 
	C182.906509,231.638977 177.539154,231.638977 172.127960,231.638977 
	C172.127960,237.356186 172.127960,242.729050 172.127960,248.452026 
	C177.286026,248.452026 182.075623,248.452026 187.741486,248.274338 
z"/>
<path fill="#030405" opacity="1.000000" stroke="none" 
	d="
M73.637115,214.959503 
	C82.839272,218.649963 86.155418,223.467926 86.234901,232.900589 
	C86.279755,238.223404 86.360886,243.551743 86.181145,248.869324 
	C85.879967,257.780060 79.977577,264.520111 71.166534,265.215912 
	C64.230583,265.763641 57.183601,265.757874 50.246273,265.219910 
	C41.572765,264.547333 35.466293,257.656403 35.139484,248.849701 
	C34.923706,243.035126 34.959846,237.202438 35.123356,231.384598 
	C35.377876,222.328461 41.371475,215.245667 50.352283,214.579117 
	C57.929943,214.016739 65.602798,214.737091 73.637115,214.959503 
M52.408905,232.086182 
	C52.408905,237.354126 52.408905,242.622070 52.408905,248.197830 
	C57.980640,248.197830 63.375328,248.197830 68.820076,248.197830 
	C68.820076,242.508484 68.820076,237.124756 68.820076,231.524033 
	C63.346863,231.524033 58.231804,231.524033 52.408905,232.086182 
z"/>
<path fill="#020304" opacity="1.000000" stroke="none" 
	d="
M161.638626,202.494049 
	C156.832184,198.754013 154.679901,194.112534 154.687485,188.427444 
	C154.695023,182.770065 154.544189,177.107590 154.733490,171.456421 
	C155.062363,161.638123 161.684799,155.044388 171.548569,154.729202 
	C177.366074,154.543289 183.200165,154.546860 189.017090,154.746811 
	C198.301804,155.065918 205.144516,161.426865 205.731033,170.618469 
	C206.132858,176.915390 206.082336,183.272354 205.750793,189.577087 
	C205.326111,197.653290 200.066650,204.270447 192.163345,205.173508 
	C184.308380,206.071030 176.265915,205.575256 168.321213,205.276718 
	C166.160904,205.195526 164.056763,203.620422 161.638626,202.494049 
M173.627182,171.795303 
	C173.016296,172.414993 171.894852,173.019302 171.875641,173.656799 
	C171.728043,178.554733 171.794495,183.459106 171.794495,188.453430 
	C177.773270,188.453430 183.118271,188.453430 188.579025,188.453430 
	C188.579025,182.842758 188.579025,177.615143 188.579025,171.760498 
	C183.759521,171.760498 179.182404,171.760498 173.627182,171.795303 
z"/>
<path fill="#020203" opacity="1.000000" stroke="none" 
	d="
M94.930901,175.118118 
	C94.998260,160.772583 101.150314,154.696289 115.168091,154.684128 
	C120.167152,154.679779 125.177658,154.525726 130.162857,154.802216 
	C139.033310,155.294235 145.685379,162.149597 145.972672,171.041107 
	C146.160934,176.868042 146.104782,182.707382 145.999420,188.538284 
	C145.825165,198.180481 139.091782,205.323181 129.489502,205.784561 
	C123.503815,206.072189 117.482948,206.065399 111.496132,205.791565 
	C101.883018,205.351852 95.142372,198.216431 94.953377,188.597855 
	C94.868271,184.266418 94.933662,179.932022 94.930901,175.118118 
M118.542435,171.759338 
	C116.460670,171.759338 114.378914,171.759338 112.372101,171.759338 
	C112.372101,177.842819 112.372101,183.203598 112.372101,188.551071 
	C118.029579,188.551071 123.274864,188.551071 128.699524,188.551071 
	C128.699524,182.895447 128.699524,177.518478 128.699524,171.759216 
	C125.441628,171.759216 122.481812,171.759216 118.542435,171.759338 
z"/>
<path fill="#010202" opacity="1.000000" stroke="none" 
	d="
M66.813995,94.931488 
	C79.827446,95.109085 86.173172,101.507568 86.233208,114.079834 
	C86.257805,119.231483 86.362633,124.389091 86.168228,129.534073 
	C85.814476,138.896896 78.908287,145.742661 69.586449,145.987106 
	C63.773697,146.139496 57.951580,146.115555 52.137428,145.992767 
	C42.626282,145.791931 35.495796,138.845840 35.142349,129.313461 
	C34.926968,123.504585 34.950054,117.676933 35.126968,111.865662 
	C35.425140,102.071114 42.564346,95.135384 52.380386,94.953384 
	C57.032249,94.867142 61.686947,94.933929 66.813995,94.931488 
M54.783535,128.995743 
	C59.527657,128.995743 64.271774,128.995743 68.900658,128.995743 
	C68.900658,122.942139 68.900658,117.681824 68.900658,112.297699 
	C63.247997,112.297699 57.875412,112.297699 52.144718,112.297699 
	C52.144718,117.415596 52.078602,122.209686 52.220222,126.997627 
	C52.240108,127.669914 53.277161,128.312134 54.783535,128.995743 
z"/>
<path fill="#020303" opacity="1.000000" stroke="none" 
	d="
M86.212585,171.316132 
	C86.229309,177.431244 86.346397,183.086044 86.194878,188.733658 
	C85.935059,198.417755 79.257103,205.369705 69.623734,205.795761 
	C63.651707,206.059875 57.646828,206.072174 51.676941,205.781570 
	C42.141602,205.317383 35.372738,198.203552 35.119671,188.596680 
	C34.970894,182.948990 34.957542,177.290161 35.123955,171.643417 
	C35.408493,161.988419 42.208763,155.099701 51.844448,154.748016 
	C57.488750,154.542023 63.148483,154.583954 68.797035,154.707718 
	C78.852074,154.928009 85.104584,160.802582 86.212585,171.316132 
M68.851189,188.107727 
	C68.851189,182.734039 68.851189,177.360336 68.851189,172.046143 
	C63.118393,172.046143 57.878586,172.046143 52.459461,172.046143 
	C52.459461,177.693863 52.459461,183.046249 52.459461,188.681885 
	C57.901894,188.681885 63.003872,188.681885 68.851189,188.107727 
z"/>
<path fill="#010102" opacity="1.000000" stroke="none" 
	d="
M143.363037,138.131744 
	C139.418030,143.797043 134.251938,146.163834 127.782829,146.045670 
	C122.459297,145.948425 117.130371,146.121201 111.807884,145.998474 
	C102.266434,145.778473 95.180481,138.733505 94.970337,129.219421 
	C94.838066,123.231613 94.809013,117.233902 94.992088,111.248535 
	C95.267326,102.249863 102.272545,95.250916 111.273232,94.989746 
	C117.425201,94.811234 123.589874,94.832367 129.742935,94.992332 
	C136.655884,95.172058 143.476013,99.404381 144.760513,106.016106 
	C146.809082,116.560799 147.817413,127.374321 143.363037,138.131744 
M127.228340,128.974762 
	C127.794983,128.517136 128.843338,128.070694 128.854263,127.600159 
	C128.972717,122.501839 128.928268,117.399742 128.928268,112.330093 
	C122.983498,112.330093 117.594254,112.330093 112.379410,112.330093 
	C112.379410,118.089661 112.379410,123.480957 112.379410,128.992828 
	C117.283859,128.992828 121.779190,128.992828 127.228340,128.974762 
z"/>
<path fill="#020203" opacity="1.000000" stroke="none" 
	d="
M154.886917,131.479691 
	C154.797424,124.552376 154.557266,118.064880 154.758240,111.591080 
	C155.059494,101.886703 161.991028,95.150528 171.650528,94.957947 
	C177.300461,94.845314 182.955933,94.857140 188.606369,94.957047 
	C198.199509,95.126656 205.318863,101.845482 205.782806,111.439209 
	C206.071548,117.409760 206.060257,123.415695 205.788361,129.387756 
	C205.343140,139.166779 198.133118,145.868561 188.208069,146.013535 
	C183.055664,146.088791 177.900986,146.061386 172.747818,146.020523 
	C163.168747,145.944534 157.356155,141.324738 154.886917,131.479691 
M183.360123,111.963272 
	C179.599945,111.963272 175.839767,111.963272 172.152191,111.963272 
	C172.152191,118.002625 172.152191,123.370499 172.152191,128.748688 
	C177.798538,128.748688 183.047958,128.748688 188.513763,128.748688 
	C188.513763,123.121910 188.513763,117.749718 188.513763,112.190178 
	C186.913254,112.103790 185.613266,112.033623 183.360123,111.963272 
z"/>
<path fill="#030304" opacity="1.000000" stroke="none" 
	d="
M142.890289,258.569885 
	C138.733521,263.279236 133.827301,265.700928 127.421928,265.713318 
	C122.408966,265.747742 117.766022,265.657990 113.123688,265.543427 
	C101.662170,265.260590 95.004570,258.487701 94.933891,247.017044 
	C94.903152,242.027908 94.878944,237.037811 94.940079,232.049225 
	C95.065666,221.802109 101.718018,214.742111 111.912529,214.315735 
	C117.722801,214.072754 123.565186,214.034683 129.369736,214.343536 
	C139.306305,214.872269 145.867401,221.930084 146.015762,231.906326 
	C146.092407,237.060837 146.406311,242.254440 145.903778,247.360580 
	C145.541885,251.037521 144.008057,254.599121 142.890289,258.569885 
M111.963104,235.713776 
	C111.963104,239.824173 111.963104,243.934570 111.963104,248.150345 
	C117.927544,248.150345 123.326187,248.150345 128.603882,248.150345 
	C128.603882,242.399323 128.603882,237.008362 128.603882,231.316513 
	C123.731071,231.316513 119.235863,231.106415 114.788475,231.474258 
	C113.762970,231.559082 112.901253,233.624115 111.963104,235.713776 
z"/>
<path fill="#FC9611" opacity="1.000000" stroke="none" 
	d="
M133.352707,369.468506 
	C145.021683,340.708405 173.318146,322.592957 201.822235,325.386444 
	C234.474014,328.586365 258.305023,350.010681 264.482788,381.718842 
	C271.775482,419.149597 244.144348,456.674500 206.007477,461.132080 
	C163.267029,466.127747 127.436478,433.274384 129.202347,390.289093 
	C129.484406,383.423523 131.808517,376.641815 133.352707,369.468506 
M231.185287,408.756622 
	C230.542480,401.188477 226.393509,395.793243 220.378220,391.663605 
	C213.581360,386.997345 205.869217,385.559723 197.762817,384.846008 
	C192.949478,384.422241 187.931534,383.101288 183.631775,380.938690 
	C178.996246,378.607300 179.247238,375.140564 183.319260,371.976349 
	C191.598557,365.542847 206.960724,366.991608 213.844223,374.809326 
	C214.433945,375.479095 215.324997,376.303558 216.096405,376.325012 
	C221.031982,376.462311 225.973251,376.395050 231.455063,376.395050 
	C229.565659,360.584900 218.614838,355.124451 205.592682,351.377747 
	C205.592682,348.315765 205.592682,345.418701 205.592682,342.526917 
	C199.787796,342.526917 194.524078,342.526917 189.027695,342.526917 
	C188.880066,345.732758 188.744812,348.669647 188.644363,350.850922 
	C183.417450,353.267365 178.410812,354.871399 174.188766,357.662323 
	C159.385132,367.448059 159.429153,385.224762 174.031784,395.282593 
	C180.670334,399.855011 188.176590,401.387115 196.110748,402.174103 
	C201.248932,402.683807 206.553986,404.074951 211.192444,406.303131 
	C215.425232,408.336456 215.085281,412.068085 211.320526,415.062195 
	C203.275314,421.460510 187.803497,420.036865 180.769592,412.297424 
	C180.156921,411.623291 179.248413,410.796204 178.457291,410.774628 
	C173.398499,410.636658 168.334091,410.704315 163.230362,410.704315 
	C164.426544,423.507782 170.836914,429.664612 188.597092,435.680664 
	C188.744324,438.509186 188.896652,441.435730 189.054672,444.471802 
	C194.768173,444.471802 200.154922,444.471802 205.678192,444.471802 
	C205.831772,441.186371 205.969391,438.242096 206.101700,435.411469 
	C223.368591,430.626770 230.901306,422.829285 231.185287,408.756622 
z"/>
<path fill="#88F236" opacity="1.000000" stroke="none" 
	d="
M180.997864,69.166702 
	C135.094193,69.166718 89.689850,69.166718 44.028740,69.166718 
	C44.028740,60.572800 44.028740,52.499374 44.028740,44.097038 
	C95.002602,44.097038 145.829773,44.097038 196.912018,44.097038 
	C196.912018,52.376099 196.912018,60.452877 196.912018,69.166679 
	C191.694290,69.166679 186.595749,69.166679 180.997864,69.166702 
z"/>
<path fill="#0069E7" opacity="1.000000" stroke="none" 
	d="
M187.303360,248.363190 
	C182.075623,248.452026 177.286026,248.452026 172.127960,248.452026 
	C172.127960,242.729050 172.127960,237.356186 172.127960,231.638977 
	C177.539154,231.638977 182.906509,231.638977 189.287354,231.638977 
	C188.749023,237.431946 188.245255,242.853149 187.303360,248.363190 
z"/>
<path fill="#0069E8" opacity="1.000000" stroke="none" 
	d="
M52.762825,231.805115 
	C58.231804,231.524033 63.346863,231.524033 68.820076,231.524033 
	C68.820076,237.124756 68.820076,242.508484 68.820076,248.197830 
	C63.375328,248.197830 57.980640,248.197830 52.408905,248.197830 
	C52.408905,242.622070 52.408905,237.354126 52.762825,231.805115 
z"/>
<path fill="#006AE9" opacity="1.000000" stroke="none" 
	d="
M174.116241,171.777893 
	C179.182404,171.760498 183.759521,171.760498 188.579025,171.760498 
	C188.579025,177.615143 188.579025,182.842758 188.579025,188.453430 
	C183.118271,188.453430 177.773270,188.453430 171.794495,188.453430 
	C171.794495,183.459106 171.728043,178.554733 171.875641,173.656799 
	C171.894852,173.019302 173.016296,172.414993 174.116241,171.777893 
z"/>
<path fill="#006BEC" opacity="1.000000" stroke="none" 
	d="
M119.032211,171.759277 
	C122.481812,171.759216 125.441628,171.759216 128.699524,171.759216 
	C128.699524,177.518478 128.699524,182.895447 128.699524,188.551071 
	C123.274864,188.551071 118.029579,188.551071 112.372101,188.551071 
	C112.372101,183.203598 112.372101,177.842819 112.372101,171.759338 
	C114.378914,171.759338 116.460670,171.759338 119.032211,171.759277 
z"/>
<path fill="#006CED" opacity="1.000000" stroke="none" 
	d="
M54.313461,128.981995 
	C53.277161,128.312134 52.240108,127.669914 52.220222,126.997627 
	C52.078602,122.209686 52.144718,117.415596 52.144718,112.297699 
	C57.875412,112.297699 63.247997,112.297699 68.900658,112.297699 
	C68.900658,117.681824 68.900658,122.942139 68.900658,128.995743 
	C64.271774,128.995743 59.527657,128.995743 54.313461,128.981995 
z"/>
<path fill="#006AE9" opacity="1.000000" stroke="none" 
	d="
M68.478516,188.394806 
	C63.003872,188.681885 57.901894,188.681885 52.459461,188.681885 
	C52.459461,183.046249 52.459461,177.693863 52.459461,172.046143 
	C57.878586,172.046143 63.118393,172.046143 68.851189,172.046143 
	C68.851189,177.360336 68.851189,182.734039 68.478516,188.394806 
z"/>
<path fill="#006DF0" opacity="1.000000" stroke="none" 
	d="
M126.751434,128.983795 
	C121.779190,128.992828 117.283859,128.992828 112.379410,128.992828 
	C112.379410,123.480957 112.379410,118.089661 112.379410,112.330093 
	C117.594254,112.330093 122.983498,112.330093 128.928268,112.330093 
	C128.928268,117.399742 128.972717,122.501839 128.854263,127.600159 
	C128.843338,128.070694 127.794983,128.517136 126.751434,128.983795 
z"/>
<path fill="#006BEC" opacity="1.000000" stroke="none" 
	d="
M183.836700,111.963364 
	C185.613266,112.033623 186.913254,112.103790 188.513763,112.190178 
	C188.513763,117.749718 188.513763,123.121910 188.513763,128.748688 
	C183.047958,128.748688 177.798538,128.748688 172.152191,128.748688 
	C172.152191,123.370499 172.152191,118.002625 172.152191,111.963272 
	C175.839767,111.963272 179.599945,111.963272 183.836700,111.963364 
z"/>
<path fill="#006AEA" opacity="1.000000" stroke="none" 
	d="
M111.963631,235.245850 
	C112.901253,233.624115 113.762970,231.559082 114.788475,231.474258 
	C119.235863,231.106415 123.731071,231.316513 128.603882,231.316513 
	C128.603882,237.008362 128.603882,242.399323 128.603882,248.150345 
	C123.326187,248.150345 117.927544,248.150345 111.963104,248.150345 
	C111.963104,243.934570 111.963104,239.824173 111.963631,235.245850 
z"/>
<path fill="#040200" opacity="1.000000" stroke="none" 
	d="
M231.214172,409.200439 
	C230.901306,422.829285 223.368591,430.626770 206.101700,435.411469 
	C205.969391,438.242096 205.831772,441.186371 205.678192,444.471802 
	C200.154922,444.471802 194.768173,444.471802 189.054672,444.471802 
	C188.896652,441.435730 188.744324,438.509186 188.597092,435.680664 
	C170.836914,429.664612 164.426544,423.507782 163.230362,410.704315 
	C168.334091,410.704315 173.398499,410.636658 178.457291,410.774628 
	C179.248413,410.796204 180.156921,411.623291 180.769592,412.297424 
	C187.803497,420.036865 203.275314,421.460510 211.320526,415.062195 
	C215.085281,412.068085 215.425232,408.336456 211.192444,406.303131 
	C206.553986,404.074951 201.248932,402.683807 196.110748,402.174103 
	C188.176590,401.387115 180.670334,399.855011 174.031784,395.282593 
	C159.429153,385.224762 159.385132,367.448059 174.188766,357.662323 
	C178.410812,354.871399 183.417450,353.267365 188.644363,350.850922 
	C188.744812,348.669647 188.880066,345.732758 189.027695,342.526917 
	C194.524078,342.526917 199.787796,342.526917 205.592682,342.526917 
	C205.592682,345.418701 205.592682,348.315765 205.592682,351.377747 
	C218.614838,355.124451 229.565659,360.584900 231.455063,376.395050 
	C225.973251,376.395050 221.031982,376.462311 216.096405,376.325012 
	C215.324997,376.303558 214.433945,375.479095 213.844223,374.809326 
	C206.960724,366.991608 191.598557,365.542847 183.319260,371.976349 
	C179.247238,375.140564 178.996246,378.607300 183.631775,380.938690 
	C187.931534,383.101288 192.949478,384.422241 197.762817,384.846008 
	C205.869217,385.559723 213.581360,386.997345 220.378220,391.663605 
	C226.393509,395.793243 230.542480,401.188477 231.214172,409.200439 
z"/>
</svg>