<svg version="1.1" id="Layer_1" xmlns="http://www.w3.org/2000/svg" xmlns:xlink="http://www.w3.org/1999/xlink" x="0px" y="0px"
	 width="2.5rem" height="2rem" viewBox="0 0 512 512" enable-background="new 0 0 512 512" xml:space="preserve">
<path fill="#fff" opacity="1.000000" stroke="none" 
	d="
M1.000000,178.000000 
	C1.000000,120.000000 1.038802,62.499908 0.902942,5.000229 
	C0.894849,1.575253 1.576367,0.903139 5.000061,0.905342 
	C172.999985,1.013444 341.000000,1.013444 508.999939,0.905342 
	C512.423645,0.903139 513.096802,1.576367 513.094604,5.000061 
	C512.986511,172.999985 512.986511,341.000000 513.094604,508.999939 
	C513.096802,512.423645 512.423645,513.096802 508.999939,513.094604 
	C341.000000,512.986511 172.999985,512.986511 5.000061,513.094604 
	C1.576367,513.096802 0.901053,512.423889 0.904652,508.999908 
	C1.020439,398.833374 1.000000,288.666656 1.000000,178.000000 
z"/>
<path fill="#F87E84" opacity="1.000000" stroke="none" 
	d="
M430.401917,496.793457 
	C427.677795,498.317505 425.129852,497.988647 422.656677,497.989075 
	C312.185852,498.008392 201.715012,498.020966 91.244179,497.992004 
	C71.262619,497.986786 57.264839,484.085449 57.218048,464.046783 
	C57.120773,422.391327 57.153061,380.735443 57.229401,339.079926 
	C57.239426,333.610565 57.160423,328.521210 50.330051,327.168640 
	C48.657185,326.837433 49.018833,325.505493 49.007759,324.409637 
	C48.975765,321.244141 48.974209,318.077911 49.000439,314.912292 
	C49.031918,311.113007 47.871834,307.177704 53.700718,305.738739 
	C57.325256,304.843964 57.209267,300.604950 57.206429,297.169952 
	C57.175423,259.679871 57.199944,222.189758 57.172874,184.699692 
	C57.169357,179.828186 57.512970,174.996246 59.372635,170.475662 
	C64.863075,157.129211 75.015411,150.224747 89.324829,149.290878 
	C90.984581,149.182571 92.656029,149.242569 94.322052,149.242554 
	C202.793411,149.240845 311.264771,149.235382 419.736145,149.268768 
	C422.886047,149.269745 426.035858,149.683167 429.584503,150.026550 
	C442.332672,156.204742 445.330688,167.657120 447.073334,179.817703 
	C447.237701,180.964737 447.159088,182.144791 447.159454,183.309906 
	C447.188721,277.019318 447.173004,370.728760 447.185272,464.438171 
	C447.186218,471.759613 445.464050,478.535767 442.087158,485.021484 
	C439.463654,490.060303 436.040344,494.143524 430.401917,496.793457 
z"/>
<path fill="#62D7F8" opacity="1.000000" stroke="none" 
	d="
M174.042114,122.351181 
	C173.636810,107.987396 173.491486,94.033455 173.416367,80.079147 
	C173.363541,70.267876 173.547714,60.452957 173.330475,50.646217 
	C173.253342,47.163494 174.264954,45.850319 177.794296,46.206833 
	C182.821426,46.714649 186.659393,45.088718 187.965515,39.248371 
	C194.287064,35.385204 200.660858,36.315041 207.418747,38.532143 
	C209.422607,44.964787 211.042328,46.232460 217.689331,46.236359 
	C256.604858,46.259190 295.521027,46.354836 334.435120,46.118378 
	C339.443451,46.087940 340.355499,47.576534 340.303589,52.216835 
	C340.046844,75.164085 340.167053,98.115547 340.058990,121.524681 
	C338.031250,124.436005 335.254242,124.149826 332.623413,124.162872 
	C316.663208,124.242027 300.702789,124.195671 284.742462,124.197243 
	C250.826706,124.200592 216.910904,124.226280 182.995270,124.158653 
	C180.073196,124.152824 176.959320,124.813065 174.042114,122.351181 
z"/>
<path fill="#DCF5FF" opacity="1.000000" stroke="none" 
	d="
M207.853180,38.525978 
	C201.514374,38.894604 195.261215,38.903126 188.544708,38.904205 
	C186.211700,32.733665 184.412933,31.318361 178.245453,31.255754 
	C174.754318,31.220316 171.261887,31.207573 167.771149,31.259377 
	C160.924942,31.360975 158.436981,33.951679 158.422867,41.224628 
	C158.381866,62.339836 158.411896,83.455170 158.405487,104.570450 
	C158.403824,110.056679 158.370819,115.542885 158.223770,121.477570 
	C153.535065,125.356163 148.770203,124.820068 143.601990,122.264900 
	C143.217056,93.838799 143.147827,65.805016 143.088730,37.771214 
	C143.074738,31.134798 143.094696,24.498316 143.164368,17.392380 
	C143.324081,16.778196 143.418472,16.633497 143.720886,16.334251 
	C145.423950,16.119997 146.919006,16.008226 148.414062,16.008051 
	C220.742691,15.999503 293.071442,16.052458 365.399628,15.878143 
	C369.982208,15.867098 370.768036,17.166916 370.743408,21.399029 
	C370.550507,54.562229 370.617401,87.726944 370.508362,121.336517 
	C365.799072,125.678436 360.903442,124.653793 355.656189,122.219513 
	C355.306335,95.357994 355.248352,68.887856 355.193848,42.417709 
	C355.174896,33.212032 353.245178,31.251633 344.122467,31.250826 
	C302.163788,31.247108 260.205109,31.244928 218.246429,31.253502 
	C211.441040,31.254892 209.702805,32.447613 207.853180,38.525978 
z"/>
<path fill="#F9626E" opacity="1.000000" stroke="none" 
	d="
M430.397217,497.090515 
	C434.173492,492.122711 438.761322,487.558899 441.386810,481.426483 
	C443.585693,476.290649 444.985107,471.063110 444.986359,465.510254 
	C445.007721,371.134003 445.046600,276.757660 444.948822,182.381531 
	C444.935730,169.743652 439.511261,159.276520 430.162903,150.422363 
	C444.247314,152.654465 455.485443,164.470001 456.081573,178.892990 
	C456.776398,195.702637 456.652130,212.548218 456.752014,229.378983 
	C456.778748,233.886475 457.451630,237.763474 462.528107,239.107452 
	C464.443481,239.614517 463.953003,241.108261 463.978546,242.333496 
	C464.044556,245.498703 463.967407,248.666656 464.010590,251.832657 
	C464.063477,255.710739 464.889465,259.521729 459.478882,261.245697 
	C456.406982,262.224487 456.401794,266.059784 456.402222,269.130066 
	C456.403900,281.963043 456.401093,294.796021 456.400879,307.628998 
	C456.400055,359.460938 456.429352,411.292877 456.382660,463.124786 
	C456.366547,481.007507 446.930908,493.420685 430.397217,497.090515 
z"/>
<path fill="#69BBF1" opacity="1.000000" stroke="none" 
	d="
M173.607513,122.385841 
	C228.845093,121.957634 283.938019,121.973778 339.497314,121.986877 
	C340.898651,134.260590 340.898651,134.260605 328.877930,134.260605 
	C279.323151,134.260605 229.768356,134.276627 180.213608,134.243973 
	C172.434845,134.238846 173.500595,135.314713 173.401657,127.318314 
	C173.383163,125.822754 173.440521,124.326256 173.607513,122.385841 
z"/>
<path fill="#8FBCCA" opacity="1.000000" stroke="none" 
	d="
M355.244324,122.288155 
	C360.097198,121.862907 364.831421,121.897667 369.989136,121.857132 
	C370.513336,122.098816 370.683746,122.411293 370.704620,122.733452 
	C371.456818,134.337112 368.805786,136.565811 357.164154,134.402832 
	C355.377686,134.070892 355.049408,133.245010 355.076324,131.740799 
	C355.130005,128.743912 355.113281,125.745781 355.244324,122.288155 
z"/>
<path fill="#A4DCEC" opacity="1.000000" stroke="none" 
	d="
M143.190277,122.339722 
	C147.905960,121.892418 152.529358,121.912254 157.624023,121.929062 
	C159.454407,134.656540 159.455978,134.575378 146.727844,134.328217 
	C144.030151,134.275833 142.748260,133.743759 143.024673,130.769379 
	C143.269409,128.135681 143.090088,125.462570 143.190277,122.339722 
z"/>
<path fill="#A4DCEC" opacity="1.000000" stroke="none" 
	d="
M143.687286,16.140421 
	C143.854065,16.409943 143.726944,16.606340 143.388641,16.845896 
	C142.989075,16.566666 143.061066,16.292746 143.687286,16.140421 
z"/>
<path fill="#030302" opacity="1.000000" stroke="none" 
	d="
M347.456482,250.224304 
	C349.863708,250.361008 351.852661,250.550949 353.841797,250.552887 
	C376.675049,250.575104 399.508484,250.510300 422.341431,250.594299 
	C434.044006,250.637344 441.060547,257.650513 441.066376,269.248566 
	C441.098999,334.081635 441.095886,398.914703 441.069092,463.747772 
	C441.064209,475.545563 433.910126,482.725311 422.055176,482.728546 
	C311.888977,482.758575 201.722763,482.760345 91.556557,482.726898 
	C79.891724,482.723358 72.696930,475.693451 72.685272,464.125519 
	C72.619804,399.125854 72.618706,334.126068 72.684746,269.126404 
	C72.696594,257.467010 79.737015,250.633041 91.517319,250.587006 
	C116.349327,250.489944 141.181763,250.504333 166.460846,250.350342 
	C171.230301,248.566360 175.754349,248.849426 180.243423,248.890945 
	C183.473251,248.920822 186.375381,248.289291 189.236130,246.522614 
	C207.558594,235.207458 227.395386,229.012482 249.026932,227.697128 
	C272.216248,226.287048 293.942932,230.792511 314.675140,240.913406 
	C316.173462,241.644836 317.627563,242.442337 319.015411,243.377640 
	C324.960663,247.384415 331.307678,249.901672 338.696869,248.921112 
	C341.545319,248.543121 344.317322,249.365036 347.456482,250.224304 
z"/>
<path fill="#020304" opacity="1.000000" stroke="none" 
	d="
M332.150024,237.770889 
	C326.022156,231.701233 324.640991,224.431473 324.967560,216.224731 
	C325.397552,205.418060 325.033508,194.581223 325.084534,183.757690 
	C325.140686,171.851974 332.136200,164.790421 344.011719,164.767502 
	C370.155151,164.717026 396.298859,164.713409 422.442261,164.771194 
	C434.096405,164.796967 441.019531,171.780685 441.070770,183.450729 
	C441.127045,196.272461 441.144318,209.095047 441.063263,221.916519 
	C440.993591,232.929565 433.974518,240.100601 422.969238,240.142426 
	C396.326538,240.243668 369.683167,240.155914 343.040131,240.192444 
	C339.429504,240.197388 336.151215,239.255585 332.672974,237.490051 
	C332.204498,237.690033 332.131317,237.865265 332.150024,237.770889 
z"/>
<path fill="#020202" opacity="1.000000" stroke="none" 
	d="
M131.978012,200.000122 
	C131.977768,207.498138 132.022552,214.496582 131.967041,221.494232 
	C131.877060,232.837814 124.879730,240.010956 113.686882,240.154953 
	C106.023598,240.253555 98.356895,240.255844 90.693710,240.153168 
	C80.077209,240.010925 72.875931,233.366898 72.648750,222.892960 
	C72.352539,209.236877 72.350533,195.564590 72.649307,181.908630 
	C72.873428,171.664825 80.042343,164.943893 90.295181,164.782990 
	C98.291008,164.657501 106.292267,164.649139 114.287712,164.786621 
	C124.601624,164.963959 131.749847,172.173569 131.952316,182.505341 
	C132.063278,188.168274 131.975937,193.835098 131.978012,200.000122 
z"/>
<path fill="#EF606B" opacity="1.000000" stroke="none" 
	d="
M347.660583,250.054932 
	C341.568939,250.368866 335.262512,250.450134 328.957947,250.606979 
	C326.967255,250.656509 325.527100,249.542618 323.954681,248.625626 
	C279.228607,222.543320 234.487549,222.576248 189.791595,248.661285 
	C187.542511,249.973862 185.383606,250.713989 182.782730,250.635315 
	C177.798111,250.484558 172.807159,250.542862 167.363251,250.371063 
	C177.317612,240.477158 189.432480,233.460052 202.436569,227.783127 
	C223.934753,218.398071 246.509323,215.346085 269.642517,217.210495 
	C290.785889,218.914551 310.464569,225.893188 328.825500,236.531052 
	C329.660583,237.014877 330.619324,237.285294 331.881165,237.578186 
	C332.241882,237.501266 332.226379,237.561508 332.252014,237.538147 
	C335.351837,242.204193 340.705872,244.151627 344.657166,247.790176 
	C345.502686,248.568771 346.512421,249.169067 347.660583,250.054932 
z"/>
<path fill="#060303" opacity="1.000000" stroke="none" 
	d="
M269.999817,164.743195 
	C275.818848,164.746353 281.139587,164.670227 286.456665,164.776169 
	C291.263336,164.871948 294.394318,167.617203 294.653931,171.706223 
	C294.920532,175.904755 291.693665,179.610397 286.840973,179.650650 
	C266.895935,179.816162 246.948044,179.813141 227.002853,179.659042 
	C222.043762,179.620712 218.891891,176.123169 219.068832,171.849274 
	C219.244675,167.601471 222.481964,164.793137 227.611771,164.768829 
	C241.574203,164.702667 255.537140,164.744308 269.999817,164.743195 
z"/>
<path fill="#030202" opacity="1.000000" stroke="none" 
	d="
M280.696075,195.988663 
	C284.325256,198.547318 285.325073,201.733307 283.826782,205.389786 
	C282.395508,208.882660 279.386536,210.001099 275.729248,209.983719 
	C263.082825,209.923584 250.435638,210.009064 237.789322,209.936356 
	C232.495544,209.905914 229.063828,206.757370 229.142395,202.323074 
	C229.217941,198.060349 232.518692,195.029510 237.534714,194.998932 
	C250.513718,194.919769 263.493652,194.951721 276.472839,195.012741 
	C277.755554,195.018768 279.035919,195.530762 280.696075,195.988663 
z"/>
<path fill="#575757" opacity="1.000000" stroke="none" 
	d="
M277.627167,246.194229 
	C313.545074,254.056030 340.378662,273.599091 356.580627,306.234344 
	C368.288940,329.818176 370.649414,354.654938 365.291107,380.857452 
	C356.739166,422.677216 317.909363,462.602509 266.065063,467.132660 
	C205.928619,472.387390 151.567200,426.914825 145.697983,366.860535 
	C139.975052,308.303070 181.832260,253.325821 242.404053,245.199005 
	C254.046234,243.637009 265.650330,244.110550 277.627167,246.194229 
z"/>
<path fill="#7FD061" opacity="1.000000" stroke="none" 
	d="
M363.779633,266.151398 
	C383.308289,265.749420 402.624359,265.695801 421.940033,265.584381 
	C424.844604,265.567657 426.345886,266.670074 426.082245,269.719208 
	C426.010773,270.545746 426.074646,271.383911 426.074646,272.216736 
	C426.074799,335.178986 426.076019,398.141266 426.072998,461.103516 
	C426.072693,467.725739 426.061157,467.743774 419.407043,467.742188 
	C393.922516,467.736084 368.438019,467.717377 342.492523,467.630066 
	C340.485687,463.925995 343.476624,462.516876 345.488098,460.760529 
	C364.836517,443.866302 379.395569,423.601593 387.123322,399.035583 
	C401.198639,354.291107 394.341248,312.670959 367.150848,274.408905 
	C365.463776,272.034821 363.005432,269.912445 363.779633,266.151398 
z"/>
<path fill="#7FD061" opacity="1.000000" stroke="none" 
	d="
M172.190155,467.234497 
	C145.327240,467.618225 118.683235,467.655548 92.039574,467.772491 
	C88.815315,467.786652 87.464890,466.443542 87.655846,463.281097 
	C87.756042,461.621765 87.669121,459.951202 87.669113,458.285706 
	C87.668892,396.329163 87.667519,334.372650 87.670998,272.416107 
	C87.671387,265.607758 87.684387,265.593750 94.621925,265.597748 
	C112.775490,265.608215 130.929047,265.632141 149.544037,265.743652 
	C151.293610,268.467743 149.577438,270.317474 148.197037,272.108154 
	C132.487610,292.487152 122.809769,315.490234 120.402824,341.018158 
	C116.673355,380.572601 127.307411,415.912170 153.570816,446.256409 
	C158.501678,451.953430 164.181976,456.760773 169.529083,461.966125 
	C170.942596,463.342194 172.656250,464.561401 172.190155,467.234497 
z"/>
<path fill="#65C245" opacity="1.000000" stroke="none" 
	d="
M363.612305,265.689209 
	C367.588745,272.583679 372.737244,278.292053 376.672363,284.865631 
	C392.155731,310.730347 398.516846,338.848602 395.721069,368.528870 
	C392.082123,407.160278 374.834442,439.127716 344.722900,463.925476 
	C343.730011,464.743195 343.043182,465.932617 342.122620,467.252777 
	C334.220917,467.556793 326.410248,467.556793 317.411652,467.556793 
	C353.638214,445.798706 376.197632,415.283508 382.067291,373.960175 
	C387.953278,332.521606 375.210693,296.762543 345.772461,265.556580 
	C352.202209,265.556580 357.717255,265.556580 363.612305,265.689209 
z"/>
<path fill="#65C245" opacity="1.000000" stroke="none" 
	d="
M172.430634,467.654327 
	C170.231415,464.208405 166.963913,462.311035 164.291641,459.961945 
	C139.727295,438.368591 124.662888,411.269226 119.503128,379.263550 
	C113.073784,339.382782 121.886169,302.802734 146.876709,270.561432 
	C147.893051,269.250183 148.770874,267.831604 149.859360,266.149811 
	C154.813950,265.727631 159.622147,265.599976 164.431183,265.528503 
	C165.214462,265.516815 166.001434,265.753326 167.464722,265.980286 
	C138.685211,296.601471 125.686905,332.295624 131.520370,373.572815 
	C137.350037,414.823212 159.670410,445.560669 195.025665,467.751862 
	C187.647156,467.751862 180.268646,467.751862 172.430634,467.654327 
z"/>
<path fill="#62D8F9" opacity="1.000000" stroke="none" 
	d="
M388.000122,179.759949 
	C399.333008,179.760391 410.168396,179.895966 420.997314,179.689758 
	C424.915314,179.615143 426.238495,180.845444 426.159363,184.846725 
	C425.925385,196.674896 425.959686,208.512466 426.143341,220.342407 
	C426.201263,224.074219 424.907104,225.248718 421.230042,225.231888 
	C395.898376,225.115814 370.565643,225.109726 345.234100,225.237320 
	C341.353516,225.256882 339.941376,224.045227 340.007996,220.077362 
	C340.206604,208.247894 340.188385,196.411362 340.015564,184.581085 
	C339.960632,180.820587 341.366974,179.665619 345.002625,179.702438 
	C359.167206,179.845886 373.334106,179.760330 388.000122,179.759949 
z"/>
<path fill="#595959" opacity="1.000000" stroke="none" 
	d="
M87.709686,216.924591 
	C87.710426,205.950745 87.830231,195.463074 87.650795,184.980499 
	C87.584473,181.106476 88.897133,179.614365 92.845299,179.760880 
	C99.327560,180.001404 105.827209,179.927948 112.315392,179.790955 
	C115.748619,179.718430 117.054871,181.104736 117.023773,184.522720 
	C116.914749,196.505325 116.914284,208.490143 117.023094,220.472748 
	C117.054512,223.931793 115.646347,225.242645 112.260521,225.162247 
	C106.604843,225.027939 100.943573,225.132767 95.284653,225.130890 
	C87.735382,225.128387 87.735382,225.125916 87.709686,216.924591 
z"/>
<path fill="#020202" opacity="1.000000" stroke="none" 
	d="
M314.872559,401.849304 
	C294.322479,427.515411 259.498474,436.916199 230.033310,424.974640 
	C198.663620,412.261261 179.758469,381.394562 183.144485,348.418488 
	C186.899933,311.844513 218.415878,282.525238 254.526352,282.011993 
	C293.342255,281.460266 325.033264,308.381348 330.145538,346.287445 
	C332.915253,366.823944 327.549133,385.167053 314.872559,401.849304 
z"/>
<path fill="#7F7F7F" opacity="1.000000" stroke="none" 
	d="
M267.818726,413.985107 
	C233.654221,419.651215 202.955353,397.179016 198.241943,363.417816 
	C193.761368,331.324524 217.556763,301.241486 250.593445,297.233063 
	C280.341492,293.623688 309.337585,315.142761 314.883301,344.944977 
	C320.495300,375.103577 301.865356,405.033630 272.603973,412.859467 
	C271.158905,413.245972 269.698944,413.576813 267.818726,413.985107 
z"/>
<path fill="#020303" opacity="1.000000" stroke="none" 
	d="
M279.677490,322.256042 
	C294.305939,333.178375 300.476685,349.283600 296.449402,365.452118 
	C292.303528,382.096771 279.501892,393.664124 262.312408,396.297882 
	C240.467041,399.644958 220.286331,384.314789 216.510544,361.504761 
	C213.088959,340.834412 228.414246,319.649658 249.315689,315.955902 
	C260.187592,314.034576 270.138611,316.168274 279.677490,322.256042 
z"/>
<path fill="#61D6F7" opacity="1.000000" stroke="none" 
	d="
M238.307800,373.243042 
	C228.850159,363.293457 228.776398,348.651917 237.769928,338.757904 
	C247.301041,328.272491 261.651093,327.367767 273.807770,336.801819 
	C277.177795,341.632935 275.902771,346.441010 274.235199,350.885895 
	C269.654877,363.094543 261.430725,371.479889 248.258133,374.399658 
	C244.859238,375.153076 241.732529,375.163452 238.307800,373.243042 
z"/>
<path fill="#69BBF2" opacity="1.000000" stroke="none" 
	d="
M238.063354,373.348877 
	C256.063721,373.993286 267.082672,363.538605 271.904785,351.177094 
	C273.552917,346.952148 274.226501,342.529236 273.971863,337.545532 
	C284.755188,346.569183 285.564362,362.777039 275.784210,373.440094 
	C265.667633,384.469910 249.697739,384.565857 238.063354,373.348877 
z"/>
</svg>