<svg version="1.1" id="Layer_1" xmlns="http://www.w3.org/2000/svg" xmlns:xlink="http://www.w3.org/1999/xlink" x="0px" y="0px"
	 width="2.5rem" height="2rem" viewBox="0 0 512 512" enable-background="new 0 0 512 512" xml:space="preserve">
<path fill="#fff" opacity="1.000000" stroke="none" 
	d="
M513.000000,183.000000 
	C513.000000,291.806885 512.980469,400.113831 513.085205,508.420593 
	C513.088684,512.020203 512.512573,513.108887 508.581421,513.105957 
	C340.789154,512.982788 172.996765,512.983643 5.204495,513.106079 
	C1.476458,513.108765 0.910999,512.190613 0.913065,508.706421 
	C1.012570,340.914124 1.010930,173.121750 0.922127,5.329429 
	C0.920337,1.948712 1.338224,0.883401 5.168627,0.886402 
	C173.127518,1.018012 341.086548,1.014568 509.045471,0.900022 
	C512.559143,0.897625 513.097168,1.716685 513.090149,5.043757 
	C512.965881,64.195641 513.000000,123.347855 513.000000,183.000000 
z"/>
<path fill="#9DC5FA" opacity="1.000000" stroke="none" 
	d="
M116.351059,85.157974 
	C131.253906,96.274429 143.754288,96.080109 157.841980,84.410515 
	C166.930313,76.882156 167.203308,76.581085 176.131073,84.676117 
	C189.880585,97.143150 206.736786,94.545601 216.304398,85.359947 
	C222.128601,79.768257 225.032257,72.896774 225.050339,64.838501 
	C225.083618,50.008636 225.181091,35.177204 224.989059,20.349831 
	C224.944382,16.900803 225.761398,15.911305 229.332809,15.916673 
	C303.315887,16.027838 377.299225,16.033300 451.282257,15.906715 
	C455.125763,15.900138 455.938721,16.982796 455.891968,20.635767 
	C455.687286,36.629520 455.865845,52.627773 455.765930,68.623520 
	C455.736969,73.259315 456.826263,76.941460 461.894684,78.030678 
	C463.927277,78.467491 464.032318,79.750664 464.008118,81.343773 
	C463.972687,83.676033 463.826172,86.025536 464.043335,88.337967 
	C464.320831,91.292511 463.859833,93.216232 460.407959,94.030571 
	C457.410339,94.737747 455.950989,97.333626 455.856720,100.485985 
	C455.806946,102.150932 455.805725,103.817749 455.805695,105.483719 
	C455.803436,190.964355 455.793549,276.444977 455.842285,361.925598 
	C455.844147,365.196106 456.003265,367.306641 451.346405,367.299835 
	C339.872131,367.137085 228.397583,367.160919 116.462952,367.055908 
	C113.758492,364.435944 114.278099,361.317108 114.274513,358.370300 
	C114.233818,324.874756 114.249908,291.379150 114.249855,257.883545 
	C114.249771,203.390717 114.236923,148.897873 114.279755,94.405075 
	C114.282188,91.304398 113.637573,88.016090 116.351059,85.157974 
z"/>
<path fill="#7FB3F9" opacity="1.000000" stroke="none" 
	d="
M116.715485,84.739960 
	C115.368149,86.796631 116.030609,88.886841 116.029892,90.814919 
	C115.995674,182.552872 116.000488,274.290833 116.001846,366.494873 
	C93.086182,368.099213 73.805870,376.783081 59.105240,394.835388 
	C57.568176,393.286896 58.229061,391.717834 58.228558,390.344910 
	C58.190170,285.680145 58.173477,181.015381 58.207123,76.350616 
	C58.216507,47.157558 75.643394,24.329269 102.842987,17.617992 
	C108.698845,16.173107 108.723656,16.184782 108.726349,22.047495 
	C108.732704,35.880577 108.785614,49.713974 108.708298,63.546619 
	C108.663521,71.556931 110.881187,78.633148 116.715485,84.739960 
z"/>
<path fill="#F8F5F8" opacity="1.000000" stroke="none" 
	d="
M123.209381,404.646790 
	C125.291710,411.092438 126.846878,412.175262 134.112045,412.175659 
	C228.081985,412.180695 322.051910,412.178986 416.021851,412.179077 
	C422.708923,412.179077 422.709503,412.179413 422.709656,418.715851 
	C422.709961,433.711060 422.593597,448.707794 422.795441,463.700287 
	C422.842896,467.226471 421.849609,468.081604 418.378998,468.078308 
	C317.911224,467.983093 217.443344,468.016663 116.975502,467.982513 
	C103.426720,467.977905 92.264000,459.521484 89.164444,447.219788 
	C85.974312,434.558594 91.369194,422.298279 103.301102,415.565704 
	C107.145264,413.396637 109.605171,410.718567 108.802803,405.622742 
	C113.285629,402.035370 118.068756,403.170624 123.209381,404.646790 
z"/>
<path fill="#7FB2F8" opacity="1.000000" stroke="none" 
	d="
M123.676178,404.616821 
	C118.956375,405.039398 114.345993,405.093170 109.261139,405.188904 
	C104.495094,399.839600 101.641655,399.273560 95.545357,402.604187 
	C78.799988,411.752777 70.002708,431.311035 74.359390,449.705170 
	C78.873795,468.765198 95.511482,482.705139 114.923531,482.893768 
	C143.748459,483.173889 172.577942,482.993347 201.405487,482.994843 
	C284.222534,482.999115 367.039642,483.035736 449.856445,482.891022 
	C454.459839,482.882935 456.207703,483.641541 455.949677,488.717407 
	C455.478516,497.986298 455.820801,498.003723 446.437012,498.003723 
	C336.791901,498.003693 227.146820,498.018951 117.501717,497.992950 
	C89.789627,497.986389 66.517830,480.225555 60.061550,454.315460 
	C51.597763,420.348938 74.532867,387.034393 109.350510,382.803345 
	C112.813080,382.382538 116.325768,382.201202 119.815277,382.200256 
	C229.793640,382.169586 339.772095,382.217377 449.750183,382.043243 
	C454.941650,382.035034 456.168701,383.426514 455.932251,388.376770 
	C455.512146,397.170807 455.816010,397.185333 446.899994,397.185333 
	C342.753815,397.185333 238.607620,397.183807 134.461441,397.188629 
	C127.210922,397.188965 125.331734,398.454071 123.676178,404.616821 
z"/>
<path fill="#FEDF7D" opacity="1.000000" stroke="none" 
	d="
M123.724419,43.999901 
	C123.724586,35.506794 123.847771,27.510792 123.659554,19.522123 
	C123.591873,16.649446 124.512756,15.932319 127.296349,15.942544 
	C153.773163,16.039795 180.250565,16.030645 206.727478,15.951780 
	C209.237030,15.944305 210.157532,16.505516 210.133499,19.221928 
	C209.999435,34.374340 210.059662,49.528503 210.061798,64.682068 
	C210.062561,70.207443 207.605164,74.354881 202.705475,76.750847 
	C197.635590,79.230026 192.678055,78.665390 188.229507,75.051567 
	C183.578827,71.273537 178.970886,67.442856 174.349045,63.629379 
	C167.831818,58.252048 165.953033,58.258648 159.279633,63.743763 
	C154.779083,67.442917 150.298538,71.166374 145.797577,74.865013 
	C141.397568,78.480721 136.496353,79.274414 131.349823,76.880318 
	C126.182564,74.476593 123.696823,70.220520 123.727768,64.482307 
	C123.763680,57.821709 123.728661,51.160721 123.724419,43.999901 
z"/>
<path fill="#9AC2F6" opacity="1.000000" stroke="none" 
	d="
M437.696350,461.947937 
	C437.696381,446.490387 437.796265,431.524414 437.621338,416.561646 
	C437.581085,413.121155 438.484070,411.800934 442.039062,412.105621 
	C445.505432,412.402679 449.025269,412.318024 452.506287,412.124634 
	C455.208649,411.974548 455.874664,413.070038 455.861084,415.602539 
	C455.772888,432.063324 455.770172,448.525116 455.863617,464.985870 
	C455.877625,467.448639 455.016174,468.161652 452.688263,468.046448 
	C449.536743,467.890472 446.331024,467.688202 443.222015,468.083557 
	C438.585785,468.673065 436.901917,466.905334 437.696350,461.947937 
z"/>
<path fill="#040404" opacity="1.000000" stroke="none" 
	d="
M349.720581,291.942139 
	C347.578522,309.365692 337.799225,318.029755 320.640930,318.037506 
	C290.658600,318.051086 260.675018,318.186096 230.694321,317.959991 
	C211.162186,317.812714 198.629822,297.634155 207.239746,280.387665 
	C212.241898,270.367889 220.711533,265.637360 231.916977,265.623108 
	C239.440887,265.613556 239.440994,265.517395 239.441147,257.860504 
	C239.441345,248.532639 239.231888,239.197937 239.535645,229.879974 
	C239.673004,225.666565 238.797348,223.778946 234.141708,224.261292 
	C230.194962,224.670181 226.172134,224.289230 222.309540,222.963043 
	C210.196152,218.804062 203.105042,206.901733 204.970642,193.753571 
	C206.663971,181.819534 217.523651,172.137329 229.958527,172.026703 
	C250.778015,171.841476 271.600250,171.936707 292.421265,171.965500 
	C308.786774,171.988113 319.270508,182.288040 319.394226,198.764038 
	C319.545563,218.917770 319.569061,239.075119 319.330536,259.227142 
	C319.275330,263.891022 320.013184,265.778564 325.362549,265.950195 
	C338.937286,266.385803 348.040466,276.376495 349.720581,291.942139 
z"/>
<path fill="#030404" opacity="1.000000" stroke="none" 
	d="
M296.008667,81.888382 
	C313.134766,90.796227 321.298187,106.055473 318.970428,124.285072 
	C316.921173,140.333252 304.013062,153.810745 287.249054,157.405624 
	C266.060089,161.949417 244.349762,147.456024 240.179855,125.983147 
	C235.912338,104.007744 250.983322,82.343109 272.771118,78.857941 
	C280.751190,77.581459 288.308502,78.561661 296.008667,81.888382 
z"/>
<path fill="#F8F6F9" opacity="1.000000" stroke="none" 
	d="
M235.715881,281.276855 
	C239.255707,280.879944 242.508240,280.768402 245.761353,280.676971 
	C250.373856,280.547272 253.615692,278.716034 254.565247,273.441376 
	C256.681885,270.956665 259.314667,271.430481 261.726624,271.398804 
	C264.734650,271.359314 266.349365,270.300201 266.353333,267.055054 
	C266.371307,252.316772 266.387909,237.578659 266.342957,222.840347 
	C266.334106,219.937897 265.017090,218.646332 262.125000,218.630936 
	C259.830353,218.618729 257.459564,218.823776 255.049072,217.237640 
	C252.777054,210.605515 251.093307,209.376022 244.373550,209.322205 
	C241.882339,209.302246 239.391205,209.275864 236.451645,209.133911 
	C231.152481,204.924515 230.745499,193.171463 235.732819,187.455139 
	C255.349228,187.108429 274.670502,186.952072 293.990692,187.037064 
	C300.668762,187.066437 304.335541,191.445831 304.357544,199.011841 
	C304.422424,221.336349 304.382568,243.661148 304.383270,265.985840 
	C304.383698,279.904327 305.148956,280.666046 319.100250,280.681183 
	C320.765411,280.682983 322.438110,280.639343 324.094299,280.775513 
	C330.282928,281.284302 334.721313,286.000580 334.649353,291.909424 
	C334.577576,297.802551 330.047577,302.574188 323.913361,302.948242 
	C320.427002,303.160858 316.918671,303.027710 313.420258,303.026550 
	C287.930328,303.018188 262.440369,303.003754 236.489990,302.909180 
	C231.200256,298.095917 230.366943,287.923187 235.715881,281.276855 
z"/>
<path fill="#D5D2E3" opacity="1.000000" stroke="none" 
	d="
M254.623474,217.367203 
	C255.583694,216.945251 256.412354,217.003510 257.241547,217.012039 
	C267.997131,217.122559 267.997253,217.120773 267.997192,227.655212 
	C267.997162,240.935257 267.817352,254.219086 268.098633,267.493164 
	C268.191498,271.873413 266.987396,273.609558 262.541107,273.035248 
	C260.257385,272.740295 257.900604,273.011169 255.160522,273.062012 
	C254.660172,254.673248 254.576157,236.248764 254.623474,217.367203 
z"/>
<path fill="#DBD8E9" opacity="1.000000" stroke="none" 
	d="
M235.594666,187.078400 
	C233.319031,194.184372 232.531952,201.208466 235.962280,208.634583 
	C229.960342,209.822372 224.300385,209.500046 220.948135,203.321198 
	C217.183273,196.381851 221.770828,187.872086 229.699615,187.053345 
	C231.503113,186.867126 233.339645,187.000488 235.594666,187.078400 
z"/>
<path fill="#DBD8E9" opacity="1.000000" stroke="none" 
	d="
M235.572052,280.849731 
	C233.039902,288.011749 232.453705,295.041351 236.014771,302.449310 
	C234.214981,302.883423 232.392548,303.075958 230.587280,302.971558 
	C224.160019,302.599915 219.678116,297.943420 219.693085,291.777466 
	C219.708191,285.555939 224.093323,281.116699 230.672516,280.723267 
	C232.156876,280.634521 233.651352,280.714600 235.572052,280.849731 
z"/>
<path fill="#F8F5F8" opacity="1.000000" stroke="none" 
	d="
M279.704224,93.657761 
	C294.144623,94.003708 304.521912,104.727631 304.336700,118.569107 
	C304.154694,132.166519 293.701752,142.616776 279.439514,142.958557 
	C262.696869,128.427139 265.289215,104.129753 279.704224,93.657761 
z"/>
<path fill="#DAD7E9" opacity="1.000000" stroke="none" 
	d="
M279.660889,93.353065 
	C279.286652,96.217278 276.646332,97.458519 275.128510,99.628899 
	C266.534149,111.918091 267.154999,126.616753 276.926422,139.387695 
	C277.624390,140.299942 278.267059,141.254501 278.980408,142.530350 
	C266.932190,143.160355 256.311493,133.827805 254.816238,121.598457 
	C253.245514,108.751778 261.188507,96.903931 273.355743,94.058769 
	C275.285889,93.607422 277.296265,93.499344 279.660889,93.353065 
z"/>
</svg>